<svg xmlns="http://www.w3.org/2000/svg" width="236" height="40" viewBox="0 0 236 40">
  <path fill="#0518C5" fill-rule="evenodd" d="M219.889701,-6.34920635e-05 C225.960991,-6.34920635e-05 230.268626,1.79993651 232.689529,5.34914286 C233.916475,7.1904127 234.531852,9.20628571 234.87126,12.5015238 L226.598572,12.5015238 L226.598572,11.9935873 C226.598572,8.73644444 224.071088,6.86977778 219.661314,6.86977778 C215.591583,6.86977778 213.066637,8.3967619 213.066637,10.8570794 C213.066637,12.507873 214.262497,13.6380317 216.622497,14.2126349 L224.292497,15.9777143 C226.424744,16.4951746 228.051368,17.0094603 229.370938,17.5999365 C230.690508,18.1904127 231.699217,18.8634286 232.593733,19.7015238 C234.490615,21.4348571 235.454916,23.8354921 235.454916,26.8380317 C235.454916,34.5872381 229.424862,39.3999365 219.718411,39.3999365 C209.605938,39.3999365 203.75669,34.6158095 203.645669,26.2729524 L211.934217,26.2729524 C212.143572,30.539619 214.659002,32.5300952 219.832604,32.5300952 C224.317873,32.5300952 226.998249,30.8888254 226.998249,28.1466032 C226.998249,26.1967619 225.589862,24.8570794 222.814325,24.1618413 L215.940508,22.4577143 C211.96911,21.5053333 209.444163,20.4253333 207.74712,18.9523175 C205.888938,17.4221587 204.778723,14.6697778 204.778723,11.5967619 C204.778723,4.33326984 210.427497,-6.34920635e-05 219.889701,-6.34920635e-05 Z M99.2080559,0.680761905 L113.965669,26.7531429 L113.965669,0.680761905 L122.042325,0.680761905 L122.042325,38.680127 L111.725572,38.680127 L97.3784215,12.9029841 L97.3784215,38.680127 L89.1177871,38.680127 L89.1177871,0.680761905 L99.2080559,0.680761905 Z M163.096428,0.680761905 L169.077632,28.5429841 L174.976998,0.680761905 L184.556568,0.680761905 L190.624686,28.8147302 L196.722622,0.680761905 L204.525847,0.680761905 L195.500751,38.680127 L185.599535,38.680127 L179.401363,11.9721905 L173.876299,38.680127 L163.703557,38.680127 L154.712718,0.680761905 L163.096428,0.680761905 Z M152.577109,0.680952381 L152.577109,8.02761905 L134.555463,8.02761905 L134.555463,15.4206349 L151.374904,15.4206349 L151.374904,22.1311111 L134.555463,22.1311111 L134.555463,31.4009524 L153.044033,31.4009524 L153.044033,38.6803175 L126.031549,38.6803175 L126.031549,0.680952381 L152.577109,0.680952381 Z M5.17753548,28.3452063 C8.03744946,28.3464762 10.3543097,30.6582222 10.3549441,33.5109206 C10.3543097,36.3629841 8.03744946,38.6753651 5.17753548,38.676 C2.3169871,38.6753651 0.000126881721,36.3629841 0.000126881721,33.5109206 C0.000126881721,30.6582222 2.3169871,28.3464762 5.17753548,28.3452063 Z M19.9541806,28.3452063 C22.814729,28.3464762 25.1315892,30.6582222 25.1322237,33.5109206 C25.1315892,36.3629841 22.814729,38.6753651 19.9541806,38.676 C17.0949011,38.6753651 14.7780409,36.3629841 14.776772,33.5109206 C14.7780409,30.6582222 17.0949011,28.3464762 19.9541806,28.3452063 Z M34.7313968,28.3452063 C37.5913108,28.3464762 39.9088054,30.6582222 39.9094398,33.5109206 C39.9088054,36.3629841 37.5913108,38.6753651 34.7313968,38.676 C31.8721172,38.6753651 29.555257,36.3629841 29.5539882,33.5109206 C29.555257,30.6582222 31.8721172,28.3464762 34.7313968,28.3452063 Z M77.7746247,0.723555556 C79.9404957,0.723555556 82.2719473,2.15339683 82.2719473,5.29371429 L82.2719473,5.29371429 L82.2716156,34.2159664 C82.2608752,35.0701242 81.9639082,38.6505397 77.7746247,38.6505397 L77.7746247,38.6505397 L48.0614634,38.6505397 C45.8968613,38.648 44.1871301,36.5235556 44.1871301,34.2810159 C44.1871301,31.8835556 46.1220763,29.9400635 48.518872,29.9146667 C48.5493237,29.9133968 48.5740656,29.9095873 48.6051516,29.9095873 L48.6051516,29.9095873 L73.5075925,29.9095873 L73.5075925,24.0016508 L52.6514097,24.0016508 L48.4789043,23.9616508 C46.374571,23.9616508 44.2518398,22.5737143 44.2518398,19.4714921 L44.2518398,19.4714921 L44.2518398,5.04609524 C44.2518398,2.34006349 46.3663237,0.723555556 48.4097538,0.723555556 L48.4097538,0.723555556 Z M5.17753548,14.5394286 C8.03744946,14.5400635 10.3543097,16.8518095 10.3549441,19.7045079 C10.3543097,22.5572063 8.03744946,24.8689524 5.17753548,24.8695873 C2.3169871,24.8689524 0.000761290323,22.5572063 0.000126881721,19.7045079 C0.000761290323,16.8518095 2.3169871,14.5400635 5.17753548,14.5394286 Z M19.9548151,14.5394286 C22.814729,14.5400635 25.1315892,16.8518095 25.1322237,19.7045079 C25.1315892,22.5572063 22.814729,24.8689524 19.9548151,24.8695873 C17.0949011,24.8689524 14.7774065,22.5572063 14.7774065,19.7045079 C14.7774065,16.8518095 17.0949011,14.5400635 19.9548151,14.5394286 Z M34.7320312,14.5394286 C37.5913108,14.5400635 39.9088054,16.8518095 39.9094398,19.7045079 C39.9088054,22.5572063 37.5913108,24.8689524 34.7320312,24.8695873 C31.8721172,24.8689524 29.5546226,22.5572063 29.5546226,19.7045079 C29.5546226,16.8518095 31.8721172,14.5400635 34.7320312,14.5394286 Z M73.5063237,9.46831746 L53.0187323,9.46831746 L53.0187323,15.5876825 L73.5063237,15.5876825 L73.5063237,9.46831746 Z M19.9541806,0.733587302 C22.814729,0.734222222 25.1315892,3.04533333 25.1315892,5.89866667 C25.1315892,8.75136508 22.814729,11.0624762 19.9541806,11.0631111 C17.0949011,11.0624762 14.7780409,8.75136508 14.776772,5.89866667 C14.7780409,3.04533333 17.0949011,0.734222222 19.9541806,0.733587302 Z M34.7320312,0.733904762 C37.5913108,0.734539683 39.9088054,3.04565079 39.9094398,5.89834921 C39.9088054,8.75104762 37.5913108,11.0627937 34.7320312,11.0634286 C31.8721172,11.0627937 29.555257,8.75104762 29.5539882,5.89834921 C29.555257,3.04565079 31.8721172,0.734539683 34.7320312,0.733904762 Z M5.17766237,0.733587302 C8.03757634,0.734222222 10.3544366,3.04533333 10.355071,5.89866667 C10.3544366,8.75136508 8.03757634,11.0624762 5.17766237,11.0631111 C2.31711398,11.0624762 0.000253763441,8.75136508 0.000253763441,5.89866667 C0.000253763441,3.04533333 2.31711398,0.734222222 5.17766237,0.733587302 Z"/>
</svg>
