<svg xmlns="http://www.w3.org/2000/svg" width="120" height="60" viewBox="0 0 120 60" fill="none"><g clip-path="url(#clip0_28_390)"><path d="M29.3422 52.2645H29.2878C28.6567 52.2645 28.0366 52.3407 27.4382 52.3407C23.7537 52.3231 20.1183 51.4946 16.79 49.9139C13.4618 48.3332 10.5223 46.0391 8.18048 43.1945C5.83862 40.3499 4.15176 37.0247 3.23969 33.4548C2.32761 29.8849 2.21269 26.158 2.90309 22.5387C3.59348 18.9194 5.07226 15.4965 7.23441 12.5131C9.39655 9.5296 12.189 7.05877 15.4136 5.27601C18.6381 3.49325 22.2156 2.44229 25.8921 2.19776C29.5685 1.95323 33.2537 2.52112 36.6859 3.86112C37.2408 4.07871 38.7639 5.04699 39.3188 4.22014C40.0477 3.13218 38.6986 2.54468 38.1329 2.29445C34.4187 0.663805 30.3868 -0.115431 26.3324 0.0138101C22.2781 0.143051 18.304 1.1775 14.7012 3.04139C11.0984 4.90528 7.95812 7.55142 5.51032 10.786C3.06253 14.0206 1.36922 17.7618 0.554394 21.7355C-0.260429 25.7092 -0.176126 29.8148 0.801127 33.7517C1.77838 37.6887 3.62384 41.3571 6.20235 44.4885C8.78085 47.6199 12.0271 50.1349 15.7034 51.8494C19.3797 53.5638 23.3929 54.4342 27.4491 54.3969C28.0584 54.3969 28.6567 54.3969 29.2442 54.3099H29.3095C29.5507 54.3198 29.7913 54.2795 30.0161 54.1915C30.2408 54.1035 30.4448 53.9696 30.6151 53.7986C30.6929 53.7001 30.7479 53.5856 30.7761 53.4633C30.8043 53.341 30.8051 53.214 30.7783 53.0914C30.6151 52.1666 29.7991 52.2319 29.353 52.2645" fill="#00ACBE"></path><path d="M26.9487 38.0992C26.7406 38.0997 26.5367 38.0406 26.3612 37.9287C26.1858 37.8169 26.046 37.6571 25.9587 37.4682C25.2624 35.8689 25.208 33.3122 25.7737 29.3955C26.2959 26.1316 26.6985 23.4879 27.4492 20.4525C27.558 19.9955 27.917 18.777 27.5906 18.6138C27.2642 18.4506 26.7529 19.3101 26.5679 19.5604C26.383 19.8106 24.392 22.8242 24.392 22.8242C23.304 24.5976 22.2161 26.186 21.2913 27.4698C19.507 30.168 18.7455 30.8969 17.7663 30.8969C17.4367 30.8693 17.1205 30.7538 16.8507 30.5625C16.5809 30.3711 16.3673 30.1109 16.2323 29.809C16.0265 29.326 15.8874 28.8172 15.8188 28.2967C15.6448 27.2849 15.2313 22.2476 15.1117 21.4208C15.0246 20.8768 14.6112 20.2131 14.0237 20.5178C13.5444 20.8074 13.1649 21.2362 12.9357 21.7472C11.7499 24.2495 8.5839 31.6911 8.1596 32.8661C7.87673 33.5515 7.44154 34.9224 6.57117 35.0421C5.7008 35.1617 5.77696 34.411 5.89664 33.8779C6.15775 32.6159 8.85589 25.7291 10.7054 21.3446C11.0663 20.341 11.318 19.3014 11.4561 18.2439C11.4561 17.9502 12.0001 17.8414 12.1307 17.8196C12.4001 17.7869 12.673 17.8362 12.914 17.9611C13.2621 18.1134 13.2839 18.3092 13.3818 18.5703C13.4663 18.3446 13.6137 18.1478 13.8065 18.0032C13.9993 17.8587 14.2294 17.7723 14.4698 17.7543C14.9101 17.7091 15.3549 17.7573 15.7753 17.8958C16.798 18.2113 16.983 19.4189 17.157 20.3328C17.3529 21.4208 17.7228 26.2948 17.8533 27.1108L18.0274 28.449C18.0274 28.449 21.9223 22.5305 23.032 20.7245C23.032 20.7245 25.8172 16.2856 27.0684 14.4361C27.6559 13.5766 28.6133 11.825 29.8427 11.825C30.0317 11.8266 30.2182 11.8693 30.3891 11.95C30.5601 12.0308 30.7114 12.1478 30.8327 12.2928C31.4637 13.0979 30.9633 15.1432 29.7448 20.409C29.092 23.2921 28.4392 26.4907 27.9061 29.7219C27.373 32.9532 27.4492 35.5099 27.9061 36.6414C28.0084 36.903 28.0055 37.1941 27.898 37.4537C27.7905 37.7132 27.5868 37.9212 27.3295 38.0339C27.2018 38.1205 27.0477 38.159 26.8943 38.1427" fill="#00ACBE"></path><path d="M37.9262 51.8184C37.2952 53.483 36.4793 55.9744 34.782 57.6172C34.5082 57.8645 34.1599 58.0137 33.792 58.0416C33.5853 58.0416 33.4656 57.9436 33.3568 57.6934C32.8455 56.5075 33.3568 54.6471 33.7158 53.4721L34.4883 51.1439C36.2323 47.2054 38.3107 43.4236 40.7005 39.84C40.7005 39.84 39.2862 48.2499 37.9371 51.8075M52.4723 24.2168C52.0814 24.2285 51.6952 24.3057 51.3299 24.4453C48.7079 26.0228 45.7378 29.4826 43.0723 33.149C43.4028 29.4633 43.5336 25.7625 43.464 22.0627C43.4593 21.8444 43.3784 21.6347 43.2353 21.4697C43.0923 21.3048 42.896 21.1951 42.6806 21.1597C42.5903 21.1483 42.4989 21.1483 42.4086 21.1597C42.2313 21.1595 42.0579 21.2122 41.9106 21.311C41.7633 21.4098 41.6488 21.5503 41.5818 21.7145C40.3415 24.2976 38.7965 26.7228 36.9797 28.9386C35.2063 31.0166 34.0313 31.3321 33.4874 31.3321C33.3922 31.3393 33.2966 31.3266 33.2067 31.2947C33.1168 31.2629 33.0345 31.2126 32.9651 31.1471C32.7802 30.886 32.4973 30.1789 32.6931 28.264C32.8993 26.6878 33.2009 25.1255 33.5962 23.5858V23.3573C33.6383 23.1323 33.6085 22.8997 33.5108 22.6927C33.4131 22.4856 33.2527 22.3146 33.0522 22.2041C32.9308 22.1561 32.8019 22.1303 32.6714 22.1279C32.5059 22.1287 32.3426 22.165 32.1924 22.2345C32.0422 22.3039 31.9087 22.4049 31.801 22.5305L30.1908 24.5976C30.0431 24.8171 29.9804 25.0828 30.0145 25.3451C30.0485 25.6074 30.177 25.8484 30.3758 26.0228C30.4719 26.102 30.5829 26.1612 30.7022 26.1969H30.9198V26.4254C30.8218 26.9585 30.7348 27.5134 30.6913 27.9703C30.4519 30.0048 30.6913 31.43 31.3767 32.3221C31.6226 32.6383 31.9404 32.8911 32.3038 33.0596C32.6671 33.228 33.0655 33.3071 33.4656 33.2904C35.0105 33.2904 36.7295 32.2025 38.4811 30.1462C39.4036 29.1059 40.2302 27.9844 40.9508 26.7953L41.4295 26.0011V26.9259C41.3207 30.4182 41.1248 33.4536 40.8202 36.3802C37.5346 41.3631 35.0649 45.8564 35.0649 45.8564L34.9996 45.9978C34.073 47.4339 33.2965 48.9615 32.6823 50.5564L31.9207 52.7867C31.1591 55.3978 31.0068 57.2365 31.4637 58.4115C31.6143 58.8499 31.8906 59.2344 32.2582 59.5169C32.6258 59.7993 33.0684 59.9673 33.5309 59.9999H33.8355C34.653 59.9842 35.4328 59.6528 36.0114 59.0751C37.6878 57.254 38.9171 55.0675 39.6017 52.6888C40.5684 50.0316 41.2966 47.2936 41.7776 44.5073C41.8973 43.7131 42.0061 42.9298 42.104 42.1356L42.1802 41.5589C42.1802 41.3631 42.1802 41.1781 42.2672 40.9823C42.3542 40.7865 42.648 38.0122 42.735 37.2724C43.1485 36.6522 43.5619 36.043 43.9753 35.4555C44.5737 34.5851 45.8792 32.7682 46.5973 31.7673C47.3153 30.7664 47.9355 29.983 48.4903 29.2758C50.1549 27.187 51.1994 26.4254 51.8521 26.2404H51.9718H52.1133C52.2057 26.2412 52.296 26.2676 52.3744 26.3166C52.4317 26.3823 52.4727 26.4606 52.494 26.5451C52.5378 26.7856 52.5597 27.0295 52.5593 27.274C52.5557 30.9535 51.7407 34.5869 50.1724 37.9154C48.604 41.244 46.3209 44.1856 43.4857 46.5309C43.4048 46.6039 43.3174 46.6695 43.2246 46.7268C42.6915 47.1184 41.6906 47.8147 42.3107 48.7068C42.4033 48.8357 42.5262 48.9397 42.6685 49.0099C42.8108 49.0801 42.9681 49.1143 43.1267 49.1094C43.4089 49.1079 43.6833 49.0164 43.91 48.8483C47.2571 46.3301 49.9705 43.0658 51.8347 39.3149C53.6988 35.564 54.6622 31.4299 54.6482 27.2414C54.6482 24.1624 52.7443 24.2168 52.5593 24.2168" fill="#00ACBE"></path><path d="M56.0734 7.16839C55.8329 6.95029 55.5291 6.81471 55.2061 6.78144C54.8832 6.74817 54.5581 6.81894 54.2782 6.98344L50.8511 8.86561L44.6171 5.79756C44.5622 5.7736 44.503 5.76123 44.4431 5.76123C44.3831 5.76123 44.3239 5.7736 44.269 5.79756L42.9417 6.51562C42.8438 6.51562 42.8438 6.65705 42.9417 6.72233L48.5664 10.2473L44.5301 12.6735L42.7785 11.8793C42.7217 11.855 42.6607 11.8425 42.599 11.8425C42.5373 11.8425 42.4762 11.855 42.4194 11.8793L41.8211 12.2165C41.8008 12.2293 41.7842 12.2469 41.7726 12.2679C41.7611 12.2888 41.755 12.3123 41.755 12.3362C41.755 12.3601 41.7611 12.3836 41.7726 12.4046C41.7842 12.4255 41.8008 12.4431 41.8211 12.4559L43.4095 14.0443C43.4941 14.1425 43.5571 14.2574 43.5944 14.3816L44.0949 16.5575C44.0983 16.581 44.1076 16.6033 44.1219 16.6223C44.1363 16.6413 44.1551 16.6564 44.1768 16.6662C44.1985 16.6759 44.2223 16.6801 44.246 16.6782C44.2698 16.6763 44.2926 16.6685 44.3125 16.6554L44.9218 16.3182C44.9747 16.2862 45.0204 16.2436 45.056 16.193C45.0916 16.1424 45.1163 16.085 45.1285 16.0244V15.611L45.259 14.6318L45.3243 14.1531L49.5782 12.1295L50.0134 18.2982C50.0141 18.3208 50.0207 18.3428 50.0325 18.362C50.0442 18.3813 50.0608 18.3972 50.0805 18.4081C50.1002 18.4191 50.1225 18.4248 50.145 18.4246C50.1676 18.4244 50.1897 18.4183 50.2092 18.407L51.5801 17.6781C51.6304 17.6455 51.6729 17.6023 51.7049 17.5516C51.7368 17.5009 51.7573 17.4438 51.765 17.3844L52.037 10.7695L55.3662 8.86561C55.6591 8.70203 55.8883 8.44442 56.0166 8.13445C56.1449 7.82447 56.1649 7.48027 56.0734 7.15751" fill="#00ACBE"></path><path d="M41.8972 15.1541L41.0704 15.611L40.5591 15.883L40.0586 16.1876L39.0468 16.786L38.0676 17.4279C36.7463 18.2957 35.485 19.2516 34.2924 20.2892L33.7484 20.7788C34.0642 20.8235 34.359 20.9627 34.594 21.1783C34.8291 21.3939 34.9932 21.6757 35.0648 21.9865L35.4674 21.5077C36.4818 20.3792 37.5723 19.3214 38.7313 18.3418C39.025 18.0915 39.3079 17.8413 39.6125 17.602L40.5155 16.8948L40.9725 16.5466L41.4403 16.2094L42.2236 15.6436C42.2236 15.5566 42.1692 15.4478 42.1366 15.3608L41.8972 15.1541Z" fill="url(#paint0_linear_28_390)"></path><path d="M80.7592 28.1227C80.7592 33.4102 76.9949 37.6968 71.6965 37.7186C70.5178 37.749 69.3489 37.4974 68.2872 36.9845C67.2255 36.4716 66.3018 35.7124 65.593 34.7702L65.4081 36.9461C65.4111 37.0217 65.3985 37.0971 65.3713 37.1677C65.3441 37.2383 65.3027 37.3026 65.2497 37.3566C65.1967 37.4106 65.1333 37.4532 65.0632 37.4817C64.9931 37.5103 64.918 37.5243 64.8423 37.5227H62.3618C62.2848 37.5275 62.2077 37.5159 62.1356 37.4886C62.0635 37.4613 61.998 37.419 61.9434 37.3644C61.8889 37.3099 61.8466 37.2444 61.8193 37.1723C61.792 37.1002 61.7804 37.0231 61.7852 36.9461L61.6764 10.291C61.6717 10.215 61.6831 10.1389 61.7097 10.0676C61.7364 9.99625 61.7777 9.93131 61.831 9.87695C61.8844 9.8226 61.9485 9.78005 62.0193 9.75205C62.0901 9.72406 62.166 9.71124 62.2421 9.71442H65.0926C65.1695 9.70965 65.2466 9.72129 65.3187 9.74858C65.3909 9.77587 65.4564 9.81818 65.5109 9.87271C65.5654 9.92723 65.6077 9.99273 65.635 10.0649C65.6623 10.137 65.674 10.2141 65.6692 10.291V21.3339C66.3623 20.4301 67.2555 19.6994 68.2786 19.1991C69.3018 18.6989 70.4271 18.4427 71.5659 18.4508C76.8969 18.3855 80.7592 22.672 80.7592 28.1227ZM76.9187 28.1227C76.9187 24.6195 74.4926 22.041 71.2504 22.0519C70.4759 22.0709 69.7131 22.2459 69.0077 22.5662C68.3023 22.8866 67.6687 23.3459 67.1447 23.9166C66.6207 24.4873 66.2171 25.1577 65.958 25.8879C65.6989 26.618 65.5895 27.3929 65.6365 28.1663C65.6031 28.9279 65.7242 29.6884 65.9926 30.402C66.261 31.1155 66.6711 31.7674 67.1983 32.3181C67.7254 32.8689 68.3586 33.3073 69.0597 33.6067C69.7608 33.9062 70.5153 34.0606 71.2776 34.0606C72.04 34.0606 72.7945 33.9062 73.4956 33.6067C74.1967 33.3073 74.8299 32.8689 75.357 32.3181C75.8841 31.7674 76.2942 31.1155 76.5626 30.402C76.831 29.6884 76.9522 28.9279 76.9187 28.1663V28.1227Z" fill="#00ACBE"></path><path d="M102.421 19.2339L102.486 36.7501C102.492 36.8265 102.482 36.9034 102.456 36.9756C102.43 37.0477 102.389 37.1134 102.335 37.1681C102.281 37.2228 102.217 37.2653 102.145 37.2927C102.073 37.3201 101.997 37.3317 101.92 37.3267H99.4395C99.3639 37.3283 99.2887 37.3143 99.2187 37.2858C99.1486 37.2572 99.0852 37.2146 99.0322 37.1606C98.9792 37.1066 98.9378 37.0423 98.9106 36.9717C98.8833 36.9011 98.8708 36.8257 98.8738 36.7501L98.678 34.5742C97.9784 35.5247 97.061 36.2935 96.0027 36.816C94.9445 37.3385 93.7763 37.5995 92.5963 37.577C87.2979 37.577 83.4683 33.3448 83.4465 28.0573C83.4247 22.7698 87.2217 18.2656 92.5092 18.2656C93.7087 18.2436 94.8955 18.5145 95.9667 19.0548C97.0378 19.5952 97.961 20.3886 98.6562 21.3663L98.7976 19.1904C98.7976 19.0394 98.8569 18.8943 98.9627 18.7865C99.0685 18.6787 99.2123 18.6166 99.3634 18.6138H101.844C101.925 18.6059 102.008 18.617 102.084 18.6461C102.161 18.6751 102.23 18.7215 102.285 18.7814C102.341 18.8414 102.382 18.9134 102.406 18.9919C102.429 19.0704 102.434 19.1532 102.421 19.2339ZM98.5692 28.0029C98.6148 27.2279 98.5029 26.4517 98.2402 25.7212C97.9775 24.9907 97.5694 24.321 97.0407 23.7526C96.5119 23.1841 95.8734 22.7288 95.1638 22.414C94.4541 22.0993 93.688 21.9316 92.9118 21.9212C89.6479 21.9212 87.287 24.5323 87.2979 28.0355C87.25 28.8051 87.3603 29.5763 87.6219 30.3015C87.8835 31.0268 88.2908 31.6909 88.8188 32.2527C89.3468 32.8146 89.9843 33.2624 90.692 33.5684C91.3997 33.8745 92.1625 34.0324 92.9335 34.0324C93.7046 34.0324 94.4674 33.8745 95.1751 33.5684C95.8827 33.2624 96.5202 32.8146 97.0482 32.2527C97.5762 31.6909 97.9836 31.0268 98.2452 30.3015C98.5067 29.5763 98.617 28.8051 98.5692 28.0355V28.0029Z" fill="#00ACBE"></path><path d="M107.36 9.49678H110.221C110.298 9.49372 110.374 9.50653 110.446 9.53443C110.517 9.56232 110.582 9.60469 110.636 9.65885C110.69 9.71302 110.732 9.77782 110.76 9.84916C110.788 9.92051 110.801 9.99686 110.798 10.0734L110.907 36.7285C110.91 36.805 110.897 36.8814 110.869 36.9527C110.841 37.024 110.799 37.0888 110.745 37.143C110.69 37.1972 110.626 37.2395 110.554 37.2674C110.483 37.2953 110.407 37.3081 110.33 37.3051H107.48C107.403 37.3099 107.326 37.2982 107.253 37.2709C107.181 37.2436 107.116 37.2013 107.061 37.1468C107.007 37.0923 106.964 37.0268 106.937 36.9546C106.91 36.8825 106.898 36.8054 106.903 36.7285L106.794 10.0734C106.791 9.9978 106.804 9.92239 106.831 9.8518C106.858 9.78121 106.9 9.71694 106.953 9.66294C107.006 9.60893 107.069 9.56633 107.139 9.53776C107.209 9.50918 107.284 9.49524 107.36 9.49678Z" fill="#00ACBE"></path><path d="M114.91 12.2928C114.91 11.6811 115.153 11.0944 115.586 10.6619C116.018 10.2293 116.605 9.98633 117.217 9.98633C117.829 9.98633 118.415 10.2293 118.848 10.6619C119.28 11.0944 119.523 11.6811 119.523 12.2928C119.523 12.9045 119.28 13.4912 118.848 13.9237C118.415 14.3563 117.829 14.5993 117.217 14.5993C116.605 14.5993 116.018 14.3563 115.586 13.9237C115.153 13.4912 114.91 12.9045 114.91 12.2928ZM115.813 18.603H118.675C118.75 18.6 118.826 18.6125 118.896 18.6397C118.967 18.667 119.031 18.7084 119.085 18.7613C119.139 18.8143 119.182 18.8778 119.21 18.9479C119.239 19.0179 119.253 19.0931 119.251 19.1687L119.317 36.6958C119.321 36.7713 119.31 36.847 119.283 36.9178C119.257 36.9886 119.215 37.0529 119.162 37.1065C119.108 37.16 119.044 37.2015 118.973 37.2282C118.902 37.255 118.826 37.2663 118.751 37.2615H115.89C115.814 37.2682 115.737 37.2581 115.665 37.232C115.594 37.2059 115.529 37.1645 115.475 37.1106C115.421 37.0566 115.379 36.9916 115.353 36.9199C115.327 36.8482 115.317 36.7718 115.324 36.6958L115.248 19.1796C115.25 19.1081 115.267 19.0379 115.297 18.973C115.327 18.9081 115.37 18.8497 115.422 18.8012C115.475 18.7527 115.536 18.715 115.603 18.6903C115.671 18.6657 115.742 18.6545 115.813 18.6574V18.603Z" fill="#00ACBE"></path></g><defs><linearGradient id="paint0_linear_28_390" x1="33.7484" y1="18.5703" x2="42.2454" y2="18.5703" gradientUnits="userSpaceOnUse"><stop stop-color="white" stop-opacity="0"></stop><stop offset="0.19" stop-color="#B5E7EC" stop-opacity="0.29"></stop><stop offset="0.38" stop-color="#75D2DC" stop-opacity="0.54"></stop><stop offset="0.57" stop-color="#42C2CF" stop-opacity="0.74"></stop><stop offset="0.74" stop-color="#1EB6C6" stop-opacity="0.88"></stop><stop offset="0.89" stop-color="#08AFC0" stop-opacity="0.97"></stop><stop offset="1" stop-color="#00ACBE"></stop></linearGradient><clipPath id="clip0_28_390"><rect width="119.523" height="60" fill="white"></rect></clipPath></defs></svg>