<svg xmlns="http://www.w3.org/2000/svg" width="174" height="60" viewBox="0 0 174 60" fill="none"><g clip-path="url(#clip0_28_368)"><path d="M29.1833 52.2686C28.5299 52.2686 27.8766 52.3775 27.2232 52.3775C13.3938 52.3775 2.06897 41.1615 2.06897 27.2232C2.06897 13.3938 13.2849 2.06897 27.2232 2.06897C30.49 2.06897 33.6479 2.72232 36.4791 3.81125C37.0236 4.02904 38.5481 5.00908 39.0926 4.13793C39.8548 3.049 38.4392 2.50454 37.8947 2.17786C34.628 0.76225 30.9256 0 27.2232 0C12.196 0 0 12.196 0 27.2232C0 42.2505 12.196 54.4465 27.2232 54.4465C27.8766 54.4465 28.4211 54.4465 28.9655 54.3376H29.0744C29.7278 54.3376 30.1633 54.1198 30.3811 53.7931C30.49 53.5753 30.5989 53.3575 30.5989 53.0308C30.49 52.1597 29.6189 52.2686 29.1833 52.2686Z" fill="#0C2D77"></path><path d="M26.7876 38.1126C26.352 38.1126 25.9165 37.8948 25.8076 37.4592C25.1542 35.8258 25.0453 33.3213 25.5898 29.4012C26.1343 26.1344 26.4609 23.5209 27.2232 20.4719C27.3321 20.0364 27.6588 18.8385 27.3321 18.6208C27.1143 18.5119 26.4609 19.2741 26.352 19.6008C26.1343 19.8186 24.1742 22.8676 24.1742 22.8676C23.0853 24.6099 21.9963 26.2433 21.0163 27.55C19.1651 30.2723 18.4029 30.9257 17.4228 30.9257C16.4428 30.9257 16.0072 30.0545 15.8983 29.8367C15.7894 29.5101 15.5716 29.0745 15.4628 28.3122C15.245 27.3322 14.9183 22.2142 14.8094 21.452C14.7005 20.9075 14.2649 20.2542 13.7205 20.5808C13.2849 20.7986 12.8493 21.3431 12.6315 21.7787C11.4337 24.2832 8.27582 31.6879 7.84025 32.8857C7.51357 33.5391 7.078 34.9547 6.20686 35.0636C5.4446 35.1725 5.4446 34.4102 5.5535 33.8658C5.77128 32.5591 8.49361 25.6988 10.3448 21.3431C10.7804 20.363 10.8893 19.383 11.107 18.2941C11.107 17.9674 11.6515 17.8585 11.7604 17.8585C12.0871 17.8585 12.3049 17.8585 12.5226 17.9674C12.8493 18.0763 12.8493 18.2941 12.9582 18.6208C13.0671 18.1852 13.5027 17.8585 14.0471 17.8585C14.4827 17.8585 14.9183 17.8585 15.3539 17.9674C16.3339 18.2941 16.5517 19.4919 16.7695 20.363C16.9873 21.452 17.3139 26.3522 17.4228 27.1144L17.6406 28.3122C17.6406 28.3122 21.5608 22.432 22.6497 20.5808C22.6497 20.5808 25.4809 16.1162 26.6787 14.265C27.2232 13.3939 28.2032 11.6516 29.5099 11.6516C29.8366 11.6516 30.2722 11.8694 30.49 12.0872C31.1433 12.8494 30.5989 14.9184 29.4011 20.2542C28.7477 23.1943 28.0943 26.3522 27.5499 29.6189C27.1143 32.9946 27.1143 35.3903 27.5499 36.5881C27.7677 37.1326 27.5499 37.7859 27.0054 38.0037C27.1143 38.1126 27.0054 38.1126 26.7876 38.1126Z" fill="#0C2D77"></path><path d="M37.7858 51.8331C37.1325 53.4664 36.3702 55.971 34.628 57.6044C34.4102 57.8222 34.0835 58.0399 33.6479 58.0399C33.4301 58.0399 33.3212 57.9311 33.2123 57.7133C32.6679 56.5154 33.2123 54.6643 33.539 53.4664L34.3013 51.1797C36.0436 46.9329 38.1125 43.5572 40.5082 39.8548C40.6171 39.8548 39.2015 48.2396 37.7858 51.8331ZM52.3775 24.1742C51.9419 24.1742 51.5064 24.2831 51.1797 24.392C48.5662 25.9165 45.6261 29.4011 42.9038 33.1035C43.2305 29.2922 43.3394 25.481 43.3394 21.9964C43.3394 21.5608 43.0127 21.1252 42.5771 21.1252C42.4682 21.1252 42.3593 21.1252 42.3593 21.1252C42.0327 21.1252 41.706 21.343 41.4882 21.6697C39.8548 24.8276 38.3303 27.2233 36.9147 28.8566C35.1724 30.9256 33.9746 31.2523 33.4301 31.2523C33.1034 31.2523 32.9946 31.1434 32.8857 31.0345C32.6679 30.8167 32.4501 30.0545 32.6679 28.2033C32.7768 26.7877 33.2123 25.1543 33.539 23.5209V23.3031C33.6479 22.8675 33.4301 22.432 32.9946 22.1053C32.8857 22.1053 32.7768 21.9964 32.559 21.9964C32.2323 21.9964 31.9056 22.1053 31.6878 22.432L30.0544 24.5009C29.7278 24.9365 29.8367 25.5899 30.2722 25.9165C30.3811 26.0254 30.49 26.0254 30.5989 26.1343H30.8167V26.3521C30.7078 26.8966 30.5989 27.441 30.5989 27.8766C30.3811 29.9456 30.5989 31.3612 31.2523 32.2323C31.7967 32.8857 32.4501 33.2124 33.3212 33.2124C34.8457 33.2124 36.588 32.1234 38.3303 30.0545C39.2015 29.0744 40.0726 27.9855 40.8348 26.6788L41.2704 25.9165V26.7877C41.1615 30.2723 40.9437 33.3213 40.6171 36.2614C37.4592 41.3793 34.9546 45.8439 34.9546 45.8439C34.9546 45.8439 34.9546 45.9528 34.8457 45.9528C33.9746 47.3684 33.1034 48.8929 32.559 50.5263L31.7967 52.7042C31.0345 55.3176 30.9256 57.1688 31.3612 58.3666C31.6878 59.2378 32.4501 59.8911 33.4301 60H33.7568C34.5191 60 35.2813 59.6733 35.9347 59.02C37.7858 57.2777 38.7659 54.7732 39.5281 52.5953C40.5082 49.7641 41.2704 47.0418 41.706 44.4283C41.8149 43.6661 41.9238 42.7949 42.0327 42.0327L42.1416 41.4882C42.1416 41.2704 42.2505 41.1615 42.2505 40.9438C42.3593 40.6171 42.5771 38.0036 42.686 37.2414C43.1216 36.588 43.5572 36.0436 43.8838 35.3902C44.5372 34.5191 45.8439 32.6679 46.4973 31.6879C47.1506 30.7078 47.804 29.9456 48.3485 29.1833C49.9819 27.1144 51.0708 26.3521 51.7241 26.1343H51.833C51.833 26.1343 51.833 26.1343 51.9419 26.1343C51.9419 26.1343 51.9419 26.1343 52.0508 26.1343C52.1597 26.1343 52.2686 26.1343 52.2686 26.2432C52.2686 26.3521 52.3775 26.3521 52.3775 26.461C52.3775 26.5699 52.4864 27.0055 52.4864 27.2233C52.4864 34.628 49.2196 41.706 43.4483 46.4973C43.3394 46.6062 43.3394 46.6062 43.2305 46.7151C42.686 47.1507 41.706 47.804 42.3593 48.6752C42.5771 48.8929 42.7949 49.1107 43.1216 49.1107C43.4483 49.1107 43.6661 49.0018 43.8838 48.8929C50.7441 43.6661 54.5554 35.8258 54.5554 27.3321C54.5554 24.1742 52.5953 24.1742 52.3775 24.1742Z" fill="#0C2D77"></path><path d="M55.9709 7.07795C55.4264 6.4246 54.5553 6.75128 54.1197 6.86017L50.744 8.82024L44.5371 5.77124C44.4283 5.77124 44.3194 5.77124 44.2105 5.77124L42.9038 6.53349C42.7949 6.53349 42.7949 6.64238 42.9038 6.75128L48.5662 10.2358L44.5371 12.6315L42.7949 11.8692C42.686 11.8692 42.5771 11.8692 42.4682 11.8692L41.8148 12.1959C41.7059 12.1959 41.7059 12.3048 41.8148 12.4137L43.4482 14.0471C43.5571 14.156 43.5571 14.2649 43.666 14.3738L44.2105 16.5516C44.2105 16.6605 44.3194 16.6605 44.4283 16.6605L45.0816 16.3339C45.1905 16.3339 45.2994 16.1161 45.2994 16.0072L45.4083 15.5716L45.5172 14.5916L45.6261 14.156L49.8729 12.087L50.3085 18.2939C50.3085 18.4028 50.4174 18.4028 50.5263 18.4028L51.9419 17.6406C52.0508 17.6406 52.1597 17.4228 52.1597 17.3139L52.4863 10.6714L55.862 8.82024C55.6442 8.60246 56.2976 8.05799 55.9709 7.07795Z" fill="#0C2D77"></path><path d="M41.8149 14.5916L40.9438 15.0271L40.3993 15.3538L39.8549 15.6805L38.8748 16.3338C38.5481 16.5516 38.2215 16.7694 37.8948 16.9872C36.5881 17.8583 35.2813 18.8384 34.0835 19.8184C33.8657 20.0362 33.7568 20.1451 33.5391 20.3629C34.0835 20.4718 34.628 20.7985 34.8458 21.5607C34.9547 21.4518 35.1725 21.234 35.2813 21.1251C36.2614 20.0362 37.3503 18.9473 38.5481 17.9672C38.8748 17.7494 39.0926 17.4228 39.4193 17.205L40.2904 16.4427L40.726 16.1161L41.1616 15.7894L41.9238 15.2449C41.9238 15.136 41.8149 15.0271 41.8149 14.9182V14.5916Z" fill="url(#paint0_linear_28_368)"></path><path d="M75.0273 31.7967C75.354 31.5789 75.5718 31.5789 75.8984 31.7967L77.5318 33.4301C77.7496 33.6479 77.7496 33.9745 77.5318 34.1923C75.7896 36.2613 73.285 37.4591 70.236 37.4591C64.9003 37.4591 60.7623 33.2123 60.7623 27.8765C60.7623 22.4319 64.7914 18.1851 70.236 18.1851C73.1761 18.1851 75.6807 19.4918 77.423 21.4518C77.6407 21.6696 77.6407 21.9963 77.423 22.2141L75.7896 23.8475C75.5718 24.0653 75.2451 24.0653 74.9184 23.8475C73.8295 22.8675 72.6317 21.7785 70.3449 21.7785C67.0781 21.7785 64.6825 24.392 64.6825 27.7676C64.6825 31.0344 66.9692 33.7567 70.3449 33.7567C72.7406 33.7567 74.0473 32.7767 75.0273 31.7967Z" fill="#0C2D77"></path><path d="M92.1234 19.6007L91.2523 21.6696C91.1434 22.1052 90.8167 22.1052 90.49 21.9963C90.1634 21.8874 89.7278 21.7785 88.9655 21.7785C86.5699 21.7785 84.9365 23.5208 84.9365 25.8076V36.588C84.9365 36.9146 84.7187 37.1324 84.392 37.1324H81.5608C81.2341 37.1324 81.0164 36.9146 81.0164 36.588V19.1651C81.0164 18.8384 81.2341 18.6206 81.5608 18.6206H84.1742C84.5009 18.6206 84.7187 18.8384 84.7187 19.1651L84.8276 21.0163C85.8076 19.3829 87.3321 18.1851 89.51 18.1851C90.49 18.1851 91.3612 18.5117 91.9057 18.9473C92.2323 19.0562 92.3412 19.274 92.1234 19.6007Z" fill="#0C2D77"></path><path d="M111.071 19.1651V36.6968C111.071 37.0235 110.853 37.2413 110.526 37.2413H107.804C107.477 37.2413 107.26 37.0235 107.26 36.6968L107.151 34.519C105.844 36.3702 103.993 37.7858 101.379 37.7858C97.1325 37.7858 94.4102 35.0634 94.4102 30.0544V19.1651C94.4102 18.8384 94.6279 18.6206 94.9546 18.6206H97.7858C98.1125 18.6206 98.3303 18.8384 98.3303 19.1651V29.401C98.3303 32.6678 100.073 34.0834 102.25 34.0834C105.408 34.0834 107.042 31.2522 107.042 30.0544V19.1651C107.042 18.8384 107.26 18.6206 107.586 18.6206H110.417C110.744 18.6206 111.071 18.8384 111.071 19.1651Z" fill="#0C2D77"></path><path d="M115.1 12.1962C115.1 10.8895 116.08 9.90942 117.387 9.90942C118.693 9.90942 119.673 10.8895 119.673 12.1962C119.673 13.5029 118.693 14.4829 117.387 14.4829C116.08 14.5918 115.1 13.5029 115.1 12.1962ZM115.971 18.6209H118.802C119.129 18.6209 119.347 18.8386 119.347 19.1653V36.6971C119.347 37.0238 119.129 37.2415 118.802 37.2415H115.971C115.644 37.2415 115.427 37.0238 115.427 36.6971V19.1653C115.318 18.8386 115.535 18.6209 115.971 18.6209Z" fill="#0C2D77"></path><path d="M136.878 32.1236C136.878 35.4993 133.394 37.5682 130.127 37.5682C126.969 37.5682 124.465 36.0437 123.049 34.4104C122.831 34.1926 122.831 33.8659 123.049 33.6481L124.247 32.1236C124.465 31.7969 124.682 31.9058 125.009 32.1236C126.316 33.1036 128.058 34.1926 129.909 34.1926C131.543 34.1926 132.958 33.5392 132.958 32.0147C132.958 28.3123 123.376 29.728 123.376 23.5211C123.376 20.2543 126.316 18.0764 129.583 18.0764C131.76 18.0764 134.265 19.0565 135.789 20.9076C136.007 21.1254 135.898 21.4521 135.789 21.6699L134.701 23.0855C134.483 23.4122 134.156 23.3033 133.829 23.0855C132.414 21.9966 131.325 21.3432 129.8 21.3432C128.494 21.3432 127.187 21.9966 127.187 23.4122C127.187 27.1145 136.878 25.3722 136.878 32.1236Z" fill="#0C2D77"></path><path d="M157.459 27.2232C157.459 28.6388 157.241 29.2921 156.261 29.2921H143.412C143.956 32.2322 146.134 34.0834 149.51 34.0834C151.361 34.0834 152.777 33.539 154.083 32.5589C154.41 32.3411 154.628 32.2322 154.846 32.5589L156.044 33.7567C156.37 34.0834 156.37 34.3012 156.044 34.6279C154.301 36.3702 151.906 37.4591 149.074 37.4591C143.412 37.4591 139.492 33.1034 139.492 27.7676C139.492 22.4319 143.412 18.1851 148.748 18.1851C153.975 18.1851 157.459 22.4319 157.459 27.2232ZM143.303 26.5698H153.975C153.648 23.6297 151.579 21.6696 148.748 21.6696C145.808 21.6696 143.63 23.6297 143.303 26.5698Z" fill="#0C2D77"></path><path d="M173.684 32.1236C173.684 35.4993 170.2 37.5682 166.933 37.5682C163.775 37.5682 161.27 36.0437 159.855 34.4104C159.637 34.1926 159.637 33.8659 159.855 33.6481L161.053 32.1236C161.27 31.7969 161.488 31.9058 161.815 32.1236C163.122 33.1036 164.864 34.1926 166.715 34.1926C168.349 34.1926 169.764 33.5392 169.764 32.0147C169.764 28.3123 160.182 29.728 160.182 23.5211C160.182 20.2543 163.122 18.0764 166.388 18.0764C168.566 18.0764 171.071 19.0565 172.595 20.9076C172.813 21.1254 172.704 21.4521 172.595 21.6699L171.506 23.0855C171.289 23.4122 170.962 23.3033 170.635 23.0855C169.22 21.9966 168.131 21.3432 166.606 21.3432C165.3 21.3432 163.993 21.9966 163.993 23.4122C164.102 27.1145 173.684 25.3722 173.684 32.1236Z" fill="#0C2D77"></path></g><defs><linearGradient id="paint0_linear_28_368" x1="33.6196" y1="18.0646" x2="42.1342" y2="18.0646" gradientUnits="userSpaceOnUse"><stop stop-color="white" stop-opacity="0"></stop><stop offset="0.1302" stop-color="#CED5E4" stop-opacity="0.1302"></stop><stop offset="0.3035" stop-color="#94A2C3" stop-opacity="0.3035"></stop><stop offset="0.4711" stop-color="#6378A8" stop-opacity="0.4711"></stop><stop offset="0.6286" stop-color="#3D5893" stop-opacity="0.6286"></stop><stop offset="0.7738" stop-color="#224083" stop-opacity="0.7738"></stop><stop offset="0.9021" stop-color="#12327A" stop-opacity="0.9021"></stop><stop offset="1" stop-color="#0C2D77"></stop></linearGradient><clipPath id="clip0_28_368"><rect width="173.684" height="60" fill="white"></rect></clipPath></defs></svg>