<svg xmlns="http://www.w3.org/2000/svg" width="100" height="60" viewBox="0 0 100 60" fill="none"><g clip-path="url(#clip0_28_425)"><path d="M56.0734 7.16839C55.8329 6.95029 55.5291 6.81471 55.2061 6.78144C54.8832 6.74817 54.5581 6.81894 54.2782 6.98344L50.8511 8.86561L44.6171 5.79756C44.5622 5.7736 44.503 5.76123 44.4431 5.76123C44.3831 5.76123 44.3239 5.7736 44.269 5.79756L42.9417 6.51562C42.8438 6.51562 42.8438 6.65705 42.9417 6.72233L48.5664 10.2473L44.5301 12.6735L42.7785 11.8793C42.7217 11.855 42.6607 11.8425 42.599 11.8425C42.5373 11.8425 42.4762 11.855 42.4194 11.8793L41.8211 12.2165C41.8008 12.2293 41.7842 12.2469 41.7726 12.2679C41.7611 12.2888 41.755 12.3123 41.755 12.3362C41.755 12.3601 41.7611 12.3836 41.7726 12.4046C41.7842 12.4255 41.8008 12.4431 41.8211 12.4559L43.4095 14.0443C43.4941 14.1425 43.5571 14.2574 43.5944 14.3816L44.0949 16.5575C44.0983 16.581 44.1076 16.6033 44.1219 16.6223C44.1363 16.6413 44.1551 16.6564 44.1768 16.6662C44.1985 16.6759 44.2223 16.6801 44.246 16.6782C44.2698 16.6763 44.2926 16.6685 44.3125 16.6554L44.9218 16.3182C44.9747 16.2862 45.0204 16.2436 45.056 16.193C45.0916 16.1424 45.1163 16.085 45.1285 16.0244V15.611L45.259 14.6318L45.3243 14.1531L49.5782 12.1295L50.0134 18.2982C50.0141 18.3208 50.0207 18.3428 50.0325 18.362C50.0442 18.3813 50.0608 18.3972 50.0805 18.4081C50.1002 18.4191 50.1225 18.4248 50.145 18.4246C50.1676 18.4244 50.1897 18.4183 50.2092 18.407L51.5801 17.6781C51.6304 17.6455 51.6729 17.6023 51.7049 17.5516C51.7368 17.5009 51.7573 17.4438 51.765 17.3844L52.037 10.7695L55.3662 8.86561C55.6591 8.70203 55.8883 8.44442 56.0166 8.13445C56.1449 7.82447 56.1649 7.48027 56.0734 7.15751" fill="#00ACBE"></path><path d="M41.8863 14.6863L41.0704 15.1323L40.5046 15.3935L40.0042 15.6981L38.9924 16.2965L38.0132 16.9384C36.6883 17.806 35.4234 18.762 34.2271 19.7997L33.6831 20.2893C34.0129 20.3243 34.3235 20.4617 34.5713 20.6821C34.8191 20.9026 34.9917 21.1952 35.0648 21.5187L35.4674 21.04C36.4846 19.9141 37.5749 18.8565 38.7312 17.874L39.6125 17.1342L40.5046 16.4814L40.9616 16.1224L41.4294 15.7851L42.2127 15.2194C42.2127 15.1323 42.1583 15.0344 42.1366 14.9365L41.8863 14.6863Z" fill="url(#paint0_linear_28_425)"></path><path d="M29.3422 52.2645H29.2878C28.6567 52.2645 28.0366 52.3407 27.4382 52.3407C23.7537 52.3231 20.1183 51.4946 16.79 49.9139C13.4618 48.3332 10.5223 46.0391 8.18048 43.1945C5.83862 40.3499 4.15176 37.0247 3.23969 33.4548C2.32761 29.8849 2.21269 26.158 2.90309 22.5387C3.59348 18.9194 5.07226 15.4965 7.23441 12.5131C9.39656 9.5296 12.189 7.05877 15.4136 5.27601C18.6381 3.49325 22.2156 2.44229 25.8921 2.19776C29.5685 1.95323 33.2537 2.52112 36.6859 3.86112C37.2408 4.07871 38.7639 5.04699 39.3188 4.22014C40.0477 3.13218 38.6986 2.54468 38.1329 2.29445C34.4187 0.663805 30.3868 -0.115431 26.3325 0.0138101C22.2781 0.143051 18.304 1.1775 14.7012 3.04139C11.0984 4.90528 7.95812 7.55142 5.51032 10.786C3.06253 14.0206 1.36922 17.7618 0.554394 21.7355C-0.260429 25.7092 -0.176126 29.8148 0.801127 33.7517C1.77838 37.6887 3.62384 41.3571 6.20235 44.4885C8.78086 47.6199 12.0271 50.1349 15.7034 51.8494C19.3797 53.5638 23.3929 54.4342 27.4491 54.3969C28.0584 54.3969 28.6568 54.3969 29.2443 54.3099H29.3095C29.5507 54.3198 29.7913 54.2795 30.0161 54.1915C30.2408 54.1035 30.4448 53.9696 30.6151 53.7986C30.6929 53.7001 30.7479 53.5856 30.7761 53.4633C30.8043 53.341 30.8051 53.214 30.7783 53.0914C30.6151 52.1666 29.7991 52.2319 29.353 52.2645" fill="#00ACBE"></path><path d="M26.9487 38.0992C26.7406 38.0997 26.5367 38.0406 26.3613 37.9287C26.1858 37.8169 26.0461 37.6571 25.9587 37.4682C25.2624 35.8689 25.208 33.3122 25.7737 29.3955C26.2959 26.1316 26.6985 23.4879 27.4492 20.4525C27.558 19.9955 27.917 18.777 27.5906 18.6138C27.2642 18.4506 26.7529 19.3101 26.5679 19.5604C26.383 19.8106 24.392 22.8242 24.392 22.8242C23.304 24.5976 22.2161 26.186 21.2913 27.4698C19.507 30.168 18.7455 30.8969 17.7663 30.8969C17.4367 30.8693 17.1205 30.7538 16.8507 30.5625C16.5809 30.3711 16.3673 30.1109 16.2323 29.809C16.0265 29.326 15.8874 28.8172 15.8188 28.2967C15.6448 27.2849 15.2313 22.2476 15.1117 21.4208C15.0246 20.8768 14.6112 20.2131 14.0237 20.5178C13.5444 20.8074 13.1649 21.2362 12.9357 21.7472C11.7499 24.2495 8.5839 31.6911 8.1596 32.8661C7.87673 33.5515 7.44154 34.9224 6.57117 35.0421C5.7008 35.1617 5.77696 34.411 5.89664 33.8779C6.15775 32.6159 8.85589 25.7291 10.7054 21.3446C11.0663 20.341 11.318 19.3014 11.4561 18.2439C11.4561 17.9502 12.0001 17.8414 12.1307 17.8196C12.4001 17.7869 12.673 17.8362 12.914 17.9611C13.2621 18.1134 13.2839 18.3092 13.3818 18.5703C13.4663 18.3446 13.6137 18.1478 13.8065 18.0032C13.9993 17.8587 14.2294 17.7723 14.4698 17.7543C14.9101 17.7091 15.355 17.7573 15.7753 17.8958C16.798 18.2113 16.983 19.4189 17.157 20.3328C17.3529 21.4208 17.7228 26.2948 17.8533 27.1108L18.0274 28.449C18.0274 28.449 21.9223 22.5305 23.032 20.7245C23.032 20.7245 25.8172 16.2856 27.0684 14.4361C27.6559 13.5766 28.6133 11.825 29.8427 11.825C30.0317 11.8266 30.2182 11.8693 30.3891 11.95C30.5601 12.0308 30.7114 12.1478 30.8327 12.2928C31.4637 13.0979 30.9633 15.1432 29.7448 20.409C29.092 23.2921 28.4392 26.4907 27.9061 29.7219C27.373 32.9532 27.4492 35.5099 27.9061 36.6414C28.0084 36.903 28.0055 37.1941 27.898 37.4537C27.7905 37.7132 27.5868 37.9212 27.3295 38.0339C27.2018 38.1205 27.0477 38.159 26.8943 38.1427" fill="#00ACBE"></path><path d="M37.9262 51.8184C37.2952 53.483 36.4793 55.9744 34.782 57.6172C34.5082 57.8645 34.1599 58.0137 33.792 58.0416C33.5853 58.0416 33.4656 57.9436 33.3568 57.6934C32.8455 56.5075 33.3568 54.6471 33.7158 53.4721L34.4883 51.1439C36.2323 47.2054 38.3107 43.4236 40.7005 39.84C40.7005 39.84 39.2862 48.2499 37.9371 51.8075M52.4723 24.2168C52.0814 24.2285 51.6952 24.3057 51.3299 24.4453C48.7079 26.0228 45.7378 29.4826 43.0723 33.149C43.4028 29.4633 43.5336 25.7625 43.464 22.0627C43.4593 21.8444 43.3784 21.6347 43.2353 21.4697C43.0923 21.3048 42.896 21.1951 42.6806 21.1597C42.5903 21.1483 42.4989 21.1483 42.4086 21.1597C42.2313 21.1595 42.0579 21.2122 41.9106 21.311C41.7633 21.4098 41.6488 21.5503 41.5818 21.7145C40.3415 24.2976 38.7965 26.7228 36.9797 28.9386C35.2063 31.0166 34.0313 31.3321 33.4874 31.3321C33.3922 31.3393 33.2966 31.3266 33.2067 31.2947C33.1168 31.2629 33.0345 31.2126 32.9651 31.1471C32.7802 30.886 32.4973 30.1789 32.6931 28.264C32.8993 26.6878 33.2009 25.1255 33.5962 23.5858V23.3573C33.6383 23.1323 33.6085 22.8997 33.5108 22.6927C33.4131 22.4856 33.2527 22.3146 33.0522 22.2041C32.9308 22.1561 32.8019 22.1303 32.6714 22.1279C32.5059 22.1287 32.3426 22.165 32.1924 22.2345C32.0422 22.3039 31.9087 22.4049 31.801 22.5305L30.1908 24.5976C30.0431 24.8171 29.9804 25.0828 30.0145 25.3451C30.0485 25.6074 30.177 25.8484 30.3758 26.0228C30.4719 26.102 30.5829 26.1612 30.7022 26.1969H30.9198V26.4254C30.8218 26.9585 30.7348 27.5134 30.6913 27.9703C30.4519 30.0048 30.6913 31.43 31.3767 32.3221C31.6226 32.6383 31.9404 32.8911 32.3038 33.0596C32.6671 33.228 33.0655 33.3071 33.4656 33.2904C35.0105 33.2904 36.7295 32.2025 38.4811 30.1462C39.4036 29.1059 40.2302 27.9844 40.9508 26.7953L41.4295 26.0011V26.9259C41.3207 30.4182 41.1248 33.4536 40.8202 36.3802C37.5346 41.3631 35.0649 45.8564 35.0649 45.8564L34.9996 45.9978C34.073 47.4339 33.2965 48.9615 32.6823 50.5564L31.9207 52.7867C31.1591 55.3978 31.0068 57.2365 31.4637 58.4115C31.6143 58.8499 31.8906 59.2344 32.2582 59.5169C32.6258 59.7993 33.0684 59.9673 33.5309 59.9999H33.8355C34.653 59.9842 35.4328 59.6528 36.0114 59.0751C37.6878 57.254 38.9171 55.0675 39.6017 52.6888C40.5684 50.0316 41.2966 47.2936 41.7776 44.5073C41.8973 43.7131 42.0061 42.9298 42.104 42.1356L42.1802 41.5589C42.1802 41.3631 42.1802 41.1781 42.2672 40.9823C42.3542 40.7865 42.648 38.0122 42.735 37.2724C43.1485 36.6522 43.5619 36.043 43.9753 35.4555C44.5737 34.5851 45.8792 32.7682 46.5973 31.7673C47.3153 30.7664 47.9355 29.983 48.4903 29.2758C50.1549 27.187 51.1994 26.4254 51.8521 26.2404H51.9718H52.1133C52.2057 26.2412 52.296 26.2676 52.3744 26.3166C52.4317 26.3823 52.4727 26.4606 52.494 26.5451C52.5378 26.7856 52.5597 27.0295 52.5593 27.274C52.5557 30.9535 51.7407 34.5869 50.1724 37.9154C48.604 41.244 46.3209 44.1856 43.4857 46.5309C43.4048 46.6039 43.3174 46.6695 43.2246 46.7268C42.6915 47.1184 41.6906 47.8147 42.3107 48.7068C42.4033 48.8357 42.5262 48.9397 42.6685 49.0099C42.8108 49.0801 42.9681 49.1143 43.1267 49.1094C43.4089 49.1079 43.6833 49.0164 43.91 48.8483C47.2571 46.3301 49.9705 43.0658 51.8347 39.3149C53.6988 35.564 54.6622 31.4299 54.6482 27.2414C54.6482 24.1624 52.7443 24.2168 52.5593 24.2168" fill="#00ACBE"></path><path d="M73.3502 10.5955V13.0761C73.3502 13.533 73.0782 13.6853 72.6648 13.4569C72.0058 13.0657 71.2551 12.8556 70.4888 12.8476C68.5414 12.8476 68.2041 13.8376 68.2041 15.3608V18.6573H72.1643C72.2398 18.6525 72.3155 18.6639 72.3863 18.6906C72.4572 18.7174 72.5215 18.7589 72.575 18.8124C72.6285 18.8659 72.67 18.9302 72.6967 19.001C72.7235 19.0718 72.7348 19.1475 72.7301 19.2231V21.399C72.7348 21.4745 72.7235 21.5502 72.6967 21.621C72.67 21.6918 72.6285 21.7561 72.575 21.8096C72.5215 21.8632 72.4572 21.9047 72.3863 21.9314C72.3155 21.9581 72.2398 21.9695 72.1643 21.9647H68.2476V36.761C68.2524 36.838 68.2408 36.9151 68.2135 36.9872C68.1862 37.0593 68.1439 37.1248 68.0894 37.1793C68.0348 37.2339 67.9693 37.2762 67.8972 37.3035C67.8251 37.3307 67.748 37.3424 67.671 37.3376H64.8206C64.7436 37.3424 64.6665 37.3307 64.5944 37.3035C64.5223 37.2762 64.4568 37.2339 64.4022 37.1793C64.3477 37.1248 64.3054 37.0593 64.2781 36.9872C64.2508 36.9151 64.2392 36.838 64.2439 36.761V21.9865H62.068C61.9925 21.9913 61.9168 21.9799 61.846 21.9532C61.7752 21.9264 61.7109 21.8849 61.6574 21.8314C61.6038 21.7779 61.5623 21.7136 61.5356 21.6428C61.5089 21.572 61.4975 21.4963 61.5023 21.4207V19.2448C61.4975 19.1693 61.5089 19.0936 61.5356 19.0228C61.5623 18.952 61.6038 18.8877 61.6574 18.8341C61.7109 18.7806 61.7752 18.7391 61.846 18.7124C61.9168 18.6856 61.9925 18.6743 62.068 18.6791H64.2439V14.98C64.2439 11.2048 66.3002 9.30084 70.1516 9.30084C71.1266 9.26991 72.0943 9.47914 72.9694 9.9101C73.0907 9.9772 73.1907 10.077 73.2581 10.1982C73.3254 10.3194 73.3573 10.4571 73.3502 10.5955ZM76.1245 12.3471C76.1288 11.8928 76.2672 11.4499 76.5223 11.074C76.7773 10.698 77.1378 10.4058 77.5583 10.2339C77.9789 10.0621 78.4408 10.0182 78.8862 10.1079C79.3316 10.1976 79.7405 10.4168 80.0618 10.7381C80.383 11.0593 80.6023 11.4683 80.692 11.9137C80.7816 12.359 80.7378 12.821 80.5659 13.2415C80.3941 13.6621 80.1018 14.0225 79.7259 14.2776C79.3499 14.5327 78.907 14.6711 78.4527 14.6754C78.1453 14.6813 77.8399 14.6251 77.5548 14.5102C77.2697 14.3953 77.0106 14.224 76.7932 14.0066C76.5759 13.7892 76.4046 13.5302 76.2897 13.2451C76.1748 12.9599 76.1186 12.6545 76.1245 12.3471ZM80.4763 19.2448V36.761C80.4811 36.838 80.4695 36.9151 80.4422 36.9872C80.4149 37.0593 80.3726 37.1248 80.318 37.1793C80.2635 37.2339 80.198 37.2762 80.1259 37.3035C80.0538 37.3307 79.9767 37.3424 79.8997 37.3376H77.0057C76.9288 37.3424 76.8517 37.3307 76.7796 37.3035C76.7074 37.2762 76.6419 37.2339 76.5874 37.1793C76.5329 37.1248 76.4906 37.0593 76.4633 36.9872C76.436 36.9151 76.4243 36.838 76.4291 36.761V19.2448C76.4241 19.1683 76.4358 19.0916 76.4631 19.02C76.4905 18.9484 76.533 18.8835 76.5877 18.8298C76.6425 18.7761 76.7082 18.7348 76.7803 18.7088C76.8524 18.6828 76.9293 18.6727 77.0057 18.6791H79.8562C79.9326 18.6727 80.0095 18.6828 80.0816 18.7088C80.1538 18.7348 80.2194 18.7761 80.2742 18.8298C80.3289 18.8835 80.3714 18.9484 80.3988 19.02C80.4262 19.0916 80.4378 19.1683 80.4328 19.2448H80.4763Z" fill="#00ACBE"></path><path d="M89.6479 18.6575C89.7234 18.6527 89.7991 18.664 89.8699 18.6908C89.9407 18.7175 90.005 18.759 90.0585 18.8125C90.112 18.8661 90.1535 18.9304 90.1803 19.0012C90.207 19.072 90.2184 19.1477 90.2136 19.2232V37.0331C90.2136 42.288 87.4719 44.725 83.3268 44.8773C83.2272 44.8868 83.1274 44.8617 83.0442 44.8062C82.961 44.7507 82.8994 44.6683 82.8699 44.5727L81.9886 41.6352C81.9668 41.5876 81.9582 41.535 81.9636 41.4829C81.969 41.4308 81.9882 41.3811 82.0193 41.3389C82.0504 41.2967 82.0922 41.2636 82.1403 41.243C82.1885 41.2224 82.2413 41.2151 82.2932 41.2218C84.6215 41.0259 86.2208 39.6986 86.2208 36.4565V19.245C86.216 19.1694 86.2273 19.0937 86.2541 19.0229C86.2808 18.9521 86.3223 18.8878 86.3758 18.8343C86.4294 18.7808 86.4937 18.7393 86.5645 18.7125C86.6353 18.6858 86.711 18.6744 86.7865 18.6792L89.6479 18.6575ZM85.8726 12.3473C85.8726 11.8868 86.0092 11.4367 86.265 11.0538C86.5208 10.6709 86.8845 10.3725 87.3099 10.1963C87.7353 10.0201 88.2034 9.97394 88.6551 10.0638C89.1067 10.1536 89.5216 10.3754 89.8472 10.701C90.1728 11.0266 90.3945 11.4414 90.4844 11.8931C90.5742 12.3447 90.5281 12.8128 90.3519 13.2383C90.1757 13.6637 89.8772 14.0273 89.4944 14.2831C89.1115 14.539 88.6613 14.6755 88.2009 14.6755C87.8947 14.677 87.5913 14.6177 87.3082 14.5012C87.0251 14.3847 86.7678 14.2133 86.5513 13.9968C86.3349 13.7803 86.1634 13.5231 86.0469 13.24C85.9304 12.9568 85.8712 12.6534 85.8726 12.3473Z" fill="#00ACBE"></path><path d="M94.5219 12.3472C94.5262 11.8924 94.6648 11.4491 94.9204 11.0729C95.1759 10.6967 95.537 10.4045 95.9582 10.2329C96.3794 10.0613 96.8419 10.0181 97.2876 10.1087C97.7332 10.1993 98.1422 10.4195 98.463 10.7419C98.7838 11.0642 99.0022 11.4742 99.0907 11.9203C99.1792 12.3664 99.1338 12.8287 98.9602 13.2491C98.7867 13.6694 98.4928 14.0291 98.1154 14.2829C97.738 14.5367 97.294 14.6733 96.8393 14.6754C96.5328 14.6799 96.2286 14.6226 95.9447 14.507C95.6608 14.3914 95.4031 14.2199 95.1869 14.0027C94.9707 13.7855 94.8004 13.527 94.6861 13.2425C94.5719 12.9581 94.516 12.6536 94.5219 12.3472ZM95.3923 18.6791H98.2536C98.3291 18.6743 98.4048 18.6857 98.4756 18.7124C98.5464 18.7392 98.6108 18.7807 98.6643 18.8342C98.7178 18.8877 98.7593 18.952 98.786 19.0228C98.8128 19.0936 98.8241 19.1693 98.8193 19.2449V36.7611C98.824 36.8371 98.8126 36.9132 98.786 36.9845C98.7593 37.0558 98.718 37.1208 98.6647 37.1751C98.6114 37.2295 98.5472 37.272 98.4764 37.3C98.4056 37.328 98.3297 37.3409 98.2536 37.3377H95.3923C95.3162 37.3409 95.2403 37.328 95.1695 37.3C95.0987 37.272 95.0345 37.2295 94.9812 37.1751C94.9279 37.1208 94.8866 37.0558 94.8599 36.9845C94.8333 36.9132 94.8219 36.8371 94.8265 36.7611V19.2449C94.8184 19.1676 94.8273 19.0895 94.8526 19.016C94.8778 18.9425 94.9188 18.8755 94.9727 18.8195C95.0266 18.7635 95.0921 18.72 95.1646 18.692C95.237 18.664 95.3147 18.6522 95.3923 18.6574V18.6791Z" fill="#00ACBE"></path></g><defs><linearGradient id="paint0_linear_28_425" x1="33.7266" y1="18.1025" x2="42.2345" y2="18.1025" gradientUnits="userSpaceOnUse"><stop stop-color="white" stop-opacity="0"></stop><stop offset="0.19" stop-color="#B5E7EC" stop-opacity="0.29"></stop><stop offset="0.38" stop-color="#75D2DC" stop-opacity="0.54"></stop><stop offset="0.57" stop-color="#42C2CF" stop-opacity="0.74"></stop><stop offset="0.74" stop-color="#1EB6C6" stop-opacity="0.88"></stop><stop offset="0.89" stop-color="#08AFC0" stop-opacity="0.97"></stop><stop offset="1" stop-color="#00ACBE"></stop></linearGradient><clipPath id="clip0_28_425"><rect width="99.1348" height="60" fill="white"></rect></clipPath></defs></svg>