<svg xmlns="http://www.w3.org/2000/svg" width="174" height="60" viewBox="0 0 174 60" fill="none"><g clip-path="url(#clip0_28_400)"><path d="M29.3422 52.2645H29.2878C28.6567 52.2645 28.0366 52.3407 27.4382 52.3407C23.7537 52.3231 20.1183 51.4946 16.79 49.9139C13.4618 48.3332 10.5223 46.0391 8.18048 43.1945C5.83862 40.3499 4.15176 37.0247 3.23969 33.4548C2.32761 29.8849 2.21269 26.158 2.90309 22.5387C3.59348 18.9194 5.07226 15.4965 7.23441 12.5131C9.39656 9.5296 12.189 7.05877 15.4136 5.27601C18.6381 3.49325 22.2156 2.44229 25.8921 2.19776C29.5685 1.95323 33.2537 2.52112 36.6859 3.86112C37.2408 4.07871 38.7639 5.04699 39.3188 4.22014C40.0477 3.13218 38.6986 2.54468 38.1329 2.29445C34.4187 0.663805 30.3868 -0.115431 26.3325 0.0138101C22.2781 0.143051 18.304 1.1775 14.7012 3.04139C11.0984 4.90528 7.95812 7.55142 5.51032 10.786C3.06253 14.0206 1.36922 17.7618 0.554394 21.7355C-0.260429 25.7092 -0.176126 29.8148 0.801127 33.7517C1.77838 37.6887 3.62384 41.3571 6.20235 44.4885C8.78086 47.6199 12.0271 50.1349 15.7034 51.8494C19.3797 53.5638 23.3929 54.4342 27.4491 54.3969C28.0584 54.3969 28.6568 54.3969 29.2443 54.3099H29.3095C29.5507 54.3198 29.7913 54.2795 30.0161 54.1915C30.2408 54.1035 30.4448 53.9696 30.6151 53.7986C30.6929 53.7001 30.7479 53.5856 30.7761 53.4633C30.8043 53.341 30.8051 53.214 30.7783 53.0914C30.6151 52.1666 29.7991 52.2319 29.353 52.2645" fill="#00ACBE"></path><path d="M26.9487 38.0992C26.7406 38.0997 26.5367 38.0406 26.3613 37.9287C26.1858 37.8169 26.0461 37.6571 25.9587 37.4682C25.2624 35.8689 25.208 33.3122 25.7737 29.3955C26.2959 26.1316 26.6985 23.4879 27.4492 20.4525C27.558 19.9955 27.917 18.777 27.5906 18.6138C27.2642 18.4506 26.7529 19.3101 26.5679 19.5604C26.383 19.8106 24.392 22.8242 24.392 22.8242C23.304 24.5976 22.2161 26.186 21.2913 27.4698C19.507 30.168 18.7455 30.8969 17.7663 30.8969C17.4367 30.8693 17.1205 30.7538 16.8507 30.5625C16.5809 30.3711 16.3673 30.1109 16.2323 29.809C16.0265 29.326 15.8874 28.8172 15.8188 28.2967C15.6448 27.2849 15.2313 22.2476 15.1117 21.4208C15.0246 20.8768 14.6112 20.2131 14.0237 20.5178C13.5444 20.8074 13.1649 21.2362 12.9357 21.7472C11.7499 24.2495 8.5839 31.6911 8.1596 32.8661C7.87673 33.5515 7.44154 34.9224 6.57117 35.0421C5.7008 35.1617 5.77696 34.411 5.89664 33.8779C6.15775 32.6159 8.85589 25.7291 10.7054 21.3446C11.0663 20.341 11.318 19.3014 11.4561 18.2439C11.4561 17.9502 12.0001 17.8414 12.1307 17.8196C12.4001 17.7869 12.673 17.8362 12.914 17.9611C13.2621 18.1134 13.2839 18.3092 13.3818 18.5703C13.4663 18.3446 13.6137 18.1478 13.8065 18.0032C13.9993 17.8587 14.2294 17.7723 14.4698 17.7543C14.9101 17.7091 15.355 17.7573 15.7753 17.8958C16.798 18.2113 16.983 19.4189 17.157 20.3328C17.3529 21.4208 17.7228 26.2948 17.8533 27.1108L18.0274 28.449C18.0274 28.449 21.9223 22.5305 23.032 20.7245C23.032 20.7245 25.8172 16.2856 27.0684 14.4361C27.6559 13.5766 28.6133 11.825 29.8427 11.825C30.0317 11.8266 30.2182 11.8693 30.3891 11.95C30.5601 12.0308 30.7114 12.1478 30.8327 12.2928C31.4637 13.0979 30.9633 15.1432 29.7448 20.409C29.092 23.2921 28.4392 26.4907 27.9061 29.7219C27.373 32.9532 27.4492 35.5099 27.9061 36.6414C28.0084 36.903 28.0055 37.1941 27.898 37.4537C27.7905 37.7132 27.5868 37.9212 27.3295 38.0339C27.2018 38.1205 27.0477 38.159 26.8943 38.1427" fill="#00ACBE"></path><path d="M37.9262 51.8184C37.2952 53.483 36.4792 55.9744 34.782 57.6172C34.5081 57.8645 34.1598 58.0137 33.7919 58.0416C33.5852 58.0416 33.4655 57.9436 33.3567 57.6934C32.8454 56.5075 33.3567 54.6471 33.7158 53.4721L34.4882 51.1439C36.2323 47.2054 38.3106 43.4236 40.7005 39.84C40.7005 39.84 39.2861 48.2499 37.9371 51.8075M52.4722 24.2168C52.0813 24.2285 51.6952 24.3057 51.3299 24.4453C48.7079 26.0228 45.7377 29.4826 43.0722 33.149C43.4028 29.4633 43.5335 25.7625 43.4639 22.0627C43.4592 21.8444 43.3783 21.6347 43.2353 21.4697C43.0922 21.3048 42.896 21.1951 42.6806 21.1597C42.5903 21.1483 42.4989 21.1483 42.4086 21.1597C42.2312 21.1595 42.0578 21.2122 41.9105 21.311C41.7633 21.4098 41.6488 21.5503 41.5817 21.7145C40.3415 24.2976 38.7965 26.7228 36.9797 28.9386C35.2063 31.0166 34.0313 31.3321 33.4873 31.3321C33.3922 31.3393 33.2966 31.3266 33.2067 31.2947C33.1167 31.2629 33.0345 31.2126 32.9651 31.1471C32.7801 30.886 32.4973 30.1789 32.6931 28.264C32.8993 26.6878 33.2008 25.1255 33.5961 23.5858V23.3573C33.6383 23.1323 33.6084 22.8997 33.5108 22.6927C33.4131 22.4856 33.2526 22.3146 33.0521 22.2041C32.9308 22.1561 32.8018 22.1303 32.6713 22.1279C32.5059 22.1287 32.3425 22.165 32.1923 22.2345C32.0421 22.3039 31.9087 22.4049 31.801 22.5305L30.1908 24.5976C30.0431 24.8171 29.9804 25.0828 30.0144 25.3451C30.0485 25.6074 30.1769 25.8484 30.3757 26.0228C30.4719 26.102 30.5828 26.1612 30.7021 26.1969H30.9197V26.4254C30.8218 26.9585 30.7348 27.5134 30.6912 27.9703C30.4519 30.0048 30.6912 31.43 31.3767 32.3221C31.6225 32.6383 31.9403 32.8911 32.3037 33.0596C32.667 33.228 33.0654 33.3071 33.4655 33.2904C35.0104 33.2904 36.7294 32.2025 38.481 30.1462C39.4035 29.1059 40.2301 27.9844 40.9507 26.7953L41.4294 26.0011V26.9259C41.3206 30.4182 41.1248 33.4536 40.8202 36.3802C37.5345 41.3631 35.0648 45.8564 35.0648 45.8564L34.9996 45.9978C34.0729 47.4339 33.2964 48.9615 32.6822 50.5564L31.9206 52.7867C31.1591 55.3978 31.0067 57.2365 31.4637 58.4115C31.6142 58.8499 31.8905 59.2344 32.2581 59.5169C32.6257 59.7993 33.0684 59.9673 33.5308 59.9999H33.8354C34.653 59.9842 35.4327 59.6528 36.0114 59.0751C37.6878 57.254 38.917 55.0675 39.6016 52.6888C40.5683 50.0316 41.2965 47.2936 41.7776 44.5073C41.8972 43.7131 42.006 42.9298 42.104 42.1356L42.1801 41.5589C42.1801 41.3631 42.1801 41.1781 42.2671 40.9823C42.3542 40.7865 42.6479 38.0122 42.735 37.2724C43.1484 36.6522 43.5618 36.043 43.9752 35.4555C44.5736 34.5851 45.8792 32.7682 46.5972 31.7673C47.3153 30.7664 47.9354 29.983 48.4903 29.2758C50.1549 27.187 51.1993 26.4254 51.8521 26.2404H51.9718H52.1132C52.2056 26.2412 52.296 26.2676 52.3743 26.3166C52.4316 26.3823 52.4726 26.4606 52.494 26.5451C52.5378 26.7856 52.5596 27.0295 52.5593 27.274C52.5557 30.9535 51.7407 34.5869 50.1723 37.9154C48.604 41.244 46.3209 44.1856 43.4857 46.5309C43.4047 46.6039 43.3173 46.6695 43.2246 46.7268C42.6915 47.1184 41.6905 47.8147 42.3107 48.7068C42.4033 48.8357 42.5261 48.9397 42.6684 49.0099C42.8107 49.0801 42.9681 49.1143 43.1266 49.1094C43.4089 49.1079 43.6833 49.0164 43.91 48.8483C47.257 46.3301 49.9705 43.0658 51.8346 39.3149C53.6987 35.564 54.6621 31.4299 54.6481 27.2414C54.6481 24.1624 52.7442 24.2168 52.5593 24.2168" fill="#00ACBE"></path><path d="M56.0735 7.16839C55.833 6.95029 55.5292 6.81471 55.2063 6.78144C54.8833 6.74817 54.5582 6.81894 54.2783 6.98344L50.8513 8.86561L44.6172 5.79756C44.5623 5.7736 44.5031 5.76123 44.4432 5.76123C44.3833 5.76123 44.324 5.7736 44.2691 5.79756L42.9418 6.51562C42.8439 6.51562 42.8439 6.65705 42.9418 6.72233L48.5665 10.2473L44.5302 12.6735L42.7786 11.8793C42.7219 11.855 42.6608 11.8425 42.5991 11.8425C42.5374 11.8425 42.4763 11.855 42.4196 11.8793L41.8212 12.2165C41.801 12.2293 41.7843 12.2469 41.7727 12.2679C41.7612 12.2888 41.7551 12.3123 41.7551 12.3362C41.7551 12.3601 41.7612 12.3836 41.7727 12.4046C41.7843 12.4255 41.801 12.4431 41.8212 12.4559L43.4096 14.0443C43.4942 14.1425 43.5572 14.2574 43.5946 14.3816L44.095 16.5575C44.0984 16.581 44.1077 16.6033 44.1221 16.6223C44.1364 16.6413 44.1553 16.6564 44.177 16.6662C44.1986 16.6759 44.2225 16.6801 44.2462 16.6782C44.2699 16.6763 44.2927 16.6685 44.3126 16.6554L44.9219 16.3182C44.9748 16.2862 45.0205 16.2436 45.0561 16.193C45.0917 16.1424 45.1164 16.085 45.1286 16.0244V15.611L45.2591 14.6318L45.3244 14.1531L49.5784 12.1295L50.0135 18.2982C50.0143 18.3208 50.0208 18.3428 50.0326 18.362C50.0443 18.3813 50.0609 18.3972 50.0806 18.4081C50.1003 18.4191 50.1226 18.4248 50.1451 18.4246C50.1677 18.4244 50.1898 18.4183 50.2094 18.407L51.5802 17.6781C51.6305 17.6455 51.6731 17.6023 51.705 17.5516C51.7369 17.5009 51.7575 17.4438 51.7652 17.3844L52.0371 10.7695L55.3663 8.86561C55.6592 8.70203 55.8884 8.44442 56.0167 8.13445C56.145 7.82447 56.165 7.48027 56.0735 7.15751" fill="#00ACBE"></path><path d="M42.4196 15.0125L41.5927 15.4585L41.0814 15.7414L40.5809 16.0351L39.5691 16.6444L38.59 17.2863C37.2663 18.1467 36.0047 19.0992 34.8147 20.1368L34.2708 20.6372C34.5901 20.674 34.8903 20.8088 35.1299 21.0231C35.3695 21.2374 35.5369 21.5207 35.6089 21.834L36.0115 21.3553C37.0315 20.232 38.1216 19.1746 39.2754 18.1893C39.5691 17.9499 39.852 17.6997 40.1566 17.4604L41.0596 16.7532L41.5166 16.3942L41.9844 16.0569L42.7677 15.4912C42.7338 15.3985 42.7047 15.304 42.6807 15.2083L42.4196 15.0125Z" fill="url(#paint0_linear_28_400)"></path><path d="M78.4855 26.023V36.9026C78.4902 36.9795 78.4786 37.0566 78.4513 37.1288C78.424 37.2009 78.3817 37.2664 78.3272 37.3209C78.2726 37.3754 78.2072 37.4177 78.135 37.445C78.0629 37.4723 77.9858 37.484 77.9088 37.4792H75.0584C74.9814 37.484 74.9043 37.4723 74.8322 37.445C74.7601 37.4177 74.6946 37.3754 74.6401 37.3209C74.5855 37.2664 74.5432 37.2009 74.5159 37.1288C74.4886 37.0566 74.477 36.9795 74.4818 36.9026V26.5887C74.4818 23.3901 72.8498 22.0193 70.6413 22.0193C69.5034 22.0639 68.4114 22.4793 67.5315 23.2021C66.6516 23.9249 66.032 24.9155 65.7672 26.023V36.9026C65.772 36.9795 65.7603 37.0566 65.733 37.1288C65.7057 37.2009 65.6634 37.2664 65.6089 37.3209C65.5544 37.3754 65.4889 37.4177 65.4168 37.445C65.3446 37.4723 65.2675 37.484 65.1906 37.4792H62.3401C62.2631 37.484 62.186 37.4723 62.1139 37.445C62.0418 37.4177 61.9763 37.3754 61.9218 37.3209C61.8673 37.2664 61.8249 37.2009 61.7977 37.1288C61.7704 37.0566 61.7587 36.9795 61.7635 36.9026V10.2149C61.7587 10.1379 61.7704 10.0608 61.7977 9.98868C61.8249 9.91656 61.8673 9.85106 61.9218 9.79654C61.9763 9.74201 62.0418 9.6997 62.1139 9.67241C62.186 9.64512 62.2631 9.63348 62.3401 9.63825H65.1906C65.2675 9.63348 65.3446 9.64512 65.4168 9.67241C65.4889 9.6997 65.5544 9.74201 65.6089 9.79654C65.6634 9.85106 65.7057 9.91656 65.733 9.98868C65.7603 10.0608 65.772 10.1379 65.7672 10.2149V21.9213C66.395 20.8621 67.2858 19.983 68.3532 19.3692C69.4206 18.7554 70.6285 18.4278 71.8598 18.4181C75.7003 18.3637 78.4855 21.0292 78.4855 26.023Z" fill="#00ACBE"></path><path d="M100.952 19.3538V36.87C100.957 36.9469 100.945 37.024 100.918 37.0961C100.89 37.1683 100.848 37.2338 100.793 37.2883C100.739 37.3428 100.673 37.3851 100.601 37.4124C100.529 37.4397 100.452 37.4514 100.375 37.4466H97.9055C97.5573 37.4466 97.3724 37.2181 97.3289 36.87L97.1439 34.694C96.4398 35.6401 95.519 36.4035 94.459 36.9203C93.3989 37.4371 92.2303 37.6922 91.0513 37.6642C85.7529 37.6642 81.9451 33.3994 81.9451 28.1119C81.9451 22.8244 85.7529 18.3202 91.0513 18.3202C92.2502 18.3045 93.4348 18.5817 94.5023 19.1277C95.5697 19.6738 96.4877 20.4722 97.1765 21.4535L97.3289 19.2776C97.3288 19.2024 97.3438 19.1279 97.3729 19.0586C97.402 18.9892 97.4447 18.9264 97.4984 18.8737C97.5521 18.821 97.6157 18.7796 97.6856 18.7518C97.7555 18.724 97.8303 18.7104 97.9055 18.7119H100.343C100.428 18.6999 100.516 18.7086 100.597 18.7372C100.679 18.7657 100.753 18.8134 100.812 18.8762C100.872 18.9389 100.916 19.015 100.94 19.0981C100.964 19.1811 100.968 19.2688 100.952 19.3538ZM97.0677 28.0575C97.1118 27.2841 96.9995 26.5098 96.7377 25.7808C96.4758 25.0518 96.0698 24.383 95.5438 23.8143C95.0178 23.2457 94.3826 22.7888 93.6762 22.4711C92.9698 22.1533 92.2065 21.9812 91.4321 21.9649C88.1682 21.9649 85.7965 24.5542 85.7965 28.0575C85.7486 28.827 85.8589 29.5982 86.1205 30.3235C86.382 31.0488 86.7894 31.7128 87.3174 32.2747C87.8454 32.8365 88.4829 33.2843 89.1906 33.5904C89.8982 33.8964 90.6611 34.0543 91.4321 34.0543C92.2031 34.0543 92.966 33.8964 93.6736 33.5904C94.3813 33.2843 95.0188 32.8365 95.5468 32.2747C96.0748 31.7128 96.4822 31.0488 96.7437 30.3235C97.0053 29.5982 97.1156 28.827 97.0677 28.0575Z" fill="#00ACBE"></path><path d="M135.68 19.4301L129.086 36.9898C129.036 37.129 128.942 37.2483 128.819 37.3305C128.695 37.4127 128.549 37.4534 128.401 37.4468H125.551C125.403 37.4534 125.256 37.4127 125.133 37.3305C125.01 37.2483 124.916 37.129 124.865 36.9898L119.926 23.9996L114.921 36.9898C114.87 37.129 114.777 37.2483 114.653 37.3305C114.53 37.4127 114.384 37.4534 114.236 37.4468H111.342C111.194 37.4517 111.049 37.4103 110.926 37.3284C110.803 37.2464 110.709 37.128 110.656 36.9898L104.129 19.4301C103.976 19.0167 104.129 18.7882 104.586 18.7882H107.371C107.519 18.7798 107.666 18.8198 107.79 18.9022C107.913 18.9846 108.007 19.105 108.056 19.2452L112.93 32.8773L117.913 19.2452C117.937 19.1536 117.985 19.0701 118.052 19.0032C118.119 18.9362 118.202 18.8883 118.294 18.8644C118.388 18.815 118.492 18.7889 118.599 18.7882H121.188C121.294 18.7875 121.399 18.8137 121.493 18.8644C121.585 18.8873 121.669 18.9348 121.736 19.0019C121.803 19.069 121.85 19.1531 121.873 19.2452L126.9 32.8773L131.741 19.2452C131.789 19.104 131.882 18.9826 132.006 18.8999C132.13 18.8172 132.278 18.778 132.427 18.7882H135.244C135.636 18.7882 135.832 19.0167 135.68 19.4301Z" fill="#00ACBE"></path><path d="M155.709 19.3538V36.87C155.714 36.9469 155.702 37.024 155.675 37.0961C155.648 37.1683 155.605 37.2338 155.551 37.2883C155.496 37.3428 155.431 37.3851 155.359 37.4124C155.286 37.4397 155.209 37.4514 155.132 37.4466H152.663C152.315 37.4466 152.13 37.2181 152.086 36.87L151.901 34.694C151.197 35.6401 150.276 36.4035 149.216 36.9203C148.156 37.4371 146.988 37.6922 145.809 37.6642C140.51 37.6642 136.702 33.3994 136.702 28.1119C136.702 22.8244 140.51 18.3202 145.809 18.3202C147.007 18.3045 148.192 18.5817 149.259 19.1277C150.327 19.6738 151.245 20.4722 151.934 21.4535L152.086 19.2776C152.086 19.2024 152.101 19.1279 152.13 19.0586C152.159 18.9892 152.202 18.9264 152.256 18.8737C152.309 18.821 152.373 18.7796 152.443 18.7518C152.513 18.724 152.587 18.7104 152.663 18.7119H155.132C155.215 18.7055 155.299 18.7183 155.376 18.7493C155.454 18.7803 155.523 18.8287 155.579 18.8907C155.635 18.9528 155.675 19.0268 155.698 19.1071C155.72 19.1874 155.724 19.2718 155.709 19.3538ZM151.825 28.0575C151.869 27.2841 151.757 26.5098 151.495 25.7808C151.233 25.0518 150.827 24.383 150.301 23.8143C149.775 23.2457 149.14 22.7888 148.433 22.4711C147.727 22.1533 146.964 21.9812 146.189 21.9649C142.925 21.9649 140.554 24.5542 140.554 28.0575C140.506 28.827 140.616 29.5982 140.878 30.3235C141.139 31.0488 141.547 31.7128 142.075 32.2747C142.603 32.8365 143.24 33.2843 143.948 33.5904C144.655 33.8964 145.418 34.0543 146.189 34.0543C146.96 34.0543 147.723 33.8964 148.431 33.5904C149.139 33.2843 149.776 32.8365 150.304 32.2747C150.832 31.7128 151.239 31.0488 151.501 30.3235C151.763 29.5982 151.873 28.827 151.825 28.0575Z" fill="#00ACBE"></path><path d="M160.18 12.4561C160.185 12.0013 160.323 11.558 160.579 11.1818C160.835 10.8056 161.196 10.5134 161.617 10.3418C162.038 10.1702 162.5 10.127 162.946 10.2176C163.392 10.3081 163.801 10.5284 164.122 10.8508C164.442 11.1731 164.661 11.5831 164.749 12.0292C164.838 12.4753 164.792 12.9376 164.619 13.3579C164.445 13.7783 164.151 14.138 163.774 14.3918C163.397 14.6456 162.953 14.7822 162.498 14.7843C162.191 14.7903 161.886 14.7341 161.601 14.619C161.317 14.504 161.059 14.3325 160.842 14.115C160.626 13.8974 160.455 13.6383 160.342 13.3532C160.228 13.0681 160.173 12.7629 160.18 12.4561ZM161.051 18.788H163.912C163.988 18.7832 164.063 18.7946 164.134 18.8213C164.205 18.8481 164.269 18.8896 164.323 18.9431C164.376 18.9966 164.418 19.0609 164.445 19.1317C164.471 19.2025 164.483 19.2782 164.478 19.3538V36.8699C164.483 36.9459 164.471 37.0221 164.445 37.0934C164.418 37.1647 164.377 37.2297 164.323 37.284C164.27 37.3384 164.206 37.3809 164.135 37.4089C164.064 37.4369 163.988 37.4497 163.912 37.4466H161.051C160.975 37.4497 160.899 37.4369 160.828 37.4089C160.757 37.3809 160.693 37.3384 160.64 37.284C160.586 37.2297 160.545 37.1647 160.518 37.0934C160.492 37.0221 160.48 36.9459 160.485 36.8699V19.3538C160.481 19.2828 160.491 19.2118 160.514 19.1447C160.537 19.0777 160.574 19.016 160.622 18.9633C160.669 18.9105 160.727 18.8679 160.791 18.8378C160.856 18.8077 160.925 18.7908 160.996 18.788H161.051Z" fill="#00ACBE"></path><path d="M168.884 12.456C168.888 12.0017 169.027 11.5588 169.282 11.1829C169.537 10.8069 169.897 10.5147 170.318 10.3428C170.738 10.1709 171.2 10.1271 171.646 10.2168C172.091 10.3065 172.5 10.5257 172.821 10.8469C173.143 11.1682 173.362 11.5772 173.452 12.0225C173.541 12.4679 173.497 12.9299 173.326 13.3504C173.154 13.771 172.861 14.1314 172.485 14.3865C172.11 14.6416 171.667 14.7799 171.212 14.7842C170.905 14.7902 170.6 14.734 170.314 14.6191C170.029 14.5041 169.77 14.3329 169.553 14.1155C169.335 13.8981 169.164 13.6391 169.049 13.3539C168.934 13.0688 168.878 12.7634 168.884 12.456ZM169.765 18.7879H172.616C172.692 18.7833 172.768 18.7947 172.839 18.8213C172.911 18.848 172.976 18.8893 173.03 18.9426C173.084 18.9959 173.127 19.0601 173.155 19.1309C173.183 19.2017 173.196 19.2776 173.192 19.3537V36.8699C173.197 36.9468 173.186 37.0239 173.158 37.0961C173.131 37.1682 173.089 37.2337 173.034 37.2882C172.98 37.3427 172.914 37.385 172.842 37.4123C172.77 37.4396 172.693 37.4513 172.616 37.4465H169.765C169.688 37.4513 169.611 37.4396 169.539 37.4123C169.467 37.385 169.402 37.3427 169.347 37.2882C169.292 37.2337 169.25 37.1682 169.223 37.0961C169.196 37.0239 169.184 36.9468 169.189 36.8699V19.3537C169.186 19.2813 169.197 19.2091 169.223 19.1413C169.248 19.0735 169.287 19.0114 169.336 18.9588C169.386 18.9061 169.446 18.8638 169.512 18.8345C169.578 18.8052 169.649 18.7893 169.722 18.7879H169.765Z" fill="#00ACBE"></path></g><defs><linearGradient id="paint0_linear_28_400" x1="34.2708" y1="18.4178" x2="42.7677" y2="18.4178" gradientUnits="userSpaceOnUse"><stop stop-color="white" stop-opacity="0"></stop><stop offset="0.19" stop-color="#B5E7EC" stop-opacity="0.29"></stop><stop offset="0.38" stop-color="#75D2DC" stop-opacity="0.54"></stop><stop offset="0.57" stop-color="#42C2CF" stop-opacity="0.74"></stop><stop offset="0.74" stop-color="#1EB6C6" stop-opacity="0.88"></stop><stop offset="0.89" stop-color="#08AFC0" stop-opacity="0.97"></stop><stop offset="1" stop-color="#00ACBE"></stop></linearGradient><clipPath id="clip0_28_400"><rect width="173.497" height="60" fill="white"></rect></clipPath></defs></svg>