<svg xmlns="http://www.w3.org/2000/svg" width="184" height="60" viewBox="0 0 184 60" fill="none"><g clip-path="url(#clip0_28_528)"><path d="M29.3746 52.3026H29.3093C28.6887 52.3026 28.0681 52.3788 27.4584 52.3788C23.7712 52.3613 20.1331 51.5321 16.8024 49.9503C13.4718 48.3684 10.5302 46.0727 8.18665 43.226C5.84309 40.3794 4.155 37.0517 3.24226 33.4792C2.32953 29.9067 2.21452 26.1771 2.90542 22.5552C3.59631 18.9333 5.07617 15.5079 7.23989 12.5223C9.40361 9.53663 12.1981 7.064 15.425 5.27994C18.6519 3.49589 22.232 2.44416 25.9111 2.19945C29.5902 1.95474 33.2781 2.52305 36.7128 3.86402C37.2681 4.08177 38.7923 5.05076 39.3476 4.22331C40.0771 3.13456 38.727 2.54663 38.1608 2.29622C34.4444 0.664529 30.41 -0.11532 26.3531 0.013771C22.2963 0.142862 18.3197 1.17762 14.7144 3.04229C11.1092 4.90696 7.96664 7.55433 5.51684 10.7906C3.06703 14.0268 1.37202 17.7699 0.555893 21.7459C-0.26023 25.7219 -0.176797 29.8301 0.800082 33.7697C1.77696 37.7093 3.62256 41.3806 6.20173 44.5147C8.78091 47.6488 12.0284 50.1664 15.7063 51.8831C19.3843 53.5999 23.3997 54.4723 27.4584 54.4366C28.0681 54.4366 28.6778 54.4366 29.2548 54.3495H29.3202C29.5615 54.3594 29.8023 54.3191 30.0272 54.231C30.2521 54.1429 30.4563 54.009 30.6267 53.8378C30.7067 53.7404 30.763 53.6259 30.7913 53.5031C30.8197 53.3803 30.8192 53.2527 30.79 53.1301C30.6376 52.2046 29.8101 52.27 29.3746 52.3026Z" fill="#00ACBE"></path><path d="M26.9683 38.1272C26.7601 38.1277 26.556 38.0685 26.3804 37.9566C26.2048 37.8447 26.065 37.6847 25.9775 37.4957C25.2807 35.8953 25.2263 33.3367 25.8033 29.4172C26.3151 26.1509 26.7179 23.5053 27.4691 20.4676C27.578 20.0104 27.9482 18.791 27.6107 18.6277C27.2732 18.4643 26.7723 19.3136 26.5872 19.5749C26.4022 19.8362 24.4097 22.8411 24.4097 22.8411C23.321 24.6158 22.2322 26.2054 21.3068 27.4901C19.4995 30.1684 18.7373 30.8979 17.7575 30.8979C17.4285 30.8718 17.1129 30.7567 16.8443 30.5649C16.5758 30.3731 16.3646 30.1119 16.2332 29.8091C16.0213 29.3233 15.8784 28.8103 15.8086 28.2849C15.6344 27.2832 15.2316 22.2423 15.1009 21.4149C15.0138 20.8705 14.611 20.2063 14.0121 20.5112C13.5325 20.801 13.1527 21.2302 12.9234 21.7415C11.7367 24.2456 8.56838 31.6927 8.14377 32.8685C7.87158 33.5545 7.42519 34.9263 6.55419 35.046C5.68319 35.1658 5.77029 34.4146 5.87916 33.8811C6.11869 32.7052 8.84057 25.8679 10.6915 21.4257C11.0627 20.4245 11.3149 19.383 11.4427 18.3228C11.4971 18.0288 11.9871 17.92 12.1177 17.8982C12.3861 17.866 12.6582 17.9113 12.9016 18.0288C13.25 18.1921 13.2718 18.3881 13.3698 18.6494C13.4544 18.4236 13.6018 18.2267 13.7948 18.082C13.9877 17.9372 14.218 17.8508 14.4585 17.8329C14.902 17.7887 15.3498 17.8331 15.7759 17.9635C16.7885 18.2901 16.9736 19.4987 17.1478 20.4132C17.3437 21.502 17.7139 26.3796 17.8446 27.1961L18.095 28.4264C18.095 28.4264 21.9927 22.4927 23.1032 20.6963C23.1032 20.6963 25.9013 16.2542 27.1534 14.4033C27.7304 13.5432 28.6885 11.7903 29.9297 11.7903C30.1176 11.7905 30.303 11.8327 30.4725 11.9137C30.6421 11.9947 30.7914 12.1124 30.9096 12.2584C31.5411 13.0641 31.0402 15.111 29.8208 20.3805C29.1676 23.2657 28.5143 26.4667 27.9809 29.7003C27.4474 32.9339 27.5236 35.4924 27.9809 36.6247C28.0832 36.8866 28.0803 37.1779 27.9728 37.4377C27.8652 37.6974 27.6613 37.9055 27.4038 38.0183C27.2761 38.1049 27.1218 38.1435 26.9683 38.1272Z" fill="#00ACBE"></path><path d="M37.9539 51.8561C37.3224 53.5219 36.5058 56.0152 34.8074 57.6592C34.5333 57.9066 34.1848 58.056 33.8166 58.0838C33.6097 58.0838 33.49 57.9858 33.3811 57.7354C32.8694 56.5487 33.3811 54.6869 33.7404 53.511L34.5134 51.1811C36.2587 47.2397 38.3386 43.4552 40.7302 39.869C40.7302 39.869 39.3148 48.285 37.9648 51.8453M52.5432 24.2345C52.1698 24.2479 51.8016 24.3252 51.4544 24.4631C48.8305 26.0418 45.8691 29.4932 43.1908 33.1731C43.527 29.4851 43.6578 25.7813 43.5827 22.0787C43.5805 21.8584 43.5007 21.646 43.3574 21.4787C43.214 21.3114 43.0162 21.2001 42.7988 21.1642C42.7087 21.1494 42.6168 21.1494 42.5266 21.1642C42.3488 21.1624 42.1745 21.2131 42.0253 21.3099C41.8762 21.4068 41.759 21.5454 41.6883 21.7086C40.4338 24.2891 38.8729 26.7091 37.0393 28.9161C35.2538 30.9956 34.0779 31.3114 33.5335 31.3114C33.4383 31.3186 33.3427 31.3059 33.2527 31.274C33.1627 31.2421 33.0804 31.1918 33.0109 31.1263C32.8258 30.865 32.5428 30.1573 32.7496 28.2411C32.9572 26.6647 33.2553 25.1016 33.6424 23.5595V23.3308C33.6846 23.1056 33.6548 22.8729 33.557 22.6657C33.4593 22.4585 33.2987 22.2874 33.098 22.1767C32.9779 22.1243 32.848 22.0983 32.717 22.1005C32.5516 22.1027 32.3886 22.1396 32.2385 22.209C32.0884 22.2785 31.9547 22.3787 31.846 22.5034L30.2346 24.572C30.0868 24.7916 30.0241 25.0575 30.0581 25.32C30.0922 25.5825 30.2207 25.8237 30.4197 25.9983C30.5159 26.0775 30.6269 26.1367 30.7463 26.1725H30.9641V26.4011C30.8661 26.9346 30.7899 27.4899 30.7354 27.9471C30.4959 29.9831 30.7354 31.4094 31.4214 32.3021C31.6686 32.6172 31.9869 32.8692 32.3502 33.0377C32.7135 33.2061 33.1116 33.2861 33.5118 33.2711C35.0687 33.2711 36.778 32.1824 38.5418 30.1246C39.4613 29.0832 40.2848 27.9609 41.0024 26.7713L41.4814 25.9765V26.9019C41.3726 30.3968 41.1766 33.4344 40.8717 36.3632C37.6055 41.3279 35.134 45.8353 35.134 45.8353L35.0578 45.9769C34.1298 47.4119 33.3561 48.941 32.7496 50.5387L31.9766 52.7707C31.2145 55.3837 31.073 57.2237 31.5302 58.3995C31.6737 58.8354 31.9422 59.2196 32.3022 59.5041C32.6623 59.7887 33.098 59.9611 33.5553 60H33.8602C34.6783 59.9843 35.4586 59.6527 36.0377 59.0746C37.7192 57.255 38.9499 55.0659 39.6305 52.6836C40.6017 50.0257 41.3305 47.2854 41.8081 44.4962C41.9387 43.7014 42.0367 42.9175 42.1347 42.1227L42.2109 41.5457C42.2109 41.3497 42.2109 41.1646 42.298 40.9686C42.3851 40.7726 42.6791 37.9963 42.7662 37.256C43.1799 36.6354 43.5936 36.0257 44.0073 35.4377C44.6061 34.5667 45.9127 32.7485 46.6312 31.7469C47.3498 30.7452 47.9704 29.9613 48.5365 29.2536C50.1915 27.1632 51.2367 26.4011 51.8899 26.216H52.0097H52.1512C52.2439 26.215 52.3349 26.2415 52.4125 26.2922C52.4698 26.358 52.5109 26.4363 52.5323 26.5209C52.5761 26.7615 52.598 27.0057 52.5976 27.2503C52.5962 30.9397 51.7795 34.5833 50.206 37.9203C48.6325 41.2574 46.3411 44.2055 43.4956 46.5539C43.4146 46.627 43.3272 46.6926 43.2343 46.7499C42.7008 47.1418 41.7101 47.8386 42.3307 48.7314C42.4227 48.861 42.5455 48.9657 42.688 49.036C42.8306 49.1064 42.9884 49.1401 43.1472 49.1343C43.429 49.1291 43.7026 49.0379 43.9311 48.873C47.2669 46.3505 49.9704 43.0868 51.8278 39.3398C53.6853 35.5928 54.6458 31.4651 54.6336 27.283C54.6336 24.2018 52.7282 24.2563 52.5432 24.2563" fill="#00ACBE"></path><path d="M56.1143 7.17381C55.8737 6.95555 55.5696 6.81987 55.2465 6.78657C54.9233 6.75328 54.5979 6.82411 54.3179 6.98872L50.8883 8.87227L44.6497 5.80198C44.5948 5.778 44.5355 5.76563 44.4755 5.76562C44.4156 5.76562 44.3563 5.778 44.3013 5.80198L42.9731 6.52056C42.8751 6.575 42.8751 6.6621 42.9731 6.72742L48.5801 10.2659L44.5518 12.6938L42.7989 11.899C42.7421 11.8747 42.681 11.8622 42.6192 11.8622C42.5575 11.8622 42.4964 11.8747 42.4396 11.899L41.8408 12.2365C41.8205 12.2493 41.8038 12.2669 41.7923 12.2879C41.7807 12.3088 41.7747 12.3324 41.7747 12.3563C41.7747 12.3802 41.7807 12.4037 41.7923 12.4247C41.8038 12.4456 41.8205 12.4633 41.8408 12.476L43.4303 14.0656C43.515 14.1639 43.5781 14.2789 43.6154 14.4031L44.1163 16.5806C44.1214 16.6045 44.1321 16.6267 44.1476 16.6455C44.1631 16.6643 44.1829 16.6791 44.2052 16.6887C44.2276 16.6983 44.252 16.7024 44.2763 16.7007C44.3006 16.6989 44.3241 16.6913 44.3449 16.6786L44.9437 16.3411C44.9967 16.3091 45.0424 16.2665 45.078 16.2159C45.1137 16.1653 45.1383 16.1078 45.1506 16.0471V15.6334L45.2921 14.6535L45.3574 14.1745L49.6689 12.1276L50.0935 18.3009C50.0942 18.3234 50.1008 18.3454 50.1126 18.3647C50.1243 18.384 50.1409 18.3999 50.1606 18.4108C50.1804 18.4218 50.2026 18.4275 50.2252 18.4273C50.2478 18.4271 50.2699 18.421 50.2895 18.4097L51.6613 17.6803C51.7133 17.6495 51.7571 17.6067 51.7893 17.5556C51.8215 17.5045 51.8411 17.4465 51.8464 17.3863L52.1186 10.7667L55.4611 8.88315C55.7536 8.71924 55.9818 8.46088 56.1084 8.15035C56.235 7.83983 56.2524 7.49553 56.1579 7.17381" fill="#00ACBE"></path><path d="M41.928 14.708L41.1005 15.1544L40.5888 15.4375L40.088 15.7314L39.0754 16.3411L38.0955 16.9835C36.7709 17.8446 35.5084 18.7978 34.3176 19.836L33.7732 20.3369C34.0899 20.3722 34.3882 20.5039 34.6277 20.7142C34.8671 20.9245 35.0363 21.2032 35.1124 21.5127L35.5261 21.0337C36.5439 19.9068 37.635 18.8484 38.7923 17.8654L39.6742 17.1359L40.5779 16.4282L41.0352 16.0689L41.5033 15.7314L42.2872 15.1653C42.2632 15.0695 42.2341 14.975 42.2001 14.8822L41.928 14.708Z" fill="url(#paint0_linear_28_528)"></path><path d="M78.5099 26.8803V37.7679C78.5147 37.8449 78.503 37.922 78.4757 37.9942C78.4484 38.0664 78.4061 38.1319 78.3515 38.1865C78.297 38.2411 78.2314 38.2834 78.1592 38.3107C78.0871 38.338 78.0099 38.3497 77.9329 38.3449H75.0803C75.0033 38.3497 74.9262 38.338 74.854 38.3107C74.7818 38.2834 74.7163 38.2411 74.6617 38.1865C74.6071 38.1319 74.5648 38.0664 74.5375 37.9942C74.5102 37.922 74.4985 37.8449 74.5033 37.7679V27.4465C74.5033 24.2455 72.8702 22.8737 70.66 22.8737C69.5214 22.9184 68.4285 23.3341 67.548 24.0574C66.6674 24.7807 66.0474 25.772 65.7824 26.8803V37.7679C65.7872 37.8449 65.7755 37.922 65.7482 37.9942C65.7209 38.0664 65.6786 38.1319 65.624 38.1865C65.5694 38.2411 65.5039 38.2834 65.4317 38.3107C65.3595 38.338 65.2824 38.3497 65.2054 38.3449H62.3419C62.2658 38.3481 62.1899 38.3353 62.119 38.3072C62.0481 38.2792 61.9839 38.2366 61.9306 38.1822C61.8772 38.1279 61.8359 38.0629 61.8092 37.9915C61.7825 37.9201 61.7712 37.8439 61.7758 37.7679V11.0607C61.7712 10.9847 61.7825 10.9085 61.8092 10.8371C61.8359 10.7657 61.8772 10.7008 61.9306 10.6464C61.9839 10.592 62.0481 10.5494 62.119 10.5214C62.1899 10.4934 62.2658 10.4805 62.3419 10.4837H65.2054C65.2824 10.4789 65.3595 10.4906 65.4317 10.5179C65.5039 10.5452 65.5694 10.5875 65.624 10.6421C65.6786 10.6967 65.7209 10.7622 65.7482 10.8344C65.7755 10.9066 65.7872 10.9837 65.7824 11.0607V22.7213C66.4107 21.6613 67.3021 20.7815 68.3703 20.1673C69.4385 19.5531 70.6473 19.2252 71.8794 19.2155C75.7227 19.2155 78.5099 21.883 78.5099 26.8803Z" fill="#00ACBE"></path><path d="M81.9723 28.9707C82.0023 27.0847 82.589 25.2496 83.6587 23.696C84.7284 22.1424 86.2333 20.9395 87.9845 20.2385C89.7356 19.5374 91.6549 19.3695 93.5012 19.7558C95.3474 20.1421 97.0384 21.0654 98.3616 22.4097C99.6848 23.754 100.581 25.4593 100.938 27.3114C101.295 29.1636 101.097 31.0799 100.369 32.8198C99.64 34.5596 98.4135 36.0454 96.8431 37.0904C95.2728 38.1354 93.4287 38.693 91.5424 38.6933C90.2719 38.6964 89.0135 38.4459 87.841 37.9565C86.6685 37.4671 85.6055 36.7486 84.7142 35.8431C83.8229 34.9376 83.1213 33.8634 82.6505 32.6833C82.1797 31.5032 81.9491 30.241 81.9723 28.9707ZM97.2148 28.9707C97.2744 28.183 97.1707 27.3915 96.9101 26.6458C96.6496 25.9 96.2379 25.2161 95.7008 24.6369C95.1637 24.0576 94.5128 23.5955 93.7888 23.2795C93.0648 22.9635 92.2834 22.8004 91.4934 22.8004C90.7035 22.8004 89.9221 22.9635 89.1981 23.2795C88.4741 23.5955 87.8232 24.0576 87.2861 24.6369C86.749 25.2161 86.3373 25.9 86.0767 26.6458C85.8162 27.3915 85.7125 28.183 85.772 28.9707C85.7383 29.743 85.8614 30.5142 86.1337 31.2377C86.406 31.9612 86.822 32.6221 87.3566 33.1806C87.8912 33.739 88.5334 34.1834 89.2443 34.487C89.9553 34.7907 90.7204 34.9472 91.4934 34.9472C92.2665 34.9472 93.0316 34.7907 93.7426 34.487C94.4535 34.1834 95.0956 33.739 95.6302 33.1806C96.1648 32.6221 96.5809 31.9612 96.8532 31.2377C97.1255 30.5142 97.2485 29.743 97.2148 28.9707Z" fill="#00ACBE"></path><path d="M105.097 10.4836H107.961C108.037 10.4804 108.113 10.4933 108.184 10.5213C108.254 10.5493 108.319 10.5919 108.372 10.6463C108.425 10.7007 108.467 10.7657 108.493 10.837C108.52 10.9084 108.531 10.9846 108.527 11.0607V37.7351C108.531 37.8112 108.52 37.8874 108.493 37.9587C108.467 38.0301 108.425 38.0951 108.372 38.1495C108.319 38.2039 108.254 38.2465 108.184 38.2745C108.113 38.3025 108.037 38.3153 107.961 38.3122H105.097C105.021 38.3153 104.945 38.3025 104.874 38.2745C104.803 38.2465 104.739 38.2039 104.686 38.1495C104.632 38.0951 104.591 38.0301 104.564 37.9587C104.538 37.8874 104.526 37.8112 104.531 37.7351V11.0607C104.526 10.9846 104.538 10.9084 104.564 10.837C104.591 10.7657 104.632 10.7007 104.686 10.6463C104.739 10.5919 104.803 10.5493 104.874 10.5213C104.945 10.4933 105.021 10.4804 105.097 10.4836Z" fill="#00ACBE"></path><path d="M112.642 13.3035C112.647 12.8499 112.785 12.4075 113.039 12.0318C113.293 11.6561 113.653 11.3637 114.072 11.1911C114.492 11.0185 114.953 10.9734 115.398 11.0614C115.843 11.1495 116.253 11.3667 116.575 11.686C116.897 12.0054 117.118 12.4126 117.21 12.8569C117.303 13.3011 117.262 13.7627 117.093 14.1838C116.924 14.605 116.635 14.9672 116.262 15.225C115.889 15.4828 115.448 15.6249 114.994 15.6335C114.685 15.6424 114.377 15.5884 114.089 15.4747C113.801 15.361 113.539 15.1901 113.319 14.9723C113.099 14.7544 112.926 14.4942 112.81 14.2073C112.693 13.9205 112.636 13.613 112.642 13.3035ZM113.524 19.6401H116.377C116.453 19.6354 116.529 19.6468 116.6 19.6735C116.672 19.7002 116.737 19.7415 116.791 19.7949C116.846 19.8482 116.888 19.9124 116.916 19.9833C116.944 20.0542 116.957 20.1301 116.954 20.2062V37.7352C116.959 37.8122 116.947 37.8893 116.92 37.9615C116.892 38.0337 116.85 38.0992 116.795 38.1538C116.741 38.2084 116.675 38.2507 116.603 38.278C116.531 38.3053 116.454 38.317 116.377 38.3122H113.524C113.447 38.317 113.37 38.3053 113.298 38.278C113.226 38.2507 113.16 38.2084 113.106 38.1538C113.051 38.0992 113.009 38.0337 112.981 37.9615C112.954 37.8893 112.942 37.8122 112.947 37.7352V20.2062C112.944 20.1301 112.957 20.0542 112.985 19.9833C113.013 19.9124 113.056 19.8482 113.11 19.7949C113.164 19.7415 113.229 19.7002 113.301 19.6735C113.372 19.6468 113.448 19.6354 113.524 19.6401Z" fill="#00ACBE"></path><path d="M139.698 11.0608V37.7353C139.702 37.8113 139.691 37.8875 139.664 37.9589C139.638 38.0303 139.596 38.0953 139.543 38.1496C139.49 38.204 139.426 38.2466 139.355 38.2746C139.284 38.3027 139.208 38.3155 139.132 38.3123H136.649C136.574 38.3138 136.498 38.2999 136.428 38.2713C136.358 38.2427 136.295 38.2001 136.242 38.146C136.189 38.092 136.147 38.0277 136.12 37.957C136.093 37.8864 136.08 37.8109 136.083 37.7353L135.887 35.5577C135.183 36.5052 134.262 37.2697 133.201 37.7869C132.14 38.3041 130.97 38.559 129.79 38.53C124.499 38.53 120.688 34.2621 120.688 28.9708C120.688 23.6795 124.499 19.172 129.79 19.172C130.933 19.1712 132.06 19.4364 133.082 19.9466C134.105 20.4568 134.994 21.1981 135.68 22.1116V11.0608C135.676 10.9847 135.687 10.9086 135.714 10.8372C135.74 10.7658 135.782 10.7008 135.835 10.6464C135.889 10.592 135.953 10.5494 136.024 10.5214C136.094 10.4934 136.17 10.4806 136.247 10.4838H139.11C139.188 10.4774 139.266 10.4878 139.34 10.5144C139.413 10.541 139.48 10.583 139.536 10.6378C139.592 10.6925 139.635 10.7587 139.663 10.8317C139.691 10.9046 139.703 10.9828 139.698 11.0608ZM135.811 28.9708C135.857 28.1965 135.745 27.421 135.484 26.6908C135.222 25.9606 134.816 25.2907 134.29 24.7213C133.763 24.1519 133.127 23.6948 132.419 23.3773C131.711 23.0598 130.947 22.8886 130.171 22.8738C126.905 22.8738 124.532 25.465 124.532 28.9708C124.484 29.7409 124.594 30.5126 124.856 31.2384C125.118 31.9643 125.525 32.6288 126.054 33.1911C126.582 33.7533 127.22 34.2014 127.928 34.5077C128.636 34.814 129.4 34.972 130.171 34.972C130.943 34.972 131.706 34.814 132.414 34.5077C133.123 34.2014 133.761 33.7533 134.289 33.1911C134.817 32.6288 135.225 31.9643 135.487 31.2384C135.749 30.5126 135.859 29.7409 135.811 28.9708Z" fill="#00ACBE"></path><path d="M162.181 20.2061V37.735C162.185 37.8111 162.174 37.8873 162.147 37.9587C162.121 38.03 162.079 38.095 162.026 38.1494C161.972 38.2038 161.908 38.2464 161.837 38.2744C161.767 38.3024 161.691 38.3153 161.614 38.3121H159.132C159.056 38.3136 158.981 38.2997 158.911 38.2711C158.841 38.2425 158.777 38.1998 158.724 38.1458C158.671 38.0918 158.63 38.0274 158.603 37.9568C158.576 37.8862 158.563 37.8107 158.566 37.735L158.37 35.5575C157.666 36.505 156.745 37.2694 155.684 37.7867C154.623 38.3039 153.453 38.5588 152.273 38.5298C146.982 38.5298 143.171 34.2619 143.171 28.9706C143.171 23.6792 146.982 19.1718 152.273 19.1718C153.474 19.1531 154.661 19.4279 155.731 19.9725C156.801 20.5171 157.722 21.3149 158.414 22.2965L158.566 20.119C158.565 20.0443 158.578 19.97 158.606 19.9006C158.634 19.8313 158.676 19.7683 158.729 19.7154C158.781 19.6625 158.844 19.6209 158.914 19.5929C158.983 19.565 159.057 19.5514 159.132 19.5529H161.614C161.699 19.5455 161.783 19.5581 161.861 19.5898C161.94 19.6214 162.009 19.6711 162.064 19.7349C162.12 19.7987 162.159 19.8746 162.179 19.9565C162.199 20.0384 162.2 20.124 162.181 20.2061ZM158.294 28.9706C158.339 28.1963 158.228 27.4208 157.967 26.6906C157.705 25.9603 157.299 25.2904 156.772 24.7211C156.246 24.1517 155.609 23.6946 154.902 23.3771C154.194 23.0596 153.43 22.8883 152.654 22.8736C149.388 22.8736 147.014 25.4648 147.014 28.9706C146.966 29.7407 147.077 30.5124 147.339 31.2382C147.6 31.964 148.008 32.6286 148.536 33.1908C149.065 33.7531 149.703 34.2012 150.411 34.5075C151.119 34.8138 151.882 34.9718 152.654 34.9718C153.426 34.9718 154.189 34.8138 154.897 34.5075C155.605 34.2012 156.243 33.7531 156.772 33.1908C157.3 32.6286 157.708 31.964 157.97 31.2382C158.231 30.5124 158.342 29.7407 158.294 28.9706Z" fill="#00ACBE"></path><path d="M183.673 20.2825L173.874 45.0952C173.823 45.2345 173.729 45.3539 173.606 45.4362C173.482 45.5184 173.336 45.5591 173.188 45.5525H170.303C169.878 45.5525 169.693 45.3238 169.845 44.8992L172.513 38.3667L165.349 20.2607C165.196 19.847 165.349 19.6184 165.806 19.6184H168.702C168.85 19.6134 168.996 19.6548 169.119 19.7368C169.242 19.8189 169.336 19.9373 169.388 20.0757L174.494 33.6415L179.601 20.0757C179.651 19.9364 179.745 19.8169 179.869 19.7347C179.992 19.6525 180.138 19.6117 180.287 19.6184H183.215C183.64 19.6402 183.825 19.8688 183.673 20.2825Z" fill="#00ACBE"></path></g><defs><linearGradient id="paint0_linear_28_528" x1="33.7732" y1="18.1158" x2="42.2764" y2="18.1158" gradientUnits="userSpaceOnUse"><stop stop-color="white" stop-opacity="0"></stop><stop offset="0.19" stop-color="#B5E7EC" stop-opacity="0.29"></stop><stop offset="0.38" stop-color="#75D2DC" stop-opacity="0.54"></stop><stop offset="0.57" stop-color="#42C2CF" stop-opacity="0.74"></stop><stop offset="0.74" stop-color="#1EB6C6" stop-opacity="0.88"></stop><stop offset="0.89" stop-color="#08AFC0" stop-opacity="0.97"></stop><stop offset="1" stop-color="#00ACBE"></stop></linearGradient><clipPath id="clip0_28_528"><rect width="183.725" height="60" fill="white"></rect></clipPath></defs></svg>