<svg xmlns="http://www.w3.org/2000/svg" width="211" height="60" viewBox="0 0 211 60" fill="none"><g clip-path="url(#clip0_28_445)"><path d="M29.3422 52.2645H29.2878C28.6567 52.2645 28.0366 52.3407 27.4382 52.3407C23.7537 52.3231 20.1183 51.4946 16.79 49.9139C13.4618 48.3332 10.5223 46.0391 8.18048 43.1945C5.83862 40.3499 4.15176 37.0247 3.23969 33.4548C2.32761 29.8849 2.21269 26.158 2.90309 22.5387C3.59348 18.9194 5.07226 15.4965 7.23441 12.5131C9.39656 9.5296 12.189 7.05877 15.4136 5.27601C18.6381 3.49325 22.2156 2.44229 25.8921 2.19776C29.5685 1.95323 33.2537 2.52112 36.6859 3.86112C37.2408 4.07871 38.7639 5.04699 39.3188 4.22014C40.0477 3.13218 38.6986 2.54468 38.1329 2.29445C34.4187 0.663805 30.3868 -0.115431 26.3325 0.0138101C22.2781 0.143051 18.304 1.1775 14.7012 3.04139C11.0984 4.90528 7.95812 7.55142 5.51032 10.786C3.06253 14.0206 1.36922 17.7618 0.554394 21.7355C-0.260429 25.7092 -0.176126 29.8148 0.801127 33.7517C1.77838 37.6887 3.62384 41.3571 6.20235 44.4885C8.78086 47.6199 12.0271 50.1349 15.7034 51.8494C19.3797 53.5638 23.3929 54.4342 27.4491 54.3969C28.0584 54.3969 28.6568 54.3969 29.2443 54.3099H29.3095C29.5507 54.3198 29.7913 54.2795 30.0161 54.1915C30.2408 54.1035 30.4448 53.9696 30.6151 53.7986C30.6929 53.7001 30.7479 53.5856 30.7761 53.4633C30.8043 53.341 30.8051 53.214 30.7783 53.0914C30.6151 52.1666 29.7991 52.2319 29.353 52.2645" fill="#00ACBE"></path><path d="M26.9487 38.0992C26.7406 38.0997 26.5367 38.0406 26.3613 37.9287C26.1858 37.8169 26.0461 37.6571 25.9587 37.4682C25.2624 35.8689 25.208 33.3122 25.7737 29.3955C26.2959 26.1316 26.6985 23.4879 27.4492 20.4525C27.558 19.9955 27.917 18.777 27.5906 18.6138C27.2642 18.4506 26.7529 19.3101 26.5679 19.5604C26.383 19.8106 24.392 22.8242 24.392 22.8242C23.304 24.5976 22.2161 26.186 21.2913 27.4698C19.507 30.168 18.7455 30.8969 17.7663 30.8969C17.4367 30.8693 17.1205 30.7538 16.8507 30.5625C16.5809 30.3711 16.3673 30.1109 16.2323 29.809C16.0265 29.326 15.8874 28.8172 15.8188 28.2967C15.6448 27.2849 15.2313 22.2476 15.1117 21.4208C15.0246 20.8768 14.6112 20.2131 14.0237 20.5178C13.5444 20.8074 13.1649 21.2362 12.9357 21.7472C11.7499 24.2495 8.5839 31.6911 8.1596 32.8661C7.87673 33.5515 7.44154 34.9224 6.57117 35.0421C5.7008 35.1617 5.77696 34.411 5.89664 33.8779C6.15775 32.6159 8.85589 25.7291 10.7054 21.3446C11.0663 20.341 11.318 19.3014 11.4561 18.2439C11.4561 17.9502 12.0001 17.8414 12.1307 17.8196C12.4001 17.7869 12.673 17.8362 12.914 17.9611C13.2621 18.1134 13.2839 18.3092 13.3818 18.5703C13.4663 18.3446 13.6137 18.1478 13.8065 18.0032C13.9993 17.8587 14.2294 17.7723 14.4698 17.7543C14.9101 17.7091 15.355 17.7573 15.7753 17.8958C16.798 18.2113 16.983 19.4189 17.157 20.3328C17.3529 21.4208 17.7228 26.2948 17.8533 27.1108L18.0274 28.449C18.0274 28.449 21.9223 22.5305 23.032 20.7245C23.032 20.7245 25.8172 16.2856 27.0684 14.4361C27.6559 13.5766 28.6133 11.825 29.8427 11.825C30.0317 11.8266 30.2182 11.8693 30.3891 11.95C30.5601 12.0308 30.7114 12.1478 30.8327 12.2928C31.4637 13.0979 30.9633 15.1432 29.7448 20.409C29.092 23.2921 28.4392 26.4907 27.9061 29.7219C27.373 32.9532 27.4492 35.5099 27.9061 36.6414C28.0084 36.903 28.0055 37.1941 27.898 37.4537C27.7905 37.7132 27.5868 37.9212 27.3295 38.0339C27.2018 38.1205 27.0477 38.159 26.8943 38.1427" fill="#00ACBE"></path><path d="M37.9262 51.8184C37.2952 53.483 36.4793 55.9744 34.782 57.6172C34.5082 57.8645 34.1599 58.0137 33.792 58.0416C33.5853 58.0416 33.4656 57.9436 33.3568 57.6934C32.8455 56.5075 33.3568 54.6471 33.7158 53.4721L34.4883 51.1439C36.2323 47.2054 38.3107 43.4236 40.7005 39.84C40.7005 39.84 39.2862 48.2499 37.9371 51.8075M52.4723 24.2168C52.0814 24.2285 51.6952 24.3057 51.3299 24.4453C48.7079 26.0228 45.7378 29.4826 43.0723 33.149C43.4028 29.4633 43.5336 25.7625 43.464 22.0627C43.4593 21.8444 43.3784 21.6347 43.2353 21.4697C43.0923 21.3048 42.896 21.1951 42.6806 21.1597C42.5903 21.1483 42.4989 21.1483 42.4086 21.1597C42.2313 21.1595 42.0579 21.2122 41.9106 21.311C41.7633 21.4098 41.6488 21.5503 41.5818 21.7145C40.3415 24.2976 38.7965 26.7228 36.9797 28.9386C35.2063 31.0166 34.0313 31.3321 33.4874 31.3321C33.3922 31.3393 33.2966 31.3266 33.2067 31.2947C33.1168 31.2629 33.0345 31.2126 32.9651 31.1471C32.7802 30.886 32.4973 30.1789 32.6931 28.264C32.8993 26.6878 33.2009 25.1255 33.5962 23.5858V23.3573C33.6383 23.1323 33.6085 22.8997 33.5108 22.6927C33.4131 22.4856 33.2527 22.3146 33.0522 22.2041C32.9308 22.1561 32.8019 22.1303 32.6714 22.1279C32.5059 22.1287 32.3426 22.165 32.1924 22.2345C32.0422 22.3039 31.9087 22.4049 31.801 22.5305L30.1908 24.5976C30.0431 24.8171 29.9804 25.0828 30.0145 25.3451C30.0485 25.6074 30.177 25.8484 30.3758 26.0228C30.4719 26.102 30.5829 26.1612 30.7022 26.1969H30.9198V26.4254C30.8218 26.9585 30.7348 27.5134 30.6913 27.9703C30.4519 30.0048 30.6913 31.43 31.3767 32.3221C31.6226 32.6383 31.9404 32.8911 32.3038 33.0596C32.6671 33.228 33.0655 33.3071 33.4656 33.2904C35.0105 33.2904 36.7295 32.2025 38.4811 30.1462C39.4036 29.1059 40.2302 27.9844 40.9508 26.7953L41.4295 26.0011V26.9259C41.3207 30.4182 41.1248 33.4536 40.8202 36.3802C37.5346 41.3631 35.0649 45.8564 35.0649 45.8564L34.9996 45.9978C34.073 47.4339 33.2965 48.9615 32.6823 50.5564L31.9207 52.7867C31.1591 55.3978 31.0068 57.2365 31.4637 58.4115C31.6143 58.8499 31.8906 59.2344 32.2582 59.5169C32.6258 59.7993 33.0684 59.9673 33.5309 59.9999H33.8355C34.653 59.9842 35.4328 59.6528 36.0114 59.0751C37.6878 57.254 38.9171 55.0675 39.6017 52.6888C40.5684 50.0316 41.2966 47.2936 41.7776 44.5073C41.8973 43.7131 42.0061 42.9298 42.104 42.1356L42.1802 41.5589C42.1802 41.3631 42.1802 41.1781 42.2672 40.9823C42.3542 40.7865 42.648 38.0122 42.735 37.2724C43.1485 36.6522 43.5619 36.043 43.9753 35.4555C44.5737 34.5851 45.8792 32.7682 46.5973 31.7673C47.3153 30.7664 47.9355 29.983 48.4903 29.2758C50.1549 27.187 51.1994 26.4254 51.8521 26.2404H51.9718H52.1133C52.2057 26.2412 52.296 26.2676 52.3744 26.3166C52.4317 26.3823 52.4727 26.4606 52.494 26.5451C52.5378 26.7856 52.5597 27.0295 52.5593 27.274C52.5557 30.9535 51.7407 34.5869 50.1724 37.9154C48.604 41.244 46.3209 44.1856 43.4857 46.5309C43.4048 46.6039 43.3174 46.6695 43.2246 46.7268C42.6915 47.1184 41.6906 47.8147 42.3107 48.7068C42.4033 48.8357 42.5262 48.9397 42.6685 49.0099C42.8108 49.0801 42.9681 49.1143 43.1267 49.1094C43.4089 49.1079 43.6833 49.0164 43.91 48.8483C47.2571 46.3301 49.9705 43.0658 51.8347 39.3149C53.6988 35.564 54.6622 31.4299 54.6482 27.2414C54.6482 24.1624 52.7443 24.2168 52.5593 24.2168" fill="#00ACBE"></path><path d="M56.0734 7.16839C55.8329 6.95029 55.5291 6.81471 55.2061 6.78144C54.8832 6.74817 54.5581 6.81894 54.2782 6.98344L50.8511 8.86561L44.6171 5.79756C44.5622 5.7736 44.503 5.76123 44.4431 5.76123C44.3831 5.76123 44.3239 5.7736 44.269 5.79756L42.9417 6.51562C42.8438 6.51562 42.8438 6.65705 42.9417 6.72233L48.5664 10.2473L44.5301 12.6735L42.7785 11.8793C42.7217 11.855 42.6607 11.8425 42.599 11.8425C42.5373 11.8425 42.4762 11.855 42.4194 11.8793L41.8211 12.2165C41.8008 12.2293 41.7842 12.2469 41.7726 12.2679C41.7611 12.2888 41.755 12.3123 41.755 12.3362C41.755 12.3601 41.7611 12.3836 41.7726 12.4046C41.7842 12.4255 41.8008 12.4431 41.8211 12.4559L43.4095 14.0443C43.4941 14.1425 43.5571 14.2574 43.5944 14.3816L44.0949 16.5575C44.0983 16.581 44.1076 16.6033 44.1219 16.6223C44.1363 16.6413 44.1551 16.6564 44.1768 16.6662C44.1985 16.6759 44.2223 16.6801 44.246 16.6782C44.2698 16.6763 44.2926 16.6685 44.3125 16.6554L44.9218 16.3182C44.9747 16.2862 45.0204 16.2436 45.056 16.193C45.0916 16.1424 45.1163 16.085 45.1285 16.0244V15.611L45.259 14.6318L45.3243 14.1531L49.5782 12.1295L50.0134 18.2982C50.0141 18.3208 50.0207 18.3428 50.0325 18.362C50.0442 18.3813 50.0608 18.3972 50.0805 18.4081C50.1002 18.4191 50.1225 18.4248 50.145 18.4246C50.1676 18.4244 50.1897 18.4183 50.2092 18.407L51.5801 17.6781C51.6304 17.6455 51.6729 17.6023 51.7049 17.5516C51.7368 17.5009 51.7573 17.4438 51.765 17.3844L52.037 10.7695L55.3662 8.86561C55.6591 8.70203 55.8883 8.44442 56.0166 8.13445C56.1449 7.82447 56.1649 7.48027 56.0734 7.15751" fill="#00ACBE"></path><path d="M41.8863 14.6863L41.0704 15.1323L40.5046 15.3935L40.0042 15.6981L38.9924 16.2965L38.0132 16.9384C36.6883 17.806 35.4234 18.762 34.2271 19.7997L33.6831 20.2893C34.0129 20.3243 34.3235 20.4617 34.5713 20.6821C34.8191 20.9026 34.9917 21.1952 35.0648 21.5187L35.4674 21.04C36.4846 19.9141 37.5749 18.8565 38.7312 17.874L39.6125 17.1342L40.5046 16.4814L40.9616 16.1224L41.4294 15.7851L42.2127 15.2194C42.2127 15.1323 42.1583 15.0344 42.1366 14.9365L41.8863 14.6863Z" fill="url(#paint0_linear_28_445)"></path><path d="M91.2363 26.1318V37.0114C91.2409 37.0874 91.2296 37.1635 91.2029 37.2349C91.1763 37.3062 91.135 37.3711 91.0816 37.4255C91.0283 37.4798 90.9642 37.5224 90.8934 37.5504C90.8225 37.5784 90.7466 37.5912 90.6706 37.588H87.8201C87.7431 37.5928 87.666 37.5811 87.5939 37.5539C87.5218 37.5266 87.4563 37.4843 87.4018 37.4297C87.3472 37.3752 87.3049 37.3097 87.2776 37.2376C87.2504 37.1655 87.2387 37.0884 87.2435 37.0114V26.6975C87.2435 23.4989 85.568 22.1281 83.3595 22.1281C82.1569 22.0642 80.9766 22.4698 80.0673 23.2594C79.158 24.0489 78.5909 25.1607 78.4854 26.3603V36.9788C78.4902 37.0557 78.4785 37.1328 78.4512 37.2049C78.424 37.2771 78.3816 37.3426 78.3271 37.3971C78.2726 37.4516 78.2071 37.4939 78.135 37.5212C78.0628 37.5485 77.9857 37.5602 77.9088 37.5554H75.0583C74.9814 37.5602 74.9043 37.5485 74.8321 37.5212C74.76 37.4939 74.6945 37.4516 74.64 37.3971C74.5855 37.3426 74.5432 37.2771 74.5159 37.2049C74.4886 37.1328 74.4769 37.0557 74.4817 36.9788V26.6975C74.4817 23.4989 72.8498 22.1281 70.6412 22.1281C69.5034 22.1728 68.4113 22.5881 67.5314 23.3109C66.6515 24.0337 66.032 25.0243 65.7671 26.1318V37.0114C65.7719 37.0884 65.7603 37.1655 65.733 37.2376C65.7057 37.3097 65.6634 37.3752 65.6089 37.4297C65.5543 37.4843 65.4888 37.5266 65.4167 37.5539C65.3446 37.5811 65.2675 37.5928 65.1905 37.588H62.3401C62.2631 37.5928 62.186 37.5811 62.1139 37.5539C62.0417 37.5266 61.9762 37.4843 61.9217 37.4297C61.8672 37.3752 61.8249 37.3097 61.7976 37.2376C61.7703 37.1655 61.7587 37.0884 61.7634 37.0114V19.4626C61.7602 19.3865 61.7731 19.3106 61.8011 19.2398C61.8291 19.169 61.8716 19.1048 61.926 19.0515C61.9803 18.9982 62.0453 18.9569 62.1166 18.9302C62.1879 18.9036 62.264 18.8922 62.3401 18.8968H65.0382C65.1134 18.8954 65.1881 18.909 65.258 18.9367C65.3279 18.9645 65.3916 19.006 65.4453 19.0586C65.499 19.1113 65.5416 19.1742 65.5707 19.2435C65.5998 19.3129 65.6148 19.3874 65.6148 19.4626L65.7671 21.9758C66.3949 20.9165 67.2857 20.0374 68.3531 19.4237C69.4206 18.8099 70.6284 18.4823 71.8597 18.4725C73.0865 18.4256 74.2994 18.7452 75.3438 19.3904C76.3882 20.0357 77.2168 20.9774 77.7238 22.0954C78.4245 20.9563 79.4127 20.0217 80.5892 19.3857C81.7656 18.7498 83.0888 18.4348 84.4257 18.4725C88.462 18.4725 91.2363 21.138 91.2363 26.1318Z" fill="#00ACBE"></path><path d="M113.67 19.4626V36.9788C113.675 37.0558 113.663 37.1329 113.636 37.205C113.609 37.2771 113.566 37.3426 113.512 37.3971C113.457 37.4516 113.392 37.494 113.32 37.5212C113.248 37.5485 113.17 37.5602 113.094 37.5554H110.624C110.276 37.5554 110.091 37.3269 110.047 36.9788L109.862 34.8029C109.158 35.7489 108.237 36.5124 107.177 37.0292C106.117 37.5459 104.949 37.801 103.77 37.773C98.4713 37.773 94.6635 33.5082 94.6635 28.2207C94.6635 22.9332 98.4713 18.429 103.77 18.429C104.968 18.4112 106.152 18.6863 107.22 19.2305C108.287 19.7747 109.206 20.5714 109.895 21.5515L110.047 19.3756C110.047 19.3003 110.062 19.2259 110.091 19.1565C110.12 19.0872 110.163 19.0243 110.217 18.9716C110.27 18.919 110.334 18.8775 110.404 18.8497C110.474 18.8219 110.549 18.8084 110.624 18.8098H113.094C113.178 18.803 113.262 18.8159 113.341 18.8475C113.419 18.8791 113.489 18.9285 113.545 18.9919C113.601 19.0552 113.642 19.1308 113.663 19.2125C113.685 19.2942 113.687 19.3798 113.67 19.4626ZM109.786 28.2207C109.83 27.4473 109.718 26.673 109.456 25.944C109.194 25.215 108.788 24.5462 108.262 23.9775C107.736 23.4089 107.101 22.9521 106.395 22.6343C105.688 22.3166 104.925 22.1444 104.15 22.1281C100.887 22.1281 98.5148 24.7175 98.5148 28.2207C98.467 28.9902 98.5773 29.7614 98.8388 30.4867C99.1004 31.212 99.5078 31.876 100.036 32.4379C100.564 32.9997 101.201 33.4475 101.909 33.7536C102.617 34.0597 103.379 34.2176 104.15 34.2176C104.921 34.2176 105.684 34.0597 106.392 33.7536C107.1 33.4475 107.737 32.9997 108.265 32.4379C108.793 31.876 109.201 31.212 109.462 30.4867C109.724 29.7614 109.834 28.9902 109.786 28.2207Z" fill="#00ACBE"></path><path d="M118.653 9.74706H121.514C121.59 9.74387 121.666 9.75669 121.737 9.78469C121.808 9.81269 121.872 9.85524 121.925 9.90959C121.979 9.96394 122.02 10.0289 122.047 10.1002C122.073 10.1715 122.085 10.2477 122.08 10.3237V36.9787C122.085 37.0547 122.073 37.1309 122.047 37.2022C122.02 37.2735 121.979 37.3385 121.925 37.3928C121.872 37.4472 121.808 37.4897 121.737 37.5177C121.666 37.5457 121.59 37.5585 121.514 37.5554H118.653C118.577 37.5585 118.501 37.5457 118.43 37.5177C118.359 37.4897 118.295 37.4472 118.242 37.3928C118.189 37.3385 118.147 37.2735 118.121 37.2022C118.094 37.1309 118.083 37.0547 118.087 36.9787V10.3237C118.083 10.2477 118.094 10.1715 118.121 10.1002C118.147 10.0289 118.189 9.96394 118.242 9.90959C118.295 9.85524 118.359 9.81269 118.43 9.78469C118.501 9.75669 118.577 9.74387 118.653 9.74706Z" fill="#00ACBE"></path><path d="M144.514 10.3235V36.9786C144.519 37.0555 144.507 37.1326 144.48 37.2048C144.452 37.2769 144.41 37.3424 144.356 37.3969C144.301 37.4514 144.236 37.4937 144.163 37.521C144.091 37.5483 144.014 37.56 143.937 37.5552H141.468C141.119 37.5552 140.934 37.3267 140.891 36.9786L140.706 34.8026C140.002 35.7487 139.081 36.5121 138.021 37.0289C136.961 37.5457 135.792 37.8008 134.613 37.7728C129.315 37.7728 125.507 33.508 125.507 28.2205C125.507 22.933 129.315 18.4288 134.613 18.4288C135.75 18.4161 136.873 18.6669 137.897 19.1614C138.92 19.656 139.814 20.3809 140.51 21.2793V10.3235C140.505 10.2465 140.517 10.1694 140.544 10.0973C140.572 10.0252 140.614 9.9597 140.668 9.90518C140.723 9.85065 140.788 9.80834 140.861 9.78105C140.933 9.75376 141.01 9.74212 141.087 9.74689H143.937C144.014 9.74212 144.091 9.75376 144.163 9.78105C144.236 9.80834 144.301 9.85065 144.356 9.90518C144.41 9.9597 144.452 10.0252 144.48 10.0973C144.507 10.1694 144.519 10.2465 144.514 10.3235ZM140.597 28.2205C140.641 27.4471 140.529 26.6728 140.267 25.9438C140.005 25.2148 139.599 24.546 139.073 23.9773C138.547 23.4087 137.912 22.9519 137.206 22.6341C136.499 22.3163 135.736 22.1442 134.962 22.1279C131.698 22.1279 129.326 24.7172 129.326 28.2205C129.278 28.99 129.388 29.7612 129.65 30.4865C129.911 31.2118 130.319 31.8758 130.847 32.4377C131.375 32.9995 132.012 33.4473 132.72 33.7534C133.428 34.0594 134.191 34.2174 134.962 34.2174C135.733 34.2174 136.495 34.0594 137.203 33.7534C137.911 33.4473 138.548 32.9995 139.076 32.4377C139.604 31.8758 140.012 31.2118 140.273 30.4865C140.535 29.7612 140.645 28.99 140.597 28.2205Z" fill="#00ACBE"></path><path d="M148.659 12.5755C148.661 12.1207 148.798 11.6768 149.051 11.2994C149.305 10.922 149.665 10.6281 150.085 10.4545C150.506 10.281 150.968 10.2356 151.414 10.3241C151.86 10.4126 152.27 10.6309 152.592 10.9518C152.915 11.2726 153.135 11.6816 153.226 12.1272C153.316 12.5729 153.273 13.0354 153.101 13.4566C152.93 13.8778 152.638 14.2388 152.261 14.4944C151.885 14.7499 151.442 14.8886 150.987 14.8929C150.681 14.8988 150.376 14.8429 150.092 14.7287C149.807 14.6144 149.549 14.4441 149.332 14.2279C149.114 14.0117 148.943 13.754 148.827 13.4701C148.712 13.1862 148.654 12.882 148.659 12.5755ZM149.54 18.8966H152.391C152.467 18.8919 152.543 18.9033 152.614 18.93C152.685 18.9566 152.75 18.9979 152.805 19.0513C152.859 19.1046 152.902 19.1687 152.93 19.2395C152.958 19.3103 152.97 19.3862 152.967 19.4623V36.9785C152.972 37.0555 152.96 37.1326 152.933 37.2047C152.906 37.2768 152.864 37.3423 152.809 37.3968C152.754 37.4514 152.689 37.4937 152.617 37.521C152.545 37.5483 152.468 37.5599 152.391 37.5551H149.54C149.463 37.5599 149.386 37.5483 149.314 37.521C149.242 37.4937 149.176 37.4514 149.122 37.3968C149.067 37.3423 149.025 37.2768 148.998 37.2047C148.97 37.1326 148.959 37.0555 148.964 36.9785V19.4623C148.96 19.3862 148.973 19.3103 149.001 19.2395C149.029 19.1687 149.072 19.1046 149.126 19.0513C149.18 18.9979 149.245 18.9566 149.317 18.93C149.388 18.9033 149.464 18.8919 149.54 18.8966Z" fill="#00ACBE"></path><path d="M171.321 18.8969H174.215C174.629 18.8969 174.824 19.1253 174.672 19.5388L167.666 37.1529C167.613 37.2911 167.519 37.4095 167.396 37.4914C167.273 37.5734 167.128 37.6148 166.98 37.6098H164.043C163.895 37.6148 163.749 37.5734 163.627 37.4914C163.504 37.4095 163.409 37.2911 163.357 37.1529L156.383 19.5932C156.242 19.1797 156.383 18.9513 156.84 18.9513H159.734C159.883 18.9429 160.03 18.9829 160.153 19.0653C160.277 19.1477 160.37 19.2681 160.42 19.4082L165.533 32.9642L170.636 19.4082C170.677 19.2589 170.767 19.1275 170.891 19.0349C171.015 18.9423 171.166 18.8937 171.321 18.8969Z" fill="#00ACBE"></path><path d="M193.788 27.5787C193.788 28.9822 193.592 29.6676 192.569 29.6676H179.655C180.145 32.5616 182.353 34.4655 185.715 34.4655C187.355 34.5034 188.957 33.9644 190.241 32.9423C190.545 32.7139 190.774 32.6377 191.046 32.9423L192.264 34.1173C192.334 34.1678 192.391 34.234 192.43 34.3106C192.469 34.3872 192.489 34.472 192.489 34.558C192.489 34.644 192.469 34.7287 192.43 34.8053C192.391 34.8819 192.334 34.9482 192.264 34.9986C191.358 35.9128 190.278 36.6361 189.088 37.1257C187.898 37.6153 186.621 37.8613 185.334 37.8491C184.056 37.8837 182.784 37.657 181.597 37.1828C180.41 36.7086 179.332 35.9969 178.429 35.0913C177.527 34.1857 176.819 33.1053 176.348 31.9164C175.878 30.7274 175.656 29.455 175.695 28.1771C175.645 26.9314 175.847 25.6884 176.29 24.5228C176.732 23.3572 177.405 22.2929 178.268 21.3938C179.132 20.4946 180.168 19.7791 181.315 19.2902C182.462 18.8013 183.696 18.5491 184.942 18.5486C186.125 18.5286 187.3 18.7498 188.394 19.1989C189.489 19.648 190.48 20.3155 191.308 21.1606C192.136 22.0057 192.782 23.0107 193.209 24.1142C193.635 25.2177 193.832 26.3965 193.788 27.5787ZM179.644 26.8933H190.273C190.214 25.5494 189.631 24.2822 188.649 23.3631C187.666 22.444 186.363 21.9459 185.019 21.9757C183.659 21.9469 182.34 22.441 181.334 23.3559C180.328 24.2709 179.711 25.5371 179.611 26.8933H179.644Z" fill="#00ACBE"></path><path d="M210.042 32.4528C210.042 35.8363 206.582 37.8926 203.264 37.8926C201.936 37.8946 200.622 37.6178 199.407 37.0799C198.193 36.542 197.105 35.7551 196.214 34.7701C196.114 34.6684 196.058 34.5317 196.058 34.3893C196.058 34.2469 196.114 34.1102 196.214 34.0086L197.4 32.4419C197.628 32.1046 197.857 32.1808 198.194 32.4419C199.594 33.6213 201.33 34.3294 203.155 34.4655C204.83 34.4655 206.158 33.8127 206.158 32.2896C206.158 28.634 196.562 30.0375 196.562 23.7926C196.562 20.5287 199.456 18.3528 202.807 18.3528C203.982 18.3618 205.142 18.6172 206.212 19.1026C207.282 19.588 208.238 20.2925 209.019 21.1706C209.122 21.2796 209.179 21.4235 209.179 21.5732C209.179 21.7228 209.122 21.8667 209.019 21.9757L207.931 23.3792C207.703 23.6838 207.441 23.575 207.093 23.3792C206.012 22.3195 204.571 21.7058 203.057 21.6602C201.806 21.6602 200.424 22.313 200.424 23.76C200.435 27.459 210.042 25.7074 210.042 32.4528Z" fill="#00ACBE"></path></g><defs><linearGradient id="paint0_linear_28_445" x1="33.7266" y1="18.1025" x2="42.2345" y2="18.1025" gradientUnits="userSpaceOnUse"><stop stop-color="white" stop-opacity="0"></stop><stop offset="0.19" stop-color="#B5E7EC" stop-opacity="0.29"></stop><stop offset="0.38" stop-color="#75D2DC" stop-opacity="0.54"></stop><stop offset="0.57" stop-color="#42C2CF" stop-opacity="0.74"></stop><stop offset="0.74" stop-color="#1EB6C6" stop-opacity="0.88"></stop><stop offset="0.89" stop-color="#08AFC0" stop-opacity="0.97"></stop><stop offset="1" stop-color="#00ACBE"></stop></linearGradient><clipPath id="clip0_28_445"><rect width="210.042" height="60" fill="white"></rect></clipPath></defs></svg>