<svg xmlns="http://www.w3.org/2000/svg" width="254" height="60" viewBox="0 0 254 60" fill="none"><g clip-path="url(#clip0_28_459)"><path d="M29.3422 52.2645H29.2878C28.6567 52.2645 28.0366 52.3407 27.4382 52.3407C23.7537 52.3231 20.1183 51.4946 16.79 49.9139C13.4618 48.3332 10.5223 46.0391 8.18048 43.1945C5.83862 40.3499 4.15176 37.0247 3.23969 33.4548C2.32761 29.8849 2.21269 26.158 2.90309 22.5387C3.59348 18.9194 5.07226 15.4965 7.23441 12.5131C9.39655 9.5296 12.189 7.05877 15.4136 5.27601C18.6381 3.49325 22.2156 2.44229 25.8921 2.19776C29.5685 1.95323 33.2537 2.52112 36.6859 3.86112C37.2408 4.07871 38.7639 5.04699 39.3188 4.22014C40.0477 3.13218 38.6986 2.54468 38.1329 2.29445C34.4187 0.663805 30.3868 -0.115431 26.3324 0.0138101C22.2781 0.143051 18.304 1.1775 14.7012 3.04139C11.0984 4.90528 7.95812 7.55142 5.51032 10.786C3.06253 14.0206 1.36922 17.7618 0.554394 21.7355C-0.260429 25.7092 -0.176126 29.8148 0.801127 33.7517C1.77838 37.6887 3.62384 41.3571 6.20235 44.4885C8.78085 47.6199 12.0271 50.1349 15.7034 51.8494C19.3797 53.5638 23.3929 54.4342 27.4491 54.3969C28.0584 54.3969 28.6567 54.3969 29.2442 54.3099H29.3095C29.5507 54.3198 29.7913 54.2795 30.0161 54.1915C30.2408 54.1035 30.4448 53.9696 30.6151 53.7986C30.6929 53.7001 30.7479 53.5856 30.7761 53.4633C30.8043 53.341 30.8051 53.214 30.7783 53.0914C30.6151 52.1666 29.7991 52.2319 29.353 52.2645" fill="#00ACBE"></path><path d="M26.9487 38.0992C26.7406 38.0997 26.5367 38.0406 26.3612 37.9287C26.1858 37.8169 26.046 37.6571 25.9587 37.4682C25.2624 35.8689 25.208 33.3122 25.7737 29.3955C26.2959 26.1316 26.6985 23.4879 27.4492 20.4525C27.558 19.9955 27.917 18.777 27.5906 18.6138C27.2642 18.4506 26.7529 19.3101 26.5679 19.5604C26.383 19.8106 24.392 22.8242 24.392 22.8242C23.304 24.5976 22.2161 26.186 21.2913 27.4698C19.507 30.168 18.7455 30.8969 17.7663 30.8969C17.4367 30.8693 17.1205 30.7538 16.8507 30.5625C16.5809 30.3711 16.3673 30.1109 16.2323 29.809C16.0265 29.326 15.8874 28.8172 15.8188 28.2967C15.6448 27.2849 15.2313 22.2476 15.1117 21.4208C15.0246 20.8768 14.6112 20.2131 14.0237 20.5178C13.5444 20.8074 13.1649 21.2362 12.9357 21.7472C11.7499 24.2495 8.5839 31.6911 8.1596 32.8661C7.87673 33.5515 7.44154 34.9224 6.57117 35.0421C5.7008 35.1617 5.77696 34.411 5.89664 33.8779C6.15775 32.6159 8.85589 25.7291 10.7054 21.3446C11.0663 20.341 11.318 19.3014 11.4561 18.2439C11.4561 17.9502 12.0001 17.8414 12.1307 17.8196C12.4001 17.7869 12.673 17.8362 12.914 17.9611C13.2621 18.1134 13.2839 18.3092 13.3818 18.5703C13.4663 18.3446 13.6137 18.1478 13.8065 18.0032C13.9993 17.8587 14.2294 17.7723 14.4698 17.7543C14.9101 17.7091 15.3549 17.7573 15.7753 17.8958C16.798 18.2113 16.983 19.4189 17.157 20.3328C17.3529 21.4208 17.7228 26.2948 17.8533 27.1108L18.0274 28.449C18.0274 28.449 21.9223 22.5305 23.032 20.7245C23.032 20.7245 25.8172 16.2856 27.0684 14.4361C27.6559 13.5766 28.6133 11.825 29.8427 11.825C30.0317 11.8266 30.2182 11.8693 30.3891 11.95C30.5601 12.0308 30.7114 12.1478 30.8327 12.2928C31.4637 13.0979 30.9633 15.1432 29.7448 20.409C29.092 23.2921 28.4392 26.4907 27.9061 29.7219C27.373 32.9532 27.4492 35.5099 27.9061 36.6414C28.0084 36.903 28.0055 37.1941 27.898 37.4537C27.7905 37.7132 27.5868 37.9212 27.3295 38.0339C27.2018 38.1205 27.0477 38.159 26.8943 38.1427" fill="#00ACBE"></path><path d="M37.9262 51.8184C37.2952 53.483 36.4792 55.9744 34.782 57.6172C34.5081 57.8645 34.1598 58.0137 33.7919 58.0416C33.5852 58.0416 33.4655 57.9436 33.3567 57.6934C32.8454 56.5075 33.3567 54.6471 33.7158 53.4721L34.4882 51.1439C36.2323 47.2054 38.3106 43.4236 40.7005 39.84C40.7005 39.84 39.2861 48.2499 37.9371 51.8075M52.4722 24.2168C52.0813 24.2285 51.6952 24.3057 51.3299 24.4453C48.7079 26.0228 45.7377 29.4826 43.0722 33.149C43.4028 29.4633 43.5335 25.7625 43.4639 22.0627C43.4592 21.8444 43.3783 21.6347 43.2353 21.4697C43.0922 21.3048 42.896 21.1951 42.6806 21.1597C42.5903 21.1483 42.4989 21.1483 42.4086 21.1597C42.2312 21.1595 42.0578 21.2122 41.9105 21.311C41.7633 21.4098 41.6488 21.5503 41.5817 21.7145C40.3415 24.2976 38.7965 26.7228 36.9797 28.9386C35.2063 31.0166 34.0313 31.3321 33.4873 31.3321C33.3922 31.3393 33.2966 31.3266 33.2067 31.2947C33.1167 31.2629 33.0345 31.2126 32.9651 31.1471C32.7801 30.886 32.4973 30.1789 32.6931 28.264C32.8993 26.6878 33.2008 25.1255 33.5961 23.5858V23.3573C33.6383 23.1323 33.6084 22.8997 33.5108 22.6927C33.4131 22.4856 33.2526 22.3146 33.0521 22.2041C32.9308 22.1561 32.8018 22.1303 32.6713 22.1279C32.5059 22.1287 32.3425 22.165 32.1923 22.2345C32.0421 22.3039 31.9087 22.4049 31.801 22.5305L30.1908 24.5976C30.0431 24.8171 29.9804 25.0828 30.0144 25.3451C30.0485 25.6074 30.1769 25.8484 30.3757 26.0228C30.4719 26.102 30.5828 26.1612 30.7021 26.1969H30.9197V26.4254C30.8218 26.9585 30.7348 27.5134 30.6912 27.9703C30.4519 30.0048 30.6912 31.43 31.3767 32.3221C31.6225 32.6383 31.9403 32.8911 32.3037 33.0596C32.667 33.228 33.0654 33.3071 33.4655 33.2904C35.0104 33.2904 36.7294 32.2025 38.481 30.1462C39.4035 29.1059 40.2301 27.9844 40.9507 26.7953L41.4294 26.0011V26.9259C41.3206 30.4182 41.1248 33.4536 40.8202 36.3802C37.5345 41.3631 35.0648 45.8564 35.0648 45.8564L34.9996 45.9978C34.0729 47.4339 33.2964 48.9615 32.6822 50.5564L31.9206 52.7867C31.1591 55.3978 31.0067 57.2365 31.4637 58.4115C31.6142 58.8499 31.8905 59.2344 32.2581 59.5169C32.6257 59.7993 33.0684 59.9673 33.5308 59.9999H33.8354C34.653 59.9842 35.4327 59.6528 36.0114 59.0751C37.6878 57.254 38.917 55.0675 39.6016 52.6888C40.5683 50.0316 41.2965 47.2936 41.7776 44.5073C41.8972 43.7131 42.006 42.9298 42.104 42.1356L42.1801 41.5589C42.1801 41.3631 42.1801 41.1781 42.2671 40.9823C42.3542 40.7865 42.6479 38.0122 42.735 37.2724C43.1484 36.6522 43.5618 36.043 43.9752 35.4555C44.5736 34.5851 45.8792 32.7682 46.5972 31.7673C47.3153 30.7664 47.9354 29.983 48.4903 29.2758C50.1549 27.187 51.1993 26.4254 51.8521 26.2404H51.9718H52.1132C52.2056 26.2412 52.296 26.2676 52.3743 26.3166C52.4316 26.3823 52.4726 26.4606 52.494 26.5451C52.5378 26.7856 52.5596 27.0295 52.5593 27.274C52.5557 30.9535 51.7407 34.5869 50.1723 37.9154C48.604 41.244 46.3209 44.1856 43.4857 46.5309C43.4047 46.6039 43.3173 46.6695 43.2246 46.7268C42.6915 47.1184 41.6905 47.8147 42.3107 48.7068C42.4033 48.8357 42.5261 48.9397 42.6684 49.0099C42.8107 49.0801 42.9681 49.1143 43.1266 49.1094C43.4089 49.1079 43.6833 49.0164 43.91 48.8483C47.257 46.3301 49.9705 43.0658 51.8346 39.3149C53.6987 35.564 54.6621 31.4299 54.6481 27.2414C54.6481 24.1624 52.7442 24.2168 52.5593 24.2168" fill="#00ACBE"></path><path d="M56.0735 7.16839C55.833 6.95029 55.5292 6.81471 55.2063 6.78144C54.8833 6.74817 54.5582 6.81894 54.2783 6.98344L50.8513 8.86561L44.6172 5.79756C44.5623 5.7736 44.5031 5.76123 44.4432 5.76123C44.3833 5.76123 44.324 5.7736 44.2691 5.79756L42.9418 6.51562C42.8439 6.51562 42.8439 6.65705 42.9418 6.72233L48.5665 10.2473L44.5302 12.6735L42.7786 11.8793C42.7219 11.855 42.6608 11.8425 42.5991 11.8425C42.5374 11.8425 42.4763 11.855 42.4196 11.8793L41.8212 12.2165C41.801 12.2293 41.7843 12.2469 41.7727 12.2679C41.7612 12.2888 41.7551 12.3123 41.7551 12.3362C41.7551 12.3601 41.7612 12.3836 41.7727 12.4046C41.7843 12.4255 41.801 12.4431 41.8212 12.4559L43.4096 14.0443C43.4942 14.1425 43.5572 14.2574 43.5946 14.3816L44.095 16.5575C44.0984 16.581 44.1077 16.6033 44.1221 16.6223C44.1364 16.6413 44.1553 16.6564 44.177 16.6662C44.1986 16.6759 44.2225 16.6801 44.2462 16.6782C44.2699 16.6763 44.2927 16.6685 44.3126 16.6554L44.9219 16.3182C44.9748 16.2862 45.0205 16.2436 45.0561 16.193C45.0917 16.1424 45.1164 16.085 45.1286 16.0244V15.611L45.2591 14.6318L45.3244 14.1531L49.5784 12.1295L50.0135 18.2982C50.0143 18.3208 50.0208 18.3428 50.0326 18.362C50.0443 18.3813 50.0609 18.3972 50.0806 18.4081C50.1003 18.4191 50.1226 18.4248 50.1451 18.4246C50.1677 18.4244 50.1898 18.4183 50.2094 18.407L51.5802 17.6781C51.6305 17.6455 51.6731 17.6023 51.705 17.5516C51.7369 17.5009 51.7575 17.4438 51.7652 17.3844L52.0371 10.7695L55.3663 8.86561C55.6592 8.70203 55.8884 8.44442 56.0167 8.13445C56.145 7.82447 56.165 7.48027 56.0735 7.15751" fill="#00ACBE"></path><path d="M41.8863 14.6863L41.0704 15.1323L40.5046 15.3935L40.0042 15.6981L38.9924 16.2965L38.0132 16.9384C36.6883 17.806 35.4234 18.762 34.2271 19.7997L33.6831 20.2893C34.0129 20.3243 34.3235 20.4617 34.5713 20.6821C34.8191 20.9026 34.9917 21.1952 35.0648 21.5187L35.4674 21.04C36.4846 19.9141 37.5749 18.8565 38.7312 17.874L39.6125 17.1342L40.5046 16.4814L40.9616 16.1224L41.4294 15.7851L42.2127 15.2194C42.2127 15.1323 42.1583 15.0344 42.1366 14.9365L41.8863 14.6863Z" fill="url(#paint0_linear_28_459)"></path><path d="M80.0847 20.039V44.8445C80.0895 44.9172 80.0788 44.9901 80.0531 45.0583C80.0275 45.1264 79.9876 45.1884 79.9361 45.2399C79.8846 45.2914 79.8227 45.3313 79.7545 45.3569C79.6863 45.3826 79.6134 45.3933 79.5408 45.3885H76.6033C76.5306 45.3933 76.4577 45.3826 76.3895 45.3569C76.3214 45.3313 76.2594 45.2914 76.2079 45.2399C76.1564 45.1884 76.1165 45.1264 76.0909 45.0583C76.0652 44.9901 76.0545 44.9172 76.0593 44.8445V35.7057C75.3579 36.5835 74.4621 37.2862 73.4425 37.7583C72.4228 38.2303 71.3074 38.4588 70.1843 38.4256C64.8533 38.4256 61.0454 34.1825 61.0454 28.8515C61.0454 23.5205 64.8533 19.0599 70.1843 19.0599C71.3813 19.0424 72.564 19.3214 73.627 19.8719C74.69 20.4224 75.6004 21.2273 76.2769 22.2149L76.3857 20.039C76.3809 19.9663 76.3916 19.8935 76.4173 19.8253C76.4429 19.7571 76.4828 19.6952 76.5343 19.6437C76.5858 19.5922 76.6477 19.5523 76.7159 19.5266C76.7841 19.501 76.857 19.4902 76.9297 19.495H79.432C79.8671 19.495 80.0847 19.7453 80.0847 20.039ZM76.1681 28.8515C76.1681 25.4788 73.8834 22.7589 70.5107 22.7589C69.733 22.7677 68.9652 22.9347 68.2541 23.2496C67.5429 23.5645 66.9033 24.0208 66.374 24.5907C65.8448 25.1606 65.4371 25.8323 65.1756 26.5648C64.9142 27.2973 64.8045 28.0753 64.8533 28.8515C64.8151 29.62 64.9328 30.3882 65.1995 31.11C65.4661 31.8317 65.876 32.492 66.4046 33.0511C66.9332 33.6102 67.5695 34.0565 68.2752 34.3631C68.9808 34.6698 69.7413 34.8304 70.5107 34.8353C71.2828 34.8397 72.0476 34.6855 72.7577 34.3821C73.4677 34.0787 74.1079 33.6326 74.6383 33.0715C75.1688 32.5104 75.5783 31.8463 75.8415 31.1204C76.1046 30.3944 76.2158 29.6222 76.1681 28.8515Z" fill="#00ACBE"></path><path d="M100.647 20.0387V37.5549C100.652 37.6276 100.641 37.7005 100.616 37.7687C100.59 37.8368 100.55 37.8987 100.499 37.9503C100.447 38.0018 100.385 38.0417 100.317 38.0673C100.249 38.0929 100.176 38.1037 100.103 38.0989H97.3833C97.3106 38.1037 97.2377 38.0929 97.1696 38.0673C97.1014 38.0417 97.0395 38.0018 96.988 37.9503C96.9364 37.8987 96.8965 37.8368 96.8709 37.7687C96.8453 37.7005 96.8345 37.6276 96.8393 37.5549L96.7305 35.379C96.1191 36.3619 95.2709 37.1758 94.2635 37.746C93.2561 38.3162 92.1217 38.6246 90.9643 38.6429C86.7213 38.6429 84.0014 35.923 84.0014 30.9184V20.0387C83.9966 19.9661 84.0073 19.8932 84.033 19.825C84.0586 19.7568 84.0985 19.6949 84.15 19.6434C84.2015 19.5919 84.2634 19.552 84.3316 19.5264C84.3998 19.5007 84.4727 19.49 84.5453 19.4948H87.374C87.4467 19.49 87.5196 19.5007 87.5878 19.5264C87.6559 19.552 87.7179 19.5919 87.7694 19.6434C87.8209 19.6949 87.8608 19.7568 87.8864 19.825C87.912 19.8932 87.9228 19.9661 87.918 20.0387V30.3744C87.918 33.6383 89.6588 35.0526 91.8347 35.0526C92.9798 35.0561 94.0891 34.6536 94.9655 33.9167C95.8419 33.1797 96.4287 32.1559 96.6217 31.0272V20.0387C96.6169 19.9661 96.6277 19.8932 96.6533 19.825C96.6789 19.7568 96.7189 19.6949 96.7704 19.6434C96.8219 19.5919 96.8838 19.552 96.952 19.5264C97.0201 19.5007 97.093 19.49 97.1657 19.4948H99.9944C100.43 19.4948 100.647 19.745 100.647 20.0387Z" fill="#00ACBE"></path><path d="M122.189 28.1986C122.189 29.613 121.971 30.2658 120.992 30.2658H108.045C108.589 33.2033 110.765 35.0528 114.138 35.0528C115.793 35.101 117.412 34.5614 118.707 33.5297C119.034 33.3121 119.251 33.2033 119.469 33.5297L120.666 34.7264C120.992 35.0528 120.992 35.2704 120.666 35.5968C118.809 37.4212 116.306 38.438 113.703 38.4255C112.422 38.4599 111.147 38.233 109.957 37.7586C108.767 37.2842 107.685 36.5722 106.779 35.6661C105.873 34.76 105.161 33.6788 104.687 32.4885C104.212 31.2981 103.985 30.0236 104.02 28.7426C103.975 27.4955 104.18 26.2519 104.623 25.0853C105.067 23.9187 105.739 22.8527 106.601 21.9502C107.463 21.0477 108.497 20.327 109.642 19.8305C110.787 19.3341 112.02 19.072 113.268 19.0598C114.46 19.0519 115.641 19.2845 116.742 19.7438C117.842 20.203 118.838 20.8795 119.671 21.7326C120.504 22.5858 121.156 23.5981 121.589 24.7091C122.021 25.8201 122.225 27.0069 122.189 28.1986ZM108.045 27.5459H118.707C118.587 26.2151 117.973 24.9775 116.987 24.0762C116 23.175 114.713 22.6752 113.376 22.6752C112.04 22.6752 110.752 23.175 109.766 24.0762C108.779 24.9775 108.166 26.2151 108.045 27.5459Z" fill="#00ACBE"></path><path d="M142.969 28.1987C142.969 29.613 142.751 30.2658 141.772 30.2658H128.825C129.369 33.2033 131.545 35.0528 134.918 35.0528C136.573 35.1011 138.192 34.5615 139.487 33.5297C139.814 33.3121 140.031 33.2033 140.249 33.5297L141.446 34.7265C141.772 35.0529 141.772 35.2704 141.446 35.5968C139.589 37.4213 137.086 38.438 134.483 38.4255C133.202 38.46 131.927 38.2331 130.737 37.7587C129.546 37.2843 128.465 36.5723 127.559 35.6662C126.653 34.7601 125.941 33.6789 125.467 32.4885C124.992 31.2982 124.765 30.0236 124.8 28.7427C124.755 27.4955 124.96 26.2519 125.403 25.0853C125.846 23.9187 126.519 22.8527 127.381 21.9502C128.243 21.0477 129.277 20.327 130.422 19.8306C131.567 19.3341 132.8 19.0721 134.047 19.0598C135.237 19.0609 136.415 19.2997 137.511 19.7621C138.607 20.2245 139.6 20.9012 140.431 21.7525C141.262 22.6038 141.914 23.6126 142.35 24.7195C142.786 25.8265 142.996 27.0093 142.969 28.1987ZM128.825 27.5459H139.509C139.389 26.2152 138.775 24.9776 137.789 24.0763C136.802 23.175 135.514 22.6753 134.178 22.6753C132.842 22.6753 131.554 23.175 130.568 24.0763C129.581 24.9776 128.967 26.2152 128.847 27.5459H128.825Z" fill="#00ACBE"></path><path d="M163.096 26.7843V37.664C163.101 37.7366 163.09 37.8095 163.065 37.8777C163.039 37.9459 162.999 38.0078 162.948 38.0593C162.896 38.1108 162.834 38.1507 162.766 38.1763C162.698 38.202 162.625 38.2127 162.552 38.2079H159.724C159.651 38.2127 159.578 38.202 159.51 38.1763C159.442 38.1507 159.38 38.1108 159.328 38.0593C159.277 38.0078 159.237 37.9459 159.211 37.8777C159.186 37.8095 159.175 37.7366 159.18 37.664V27.361C159.18 24.2059 157.548 22.7915 155.372 22.7915C154.225 22.8255 153.122 23.2392 152.236 23.9678C151.35 24.6964 150.731 25.6985 150.476 26.817V37.6966C150.481 37.7693 150.47 37.8421 150.444 37.9103C150.419 37.9785 150.379 38.0404 150.327 38.0919C150.276 38.1434 150.214 38.1833 150.146 38.209C150.077 38.2346 150.005 38.2454 149.932 38.2406H147.125C147.052 38.2454 146.979 38.2346 146.911 38.209C146.843 38.1833 146.781 38.1434 146.73 38.0919C146.678 38.0404 146.638 37.9785 146.613 37.9103C146.587 37.8421 146.576 37.7693 146.581 37.6966V20.039C146.576 19.9663 146.587 19.8934 146.613 19.8253C146.638 19.7571 146.678 19.6952 146.73 19.6437C146.781 19.5921 146.843 19.5522 146.911 19.5266C146.979 19.501 147.052 19.4902 147.125 19.495H149.845C149.918 19.4902 149.99 19.501 150.059 19.5266C150.127 19.5522 150.189 19.5921 150.24 19.6437C150.292 19.6952 150.332 19.7571 150.357 19.8253C150.383 19.8934 150.394 19.9663 150.389 20.039L150.498 22.5413C151.127 21.4854 152.019 20.61 153.086 20.0001C154.154 19.3901 155.361 19.0662 156.59 19.0598C160.268 19.0598 163.096 21.7797 163.096 26.7843Z" fill="#00ACBE"></path><path d="M180.286 33.0945C180.286 36.4672 176.805 38.5343 173.541 38.5343C172.204 38.5508 170.88 38.2773 169.659 37.7326C168.438 37.1879 167.35 36.385 166.469 35.3792C166.417 35.3304 166.375 35.2714 166.347 35.2059C166.319 35.1404 166.304 35.0698 166.304 34.9985C166.304 34.9271 166.319 34.8565 166.347 34.791C166.375 34.7255 166.417 34.6665 166.469 34.6177L167.666 33.0945C167.883 32.7681 168.101 32.8769 168.427 33.0945C169.833 34.2981 171.586 35.0222 173.432 35.1616C175.064 35.1616 176.478 34.5089 176.478 32.9857C176.478 29.2867 166.904 30.701 166.904 24.4996C166.904 21.2357 169.842 19.0598 173.105 19.0598C174.281 19.0649 175.441 19.3197 176.51 19.8074C177.579 20.295 178.533 21.0044 179.307 21.8885C179.524 22.1061 179.416 22.4325 179.307 22.6501L178.219 24.0644C178.001 24.3908 177.675 24.282 177.349 24.0644C176.286 22.9806 174.841 22.3557 173.323 22.3237C172.018 22.3237 170.712 22.9765 170.712 24.3908C170.712 28.0899 180.286 26.3492 180.286 33.0945Z" fill="#00ACBE"></path><path d="M184.203 10.3561H187.031C187.104 10.3513 187.177 10.3621 187.245 10.3877C187.313 10.4133 187.375 10.4532 187.427 10.5047C187.478 10.5563 187.518 10.6182 187.544 10.6863C187.569 10.7545 187.58 10.8274 187.575 10.9001V37.5551C187.58 37.6278 187.569 37.7007 187.544 37.7689C187.518 37.837 187.478 37.899 187.427 37.9505C187.375 38.002 187.313 38.0419 187.245 38.0675C187.177 38.0931 187.104 38.1039 187.031 38.0991H184.203C184.13 38.1039 184.057 38.0931 183.989 38.0675C183.921 38.0419 183.859 38.002 183.807 37.9505C183.756 37.899 183.716 37.837 183.69 37.7689C183.665 37.7007 183.654 37.6278 183.659 37.5551V10.9001C183.654 10.8274 183.665 10.7545 183.69 10.6863C183.716 10.6182 183.756 10.5563 183.807 10.5047C183.859 10.4532 183.921 10.4133 183.989 10.3877C184.057 10.3621 184.13 10.3513 184.203 10.3561Z" fill="#00ACBE"></path><path d="M209.987 20.0392V37.5554C209.992 37.628 209.981 37.7009 209.956 37.7691C209.93 37.8373 209.89 37.8992 209.839 37.9507C209.787 38.0022 209.725 38.0421 209.657 38.0677C209.589 38.0934 209.516 38.1041 209.443 38.0993H206.963C206.89 38.1041 206.817 38.0934 206.749 38.0677C206.681 38.0421 206.619 38.0022 206.568 37.9507C206.516 37.8992 206.476 37.8373 206.451 37.7691C206.425 37.7009 206.414 37.628 206.419 37.5554L206.201 35.3794C205.485 36.3103 204.561 37.0608 203.503 37.5709C202.446 38.0809 201.283 38.3364 200.109 38.3169C194.778 38.3169 190.97 34.0739 190.97 28.7429C190.97 23.4119 194.778 18.9512 200.109 18.9512C201.306 18.9338 202.488 19.2127 203.551 19.7632C204.614 20.3137 205.525 21.1187 206.201 22.1063L206.31 19.9304C206.305 19.8577 206.316 19.7848 206.342 19.7166C206.367 19.6485 206.407 19.5866 206.459 19.535C206.51 19.4835 206.572 19.4436 206.64 19.418C206.709 19.3924 206.781 19.3816 206.854 19.3864H209.356C209.777 19.4952 209.987 19.7128 209.987 20.0392ZM206.18 28.8517C206.18 25.479 203.895 22.7591 200.522 22.7591C199.744 22.7679 198.977 22.9348 198.266 23.2497C197.554 23.5646 196.915 24.0209 196.386 24.5909C195.856 25.1608 195.449 25.8324 195.187 26.5649C194.926 27.2974 194.816 28.0754 194.865 28.8517C194.817 29.6241 194.928 30.3982 195.19 31.1262C195.453 31.8542 195.862 32.5207 196.392 33.0847C196.922 33.6486 197.562 34.098 198.272 34.4053C198.982 34.7125 199.748 34.871 200.522 34.871C201.296 34.871 202.062 34.7125 202.772 34.4053C203.483 34.098 204.122 33.6486 204.652 33.0847C205.183 32.5207 205.591 31.8542 205.854 31.1262C206.117 30.3982 206.227 29.6241 206.18 28.8517Z" fill="#00ACBE"></path><path d="M230.767 26.7843V37.664C230.772 37.7366 230.761 37.8095 230.736 37.8777C230.71 37.9459 230.67 38.0078 230.619 38.0593C230.567 38.1108 230.505 38.1507 230.437 38.1763C230.369 38.202 230.296 38.2127 230.223 38.2079H227.395C227.322 38.2127 227.249 38.202 227.181 38.1763C227.113 38.1507 227.051 38.1108 226.999 38.0593C226.948 38.0078 226.908 37.9459 226.882 37.8777C226.857 37.8095 226.846 37.7366 226.851 37.664V27.361C226.851 24.2059 225.219 22.7915 223.043 22.7915C221.896 22.8255 220.793 23.2392 219.907 23.9678C219.021 24.6964 218.402 25.6985 218.147 26.817V37.6966C218.152 37.7693 218.141 37.8421 218.115 37.9103C218.09 37.9785 218.05 38.0404 217.998 38.0919C217.947 38.1434 217.885 38.1833 217.817 38.209C217.749 38.2346 217.676 38.2454 217.603 38.2406H214.774C214.702 38.2454 214.629 38.2346 214.561 38.209C214.492 38.1833 214.431 38.1434 214.379 38.0919C214.328 38.0404 214.288 37.9785 214.262 37.9103C214.236 37.8421 214.226 37.7693 214.23 37.6966V20.039C214.226 19.9663 214.236 19.8934 214.262 19.8253C214.288 19.7571 214.328 19.6952 214.379 19.6437C214.431 19.5921 214.492 19.5522 214.561 19.5266C214.629 19.501 214.702 19.4902 214.774 19.495H217.494C217.567 19.4902 217.64 19.501 217.708 19.5266C217.776 19.5522 217.838 19.5921 217.89 19.6437C217.941 19.6952 217.981 19.7571 218.007 19.8253C218.032 19.8934 218.043 19.9663 218.038 20.039L218.147 22.5413C218.777 21.4854 219.668 20.61 220.736 20.0001C221.803 19.3901 223.01 19.0662 224.24 19.0598C228.047 19.0598 230.767 21.7797 230.767 26.7843Z" fill="#00ACBE"></path><path d="M253.288 10.9001V37.5551C253.293 37.6278 253.282 37.7007 253.256 37.7689C253.231 37.837 253.191 37.899 253.139 37.9505C253.088 38.002 253.026 38.0419 252.958 38.0675C252.89 38.0931 252.817 38.1039 252.744 38.0991H250.242C250.169 38.1039 250.096 38.0931 250.028 38.0675C249.96 38.0419 249.898 38.002 249.846 37.9505C249.795 37.899 249.755 37.837 249.729 37.7689C249.704 37.7007 249.693 37.6278 249.698 37.5551L249.48 35.3792C248.764 36.3101 247.84 37.0606 246.782 37.5707C245.724 38.0807 244.562 38.3362 243.388 38.3167C238.057 38.3167 234.249 34.0737 234.249 28.7426C234.249 23.4116 238.057 18.951 243.388 18.951C244.521 18.9245 245.644 19.1671 246.665 19.6588C247.687 20.1505 248.577 20.8774 249.263 21.7797V10.9001C249.258 10.8274 249.269 10.7545 249.294 10.6863C249.32 10.6182 249.36 10.5563 249.411 10.5047C249.463 10.4532 249.525 10.4133 249.593 10.3877C249.661 10.3621 249.734 10.3513 249.807 10.3561H252.657C253.071 10.3561 253.288 10.5737 253.288 10.9001ZM249.393 28.8514C249.393 25.4788 247.108 22.7589 243.736 22.7589C242.958 22.7677 242.19 22.9346 241.479 23.2495C240.768 23.5644 240.128 24.0207 239.599 24.5906C239.07 25.1606 238.662 25.8322 238.401 26.5647C238.139 27.2972 238.03 28.0752 238.078 28.8514C238.04 29.6199 238.158 30.3881 238.425 31.1099C238.691 31.8316 239.101 32.4919 239.63 33.051C240.158 33.6101 240.795 34.0564 241.5 34.3631C242.206 34.6697 242.966 34.8303 243.736 34.8352C244.508 34.8397 245.273 34.6854 245.983 34.382C246.693 34.0786 247.333 33.6325 247.863 33.0714C248.394 32.5104 248.803 31.8462 249.067 31.1203C249.33 30.3944 249.441 29.6221 249.393 28.8514Z" fill="#00ACBE"></path></g><defs><linearGradient id="paint0_linear_28_459" x1="33.7266" y1="18.1025" x2="42.2345" y2="18.1025" gradientUnits="userSpaceOnUse"><stop stop-color="white" stop-opacity="0"></stop><stop offset="0.19" stop-color="#B5E7EC" stop-opacity="0.29"></stop><stop offset="0.38" stop-color="#75D2DC" stop-opacity="0.54"></stop><stop offset="0.57" stop-color="#42C2CF" stop-opacity="0.74"></stop><stop offset="0.74" stop-color="#1EB6C6" stop-opacity="0.88"></stop><stop offset="0.89" stop-color="#08AFC0" stop-opacity="0.97"></stop><stop offset="1" stop-color="#00ACBE"></stop></linearGradient><clipPath id="clip0_28_459"><rect width="253.289" height="60" fill="white"></rect></clipPath></defs></svg>