<svg xmlns="http://www.w3.org/2000/svg" width="198" height="60" viewBox="0 0 198 60" fill="none"><g clip-path="url(#clip0_28_494)"><path d="M29.3422 52.2645H29.2878C28.6567 52.2645 28.0366 52.3407 27.4382 52.3407C23.7537 52.3231 20.1183 51.4946 16.79 49.9139C13.4618 48.3332 10.5223 46.0391 8.18048 43.1945C5.83862 40.3499 4.15176 37.0247 3.23969 33.4548C2.32761 29.8849 2.21269 26.158 2.90309 22.5387C3.59348 18.9194 5.07226 15.4965 7.23441 12.5131C9.39655 9.5296 12.189 7.05877 15.4136 5.27601C18.6381 3.49325 22.2156 2.44229 25.8921 2.19776C29.5685 1.95323 33.2537 2.52112 36.6859 3.86112C37.2408 4.07871 38.7639 5.04699 39.3188 4.22014C40.0477 3.13218 38.6986 2.54468 38.1329 2.29445C34.4187 0.663805 30.3868 -0.115431 26.3324 0.0138101C22.2781 0.143051 18.304 1.1775 14.7012 3.04139C11.0984 4.90528 7.95812 7.55142 5.51032 10.786C3.06253 14.0206 1.36922 17.7618 0.554394 21.7355C-0.260429 25.7092 -0.176126 29.8148 0.801127 33.7517C1.77838 37.6887 3.62384 41.3571 6.20235 44.4885C8.78085 47.6199 12.0271 50.1349 15.7034 51.8494C19.3797 53.5638 23.3929 54.4342 27.4491 54.3969C28.0584 54.3969 28.6567 54.3969 29.2442 54.3099H29.3095C29.5507 54.3198 29.7913 54.2795 30.0161 54.1915C30.2408 54.1035 30.4448 53.9696 30.6151 53.7986C30.6929 53.7001 30.7479 53.5856 30.7761 53.4633C30.8043 53.341 30.8051 53.214 30.7783 53.0914C30.6151 52.1666 29.7991 52.2319 29.353 52.2645" fill="#00ACBE"></path><path d="M26.9487 38.0992C26.7406 38.0997 26.5367 38.0406 26.3612 37.9287C26.1858 37.8169 26.046 37.6571 25.9587 37.4682C25.2624 35.8689 25.208 33.3122 25.7737 29.3955C26.2959 26.1316 26.6985 23.4879 27.4492 20.4525C27.558 19.9955 27.917 18.777 27.5906 18.6138C27.2642 18.4506 26.7529 19.3101 26.5679 19.5604C26.383 19.8106 24.392 22.8242 24.392 22.8242C23.304 24.5976 22.2161 26.186 21.2913 27.4698C19.507 30.168 18.7455 30.8969 17.7663 30.8969C17.4367 30.8693 17.1205 30.7538 16.8507 30.5625C16.5809 30.3711 16.3673 30.1109 16.2323 29.809C16.0265 29.326 15.8874 28.8172 15.8188 28.2967C15.6448 27.2849 15.2313 22.2476 15.1117 21.4208C15.0246 20.8768 14.6112 20.2131 14.0237 20.5178C13.5444 20.8074 13.1649 21.2362 12.9357 21.7472C11.7499 24.2495 8.5839 31.6911 8.1596 32.8661C7.87673 33.5515 7.44154 34.9224 6.57117 35.0421C5.7008 35.1617 5.77696 34.411 5.89664 33.8779C6.15775 32.6159 8.85589 25.7291 10.7054 21.3446C11.0663 20.341 11.318 19.3014 11.4561 18.2439C11.4561 17.9502 12.0001 17.8414 12.1307 17.8196C12.4001 17.7869 12.673 17.8362 12.914 17.9611C13.2621 18.1134 13.2839 18.3092 13.3818 18.5703C13.4663 18.3446 13.6137 18.1478 13.8065 18.0032C13.9993 17.8587 14.2294 17.7723 14.4698 17.7543C14.9101 17.7091 15.3549 17.7573 15.7753 17.8958C16.798 18.2113 16.983 19.4189 17.157 20.3328C17.3529 21.4208 17.7228 26.2948 17.8533 27.1108L18.0274 28.449C18.0274 28.449 21.9223 22.5305 23.032 20.7245C23.032 20.7245 25.8172 16.2856 27.0684 14.4361C27.6559 13.5766 28.6133 11.825 29.8427 11.825C30.0317 11.8266 30.2182 11.8693 30.3891 11.95C30.5601 12.0308 30.7114 12.1478 30.8327 12.2928C31.4637 13.0979 30.9633 15.1432 29.7448 20.409C29.092 23.2921 28.4392 26.4907 27.9061 29.7219C27.373 32.9532 27.4492 35.5099 27.9061 36.6414C28.0084 36.903 28.0055 37.1941 27.898 37.4537C27.7905 37.7132 27.5868 37.9212 27.3295 38.0339C27.2018 38.1205 27.0477 38.159 26.8943 38.1427" fill="#00ACBE"></path><path d="M37.9262 51.8184C37.2952 53.483 36.4793 55.9744 34.782 57.6172C34.5082 57.8645 34.1599 58.0137 33.792 58.0416C33.5853 58.0416 33.4656 57.9436 33.3568 57.6934C32.8455 56.5075 33.3568 54.6471 33.7158 53.4721L34.4883 51.1439C36.2323 47.2054 38.3107 43.4236 40.7005 39.84C40.7005 39.84 39.2862 48.2499 37.9371 51.8075M52.4723 24.2168C52.0814 24.2285 51.6952 24.3057 51.3299 24.4453C48.7079 26.0228 45.7378 29.4826 43.0723 33.149C43.4028 29.4633 43.5336 25.7625 43.464 22.0627C43.4593 21.8444 43.3784 21.6347 43.2353 21.4697C43.0923 21.3048 42.896 21.1951 42.6806 21.1597C42.5903 21.1483 42.4989 21.1483 42.4086 21.1597C42.2313 21.1595 42.0579 21.2122 41.9106 21.311C41.7633 21.4098 41.6488 21.5503 41.5818 21.7145C40.3415 24.2976 38.7965 26.7228 36.9797 28.9386C35.2063 31.0166 34.0313 31.3321 33.4874 31.3321C33.3922 31.3393 33.2966 31.3266 33.2067 31.2947C33.1168 31.2629 33.0345 31.2126 32.9651 31.1471C32.7802 30.886 32.4973 30.1789 32.6931 28.264C32.8993 26.6878 33.2009 25.1255 33.5962 23.5858V23.3573C33.6383 23.1323 33.6085 22.8997 33.5108 22.6927C33.4131 22.4856 33.2527 22.3146 33.0522 22.2041C32.9308 22.1561 32.8019 22.1303 32.6714 22.1279C32.5059 22.1287 32.3426 22.165 32.1924 22.2345C32.0422 22.3039 31.9087 22.4049 31.801 22.5305L30.1908 24.5976C30.0431 24.8171 29.9804 25.0828 30.0145 25.3451C30.0485 25.6074 30.177 25.8484 30.3758 26.0228C30.4719 26.102 30.5829 26.1612 30.7022 26.1969H30.9198V26.4254C30.8218 26.9585 30.7348 27.5134 30.6913 27.9703C30.4519 30.0048 30.6913 31.43 31.3767 32.3221C31.6226 32.6383 31.9404 32.8911 32.3038 33.0596C32.6671 33.228 33.0655 33.3071 33.4656 33.2904C35.0105 33.2904 36.7295 32.2025 38.4811 30.1462C39.4036 29.1059 40.2302 27.9844 40.9508 26.7953L41.4295 26.0011V26.9259C41.3207 30.4182 41.1248 33.4536 40.8202 36.3802C37.5346 41.3631 35.0649 45.8564 35.0649 45.8564L34.9996 45.9978C34.073 47.4339 33.2965 48.9615 32.6823 50.5564L31.9207 52.7867C31.1591 55.3978 31.0068 57.2365 31.4637 58.4115C31.6143 58.8499 31.8906 59.2344 32.2582 59.5169C32.6258 59.7993 33.0684 59.9673 33.5309 59.9999H33.8355C34.653 59.9842 35.4328 59.6528 36.0114 59.0751C37.6878 57.254 38.9171 55.0675 39.6017 52.6888C40.5684 50.0316 41.2966 47.2936 41.7776 44.5073C41.8973 43.7131 42.0061 42.9298 42.104 42.1356L42.1802 41.5589C42.1802 41.3631 42.1802 41.1781 42.2672 40.9823C42.3542 40.7865 42.648 38.0122 42.735 37.2724C43.1485 36.6522 43.5619 36.043 43.9753 35.4555C44.5737 34.5851 45.8792 32.7682 46.5973 31.7673C47.3153 30.7664 47.9355 29.983 48.4903 29.2758C50.1549 27.187 51.1994 26.4254 51.8521 26.2404H51.9718H52.1133C52.2057 26.2412 52.296 26.2676 52.3744 26.3166C52.4317 26.3823 52.4727 26.4606 52.494 26.5451C52.5378 26.7856 52.5597 27.0295 52.5593 27.274C52.5557 30.9535 51.7407 34.5869 50.1724 37.9154C48.604 41.244 46.3209 44.1856 43.4857 46.5309C43.4048 46.6039 43.3174 46.6695 43.2246 46.7268C42.6915 47.1184 41.6906 47.8147 42.3107 48.7068C42.4033 48.8357 42.5262 48.9397 42.6685 49.0099C42.8108 49.0801 42.9681 49.1143 43.1267 49.1094C43.4089 49.1079 43.6833 49.0164 43.91 48.8483C47.2571 46.3301 49.9705 43.0658 51.8347 39.3149C53.6988 35.564 54.6622 31.4299 54.6482 27.2414C54.6482 24.1624 52.7443 24.2168 52.5593 24.2168" fill="#00ACBE"></path><path d="M56.0734 7.16839C55.8329 6.95029 55.5291 6.81471 55.2061 6.78144C54.8832 6.74817 54.5581 6.81894 54.2782 6.98344L50.8511 8.86561L44.6171 5.79756C44.5622 5.7736 44.503 5.76123 44.4431 5.76123C44.3831 5.76123 44.3239 5.7736 44.269 5.79756L42.9417 6.51562C42.8438 6.51562 42.8438 6.65705 42.9417 6.72233L48.5664 10.2473L44.5301 12.6735L42.7785 11.8793C42.7217 11.855 42.6607 11.8425 42.599 11.8425C42.5373 11.8425 42.4762 11.855 42.4194 11.8793L41.8211 12.2165C41.8008 12.2293 41.7842 12.2469 41.7726 12.2679C41.7611 12.2888 41.755 12.3123 41.755 12.3362C41.755 12.3601 41.7611 12.3836 41.7726 12.4046C41.7842 12.4255 41.8008 12.4431 41.8211 12.4559L43.4095 14.0443C43.4941 14.1425 43.5571 14.2574 43.5944 14.3816L44.0949 16.5575C44.0983 16.581 44.1076 16.6033 44.1219 16.6223C44.1363 16.6413 44.1551 16.6564 44.1768 16.6662C44.1985 16.6759 44.2223 16.6801 44.246 16.6782C44.2698 16.6763 44.2926 16.6685 44.3125 16.6554L44.9218 16.3182C44.9747 16.2862 45.0204 16.2436 45.056 16.193C45.0916 16.1424 45.1163 16.085 45.1285 16.0244V15.611L45.259 14.6318L45.3243 14.1531L49.5782 12.1295L50.0134 18.2982C50.0141 18.3208 50.0207 18.3428 50.0325 18.362C50.0442 18.3813 50.0608 18.3972 50.0805 18.4081C50.1002 18.4191 50.1225 18.4248 50.145 18.4246C50.1676 18.4244 50.1897 18.4183 50.2092 18.407L51.5801 17.6781C51.6304 17.6455 51.6729 17.6023 51.7049 17.5516C51.7368 17.5009 51.7573 17.4438 51.765 17.3844L52.037 10.7695L55.3662 8.86561C55.6591 8.70203 55.8883 8.44442 56.0166 8.13445C56.1449 7.82447 56.1649 7.48027 56.0734 7.15751" fill="#00ACBE"></path><path d="M42.4195 14.6973L41.5926 15.1433L41.0813 15.4262L40.5808 15.7199L39.569 16.3292L38.5898 16.9711C37.2686 17.8351 36.0074 18.7874 34.8146 19.8216L34.2706 20.322C34.59 20.3588 34.8901 20.4936 35.1298 20.7079C35.3694 20.9222 35.5367 21.2055 35.6088 21.5188L36.0114 21.0401C37.0313 19.9169 38.1215 18.8594 39.2753 17.8741C39.569 17.6348 39.8519 17.3845 40.1565 17.1452L41.0595 16.438L41.5165 16.079L41.9843 15.7417L42.7676 15.176C42.7322 15.0838 42.7031 14.9893 42.6806 14.8931L42.4195 14.6973Z" fill="url(#paint0_linear_28_494)"></path><path d="M72.0555 19.3537V21.5296C72.0603 21.6051 72.0489 21.6808 72.0222 21.7516C71.9955 21.8224 71.9539 21.8867 71.9004 21.9403C71.8469 21.9938 71.7826 22.0353 71.7118 22.062C71.641 22.0888 71.5653 22.1001 71.4898 22.0953H68.4435V36.8699C68.4483 36.9468 68.4366 37.0239 68.4093 37.096C68.382 37.1682 68.3397 37.2337 68.2852 37.2882C68.2307 37.3427 68.1652 37.385 68.093 37.4123C68.0209 37.4396 67.9438 37.4512 67.8669 37.4465H65.0055C64.9285 37.4512 64.8514 37.4396 64.7793 37.4123C64.7072 37.385 64.6417 37.3427 64.5872 37.2882C64.5327 37.2337 64.4903 37.1682 64.4631 37.096C64.4358 37.0239 64.4241 36.9468 64.4289 36.8699V22.0953H61.3826C61.3071 22.1001 61.2314 22.0888 61.1606 22.062C61.0898 22.0353 61.0255 21.9938 60.9719 21.9403C60.9184 21.8867 60.8769 21.8224 60.8502 21.7516C60.8234 21.6808 60.8121 21.6051 60.8169 21.5296V19.3537C60.8121 19.2781 60.8234 19.2024 60.8502 19.1316C60.8769 19.0608 60.9184 18.9965 60.9719 18.943C61.0255 18.8895 61.0898 18.848 61.1606 18.8212C61.2314 18.7945 61.3071 18.7831 61.3826 18.7879H64.4398V13.6419C64.435 13.5649 64.4466 13.4878 64.4739 13.4157C64.5012 13.3436 64.5435 13.2781 64.5981 13.2235C64.6526 13.169 64.7181 13.1267 64.7902 13.0994C64.8623 13.0721 64.9394 13.0605 65.0164 13.0653H67.8669C67.9438 13.0605 68.0209 13.0721 68.093 13.0994C68.1652 13.1267 68.2307 13.169 68.2852 13.2235C68.3397 13.2781 68.382 13.3436 68.4093 13.4157C68.4366 13.4878 68.4483 13.5649 68.4435 13.6419V18.7879H71.4898C71.5653 18.7831 71.641 18.7945 71.7118 18.8212C71.7826 18.848 71.8469 18.8895 71.9004 18.943C71.9539 18.9965 71.9955 19.0608 72.0222 19.1316C72.0489 19.2024 72.0603 19.2781 72.0555 19.3537Z" fill="#00ACBE"></path><path d="M91.813 26.023V36.9026C91.8178 36.9795 91.8061 37.0566 91.7788 37.1288C91.7515 37.2009 91.7092 37.2664 91.6547 37.3209C91.6002 37.3754 91.5347 37.4177 91.4625 37.445C91.3904 37.4723 91.3133 37.484 91.2364 37.4792H88.375C88.2981 37.484 88.221 37.4723 88.1488 37.445C88.0767 37.4177 88.0112 37.3754 87.9567 37.3209C87.9022 37.2664 87.8598 37.2009 87.8326 37.1288C87.8053 37.0566 87.7936 36.9795 87.7984 36.9026V26.5887C87.7984 23.3901 86.1665 22.0193 83.9579 22.0193C82.8201 22.0639 81.728 22.4793 80.8481 23.2021C79.9682 23.9249 79.3486 24.9155 79.0838 26.023V36.9026C79.0886 36.9795 79.077 37.0566 79.0497 37.1288C79.0224 37.2009 78.9801 37.2664 78.9255 37.3209C78.871 37.3754 78.8055 37.4177 78.7334 37.445C78.6613 37.4723 78.5842 37.484 78.5072 37.4792H75.6676C75.5907 37.484 75.5136 37.4723 75.4414 37.445C75.3693 37.4177 75.3038 37.3754 75.2493 37.3209C75.1948 37.2664 75.1525 37.2009 75.1252 37.1288C75.0979 37.0566 75.0862 36.9795 75.091 36.9026V10.2149C75.0862 10.1379 75.0979 10.0608 75.1252 9.98868C75.1525 9.91656 75.1948 9.85106 75.2493 9.79654C75.3038 9.74201 75.3693 9.6997 75.4414 9.67241C75.5136 9.64512 75.5907 9.63348 75.6676 9.63825H78.5181C78.5951 9.63348 78.6722 9.64512 78.7443 9.67241C78.8164 9.6997 78.8819 9.74201 78.9364 9.79654C78.991 9.85106 79.0333 9.91656 79.0606 9.98868C79.0878 10.0608 79.0995 10.1379 79.0947 10.2149V21.9213C79.7225 20.8621 80.6133 19.983 81.6807 19.3692C82.7481 18.7554 83.956 18.4278 85.1873 18.4181C89.0278 18.3637 91.813 21.0292 91.813 26.023Z" fill="#00ACBE"></path><path d="M114.279 19.3538V36.87C114.284 36.9469 114.272 37.024 114.245 37.0961C114.218 37.1683 114.176 37.2338 114.121 37.2883C114.066 37.3428 114.001 37.3851 113.929 37.4124C113.857 37.4397 113.78 37.4514 113.703 37.4466H111.222C110.874 37.4466 110.689 37.2181 110.645 36.87L110.461 34.694C109.756 35.6401 108.836 36.4035 107.776 36.9203C106.716 37.4371 105.547 37.6922 104.368 37.6642C99.0696 37.6642 95.2617 33.3994 95.2617 28.1119C95.2617 22.8244 99.0696 18.3202 104.368 18.3202C105.567 18.3045 106.751 18.5817 107.819 19.1277C108.886 19.6738 109.804 20.4722 110.493 21.4535L110.645 19.2776C110.645 19.2024 110.66 19.1279 110.69 19.0586C110.719 18.9892 110.761 18.9264 110.815 18.8737C110.869 18.821 110.932 18.7796 111.002 18.7518C111.072 18.724 111.147 18.7104 111.222 18.7119H113.692C113.776 18.7037 113.861 18.7151 113.939 18.7454C114.018 18.7756 114.089 18.8237 114.146 18.886C114.203 18.9483 114.245 19.023 114.268 19.1042C114.291 19.1853 114.295 19.2708 114.279 19.3538ZM110.395 28.0575C110.439 27.2841 110.327 26.5098 110.065 25.7808C109.803 25.0518 109.397 24.383 108.871 23.8143C108.345 23.2457 107.71 22.7888 107.004 22.4711C106.297 22.1533 105.534 21.9812 104.76 21.9649C101.496 21.9649 99.124 24.5542 99.124 28.0575C99.0761 28.827 99.1864 29.5982 99.448 30.3235C99.7096 31.0488 100.117 31.7128 100.645 32.2747C101.173 32.8365 101.81 33.2843 102.518 33.5904C103.226 33.8964 103.989 34.0543 104.76 34.0543C105.531 34.0543 106.293 33.8964 107.001 33.5904C107.709 33.2843 108.346 32.8365 108.874 32.2747C109.402 31.7128 109.81 31.0488 110.071 30.3235C110.333 29.5982 110.443 28.827 110.395 28.0575Z" fill="#00ACBE"></path><path d="M118.696 12.4561C118.701 12.0013 118.839 11.558 119.095 11.1818C119.351 10.8056 119.712 10.5134 120.133 10.3418C120.554 10.1702 121.016 10.127 121.462 10.2176C121.908 10.3081 122.317 10.5284 122.638 10.8508C122.958 11.1731 123.177 11.5831 123.265 12.0292C123.354 12.4753 123.308 12.9376 123.135 13.3579C122.961 13.7783 122.667 14.138 122.29 14.3918C121.913 14.6456 121.469 14.7822 121.014 14.7843C120.707 14.7903 120.402 14.7341 120.117 14.619C119.833 14.504 119.575 14.3325 119.358 14.115C119.141 13.8974 118.971 13.6383 118.858 13.3532C118.744 13.0681 118.689 12.7629 118.696 12.4561ZM119.567 18.788H122.428C122.504 18.7832 122.579 18.7946 122.65 18.8213C122.721 18.8481 122.785 18.8896 122.839 18.9431C122.892 18.9966 122.934 19.0609 122.961 19.1317C122.987 19.2025 122.999 19.2782 122.994 19.3538V36.8699C122.999 36.9459 122.987 37.0221 122.961 37.0934C122.934 37.1647 122.893 37.2297 122.839 37.284C122.786 37.3384 122.722 37.3809 122.651 37.4089C122.58 37.4369 122.504 37.4497 122.428 37.4466H119.567C119.491 37.4497 119.415 37.4369 119.344 37.4089C119.273 37.3809 119.209 37.3384 119.156 37.284C119.102 37.2297 119.061 37.1647 119.034 37.0934C119.008 37.0221 118.996 36.9459 119.001 36.8699V19.3538C118.996 19.2782 119.008 19.2025 119.034 19.1317C119.061 19.0609 119.103 18.9966 119.156 18.9431C119.21 18.8896 119.274 18.8481 119.345 18.8213C119.416 18.7946 119.491 18.7832 119.567 18.788Z" fill="#00ACBE"></path><path d="M128.173 9.63793H131.034C131.11 9.63474 131.186 9.64756 131.257 9.67556C131.328 9.70356 131.392 9.74611 131.445 9.80046C131.498 9.85481 131.54 9.91976 131.566 9.99109C131.593 10.0624 131.604 10.1385 131.6 10.2145V36.8696C131.604 36.9456 131.593 37.0217 131.566 37.0931C131.54 37.1644 131.498 37.2293 131.445 37.2837C131.392 37.3381 131.328 37.3806 131.257 37.4086C131.186 37.4366 131.11 37.4494 131.034 37.4462H128.173C128.097 37.4494 128.021 37.4366 127.95 37.4086C127.879 37.3806 127.815 37.3381 127.762 37.2837C127.708 37.2293 127.667 37.1644 127.64 37.0931C127.614 37.0217 127.602 36.9456 127.607 36.8696V10.2145C127.602 10.1385 127.614 10.0624 127.64 9.99109C127.667 9.91976 127.708 9.85481 127.762 9.80046C127.815 9.74611 127.879 9.70356 127.95 9.67556C128.021 9.64756 128.097 9.63474 128.173 9.63793Z" fill="#00ACBE"></path><path d="M154.033 19.3538V36.87C154.038 36.9469 154.027 37.024 153.999 37.0961C153.972 37.1683 153.93 37.2338 153.875 37.2883C153.821 37.3428 153.755 37.3851 153.683 37.4124C153.611 37.4397 153.534 37.4514 153.457 37.4466H150.987C150.639 37.4466 150.454 37.2181 150.411 36.87L150.226 34.694C149.521 35.6401 148.601 36.4035 147.541 36.9203C146.481 37.4371 145.312 37.6922 144.133 37.6642C138.835 37.6642 135.027 33.3994 135.027 28.1119C135.027 22.8244 138.835 18.3202 144.133 18.3202C145.332 18.3045 146.516 18.5817 147.584 19.1277C148.651 19.6738 149.569 20.4722 150.258 21.4535L150.411 19.2776C150.41 19.2024 150.425 19.1279 150.455 19.0586C150.484 18.9892 150.526 18.9264 150.58 18.8737C150.634 18.821 150.697 18.7796 150.767 18.7518C150.837 18.724 150.912 18.7104 150.987 18.7119H153.457C153.54 18.7055 153.623 18.7183 153.701 18.7493C153.778 18.7803 153.848 18.8287 153.903 18.8907C153.959 18.9528 154 19.0268 154.022 19.1071C154.045 19.1874 154.049 19.2718 154.033 19.3538ZM150.149 28.0575C150.193 27.2841 150.081 26.5098 149.819 25.7808C149.558 25.0518 149.151 24.383 148.625 23.8143C148.099 23.2457 147.464 22.7888 146.758 22.4711C146.051 22.1533 145.288 21.9812 144.514 21.9649C141.25 21.9649 138.878 24.5542 138.878 28.0575C138.83 28.827 138.941 29.5982 139.202 30.3235C139.464 31.0488 139.871 31.7128 140.399 32.2747C140.927 32.8365 141.565 33.2843 142.272 33.5904C142.98 33.8964 143.743 34.0543 144.514 34.0543C145.285 34.0543 146.048 33.8964 146.755 33.5904C147.463 33.2843 148.1 32.8365 148.628 32.2747C149.156 31.7128 149.564 31.0488 149.825 30.3235C150.087 29.5982 150.197 28.827 150.149 28.0575Z" fill="#00ACBE"></path><path d="M174.781 26.023V36.9026C174.786 36.9786 174.774 37.0548 174.747 37.1261C174.721 37.1974 174.68 37.2624 174.626 37.3167C174.573 37.3711 174.509 37.4136 174.438 37.4416C174.367 37.4696 174.291 37.4824 174.215 37.4793H171.354C171.278 37.4824 171.202 37.4696 171.131 37.4416C171.06 37.4136 170.996 37.3711 170.943 37.3167C170.889 37.2624 170.848 37.1974 170.821 37.1261C170.795 37.0548 170.783 36.9786 170.788 36.9026V26.5888C170.788 23.3902 169.145 22.0193 166.937 22.0193C165.8 22.0675 164.71 22.4842 163.83 23.2064C162.951 23.9286 162.331 24.9172 162.063 26.023V36.9026C162.067 36.9796 162.056 37.0567 162.028 37.1288C162.001 37.2009 161.959 37.2664 161.904 37.321C161.85 37.3755 161.784 37.4178 161.712 37.4451C161.64 37.4724 161.563 37.484 161.486 37.4793H158.636C158.559 37.484 158.481 37.4724 158.409 37.4451C158.337 37.4178 158.272 37.3755 158.217 37.321C158.163 37.2664 158.12 37.2009 158.093 37.1288C158.066 37.0567 158.054 36.9796 158.059 36.9026V19.3538C158.056 19.2777 158.069 19.2018 158.097 19.131C158.125 19.0602 158.167 18.9961 158.221 18.9427C158.276 18.8894 158.341 18.8481 158.412 18.8215C158.483 18.7948 158.56 18.7834 158.636 18.7881H161.345C161.419 18.7866 161.493 18.8002 161.563 18.8281C161.632 18.856 161.695 18.8976 161.748 18.9505C161.801 19.0033 161.842 19.0663 161.87 19.1356C161.898 19.2049 161.912 19.2791 161.91 19.3538L162.063 21.867C162.691 20.8085 163.582 19.93 164.649 19.3163C165.717 18.7026 166.924 18.3745 168.155 18.3638C172.007 18.3638 174.781 21.0293 174.781 26.023Z" fill="#00ACBE"></path><path d="M197.247 10.2145V36.8696C197.252 36.9456 197.24 37.0217 197.214 37.0931C197.187 37.1644 197.146 37.2293 197.092 37.2837C197.039 37.338 196.975 37.3806 196.904 37.4086C196.833 37.4366 196.758 37.4494 196.681 37.4462H194.201C194.125 37.4478 194.05 37.4338 193.98 37.4053C193.91 37.3767 193.846 37.3341 193.793 37.2801C193.74 37.2261 193.699 37.1618 193.672 37.0912C193.645 37.0206 193.632 36.9452 193.635 36.8696L193.439 34.6937C192.736 35.6404 191.815 36.4043 190.755 36.9212C189.695 37.4381 188.526 37.6928 187.347 37.6638C182.059 37.6638 178.24 33.399 178.24 28.1115C178.24 22.824 182.059 18.3199 187.347 18.3199C188.486 18.3076 189.612 18.5596 190.637 19.056C191.662 19.5525 192.558 20.28 193.254 21.1812V10.2145C193.25 10.1385 193.261 10.0624 193.288 9.99109C193.314 9.91976 193.356 9.85481 193.409 9.80046C193.462 9.74611 193.526 9.70356 193.597 9.67556C193.668 9.64756 193.744 9.63474 193.82 9.63793H196.681C196.758 9.63474 196.833 9.64756 196.904 9.67556C196.975 9.70356 197.039 9.74611 197.092 9.80046C197.146 9.85481 197.187 9.91976 197.214 9.99109C197.24 10.0624 197.252 10.1385 197.247 10.2145ZM193.363 28.1115C193.409 27.3378 193.298 26.5629 193.036 25.8332C192.775 25.1035 192.369 24.4341 191.843 23.8651C191.316 23.2961 190.681 22.8393 189.974 22.5221C189.266 22.2048 188.502 22.0337 187.728 22.0189C184.464 22.0189 182.092 24.6083 182.092 28.1115C182.044 28.8811 182.154 29.6522 182.416 30.3775C182.677 31.1028 183.085 31.7669 183.613 32.3287C184.141 32.8906 184.778 33.3383 185.486 33.6444C186.194 33.9505 186.956 34.1084 187.728 34.1084C188.499 34.1084 189.261 33.9505 189.969 33.6444C190.677 33.3383 191.314 32.8906 191.842 32.3287C192.37 31.7669 192.778 31.1028 193.039 30.3775C193.301 29.6522 193.411 28.8811 193.363 28.1115Z" fill="#00ACBE"></path></g><defs><linearGradient id="paint0_linear_28_494" x1="34.2706" y1="18.1026" x2="42.7676" y2="18.1026" gradientUnits="userSpaceOnUse"><stop stop-color="white" stop-opacity="0"></stop><stop offset="0.19" stop-color="#B5E7EC" stop-opacity="0.29"></stop><stop offset="0.38" stop-color="#75D2DC" stop-opacity="0.54"></stop><stop offset="0.57" stop-color="#42C2CF" stop-opacity="0.74"></stop><stop offset="0.74" stop-color="#1EB6C6" stop-opacity="0.88"></stop><stop offset="0.89" stop-color="#08AFC0" stop-opacity="0.97"></stop><stop offset="1" stop-color="#00ACBE"></stop></linearGradient><clipPath id="clip0_28_494"><rect width="197.248" height="60" fill="white"></rect></clipPath></defs></svg>