<svg xmlns="http://www.w3.org/2000/svg" width="197" height="60" viewBox="0 0 197 60" fill="none"><g clip-path="url(#clip0_28_412)"><path d="M29.3422 52.2645H29.2878C28.6567 52.2645 28.0366 52.3407 27.4382 52.3407C23.7537 52.3231 20.1183 51.4946 16.79 49.9139C13.4618 48.3332 10.5223 46.0391 8.18048 43.1945C5.83862 40.3499 4.15176 37.0247 3.23969 33.4548C2.32761 29.8849 2.21269 26.158 2.90309 22.5387C3.59348 18.9194 5.07226 15.4965 7.23441 12.5131C9.39655 9.5296 12.189 7.05877 15.4136 5.27601C18.6381 3.49325 22.2156 2.44229 25.8921 2.19776C29.5685 1.95323 33.2537 2.52112 36.6859 3.86112C37.2408 4.07871 38.7639 5.04699 39.3188 4.22014C40.0477 3.13218 38.6986 2.54468 38.1329 2.29445C34.4187 0.663805 30.3868 -0.115431 26.3324 0.0138101C22.2781 0.143051 18.304 1.1775 14.7012 3.04139C11.0984 4.90528 7.95812 7.55142 5.51032 10.786C3.06253 14.0206 1.36922 17.7618 0.554394 21.7355C-0.260429 25.7092 -0.176126 29.8148 0.801127 33.7517C1.77838 37.6887 3.62384 41.3571 6.20235 44.4885C8.78085 47.6199 12.0271 50.1349 15.7034 51.8494C19.3797 53.5638 23.3929 54.4342 27.4491 54.3969C28.0584 54.3969 28.6567 54.3969 29.2442 54.3099H29.3095C29.5507 54.3198 29.7913 54.2795 30.0161 54.1915C30.2408 54.1035 30.4448 53.9696 30.6151 53.7986C30.6929 53.7001 30.7479 53.5856 30.7761 53.4633C30.8043 53.341 30.8051 53.214 30.7783 53.0914C30.6151 52.1666 29.7991 52.2319 29.353 52.2645" fill="#00ACBE"></path><path d="M26.9487 38.0992C26.7406 38.0997 26.5367 38.0406 26.3612 37.9287C26.1858 37.8169 26.046 37.6571 25.9587 37.4682C25.2624 35.8689 25.208 33.3122 25.7737 29.3955C26.2959 26.1316 26.6985 23.4879 27.4492 20.4525C27.558 19.9955 27.917 18.777 27.5906 18.6138C27.2642 18.4506 26.7529 19.3101 26.5679 19.5604C26.383 19.8106 24.392 22.8242 24.392 22.8242C23.304 24.5976 22.2161 26.186 21.2913 27.4698C19.507 30.168 18.7455 30.8969 17.7663 30.8969C17.4367 30.8693 17.1205 30.7538 16.8507 30.5625C16.5809 30.3711 16.3673 30.1109 16.2323 29.809C16.0265 29.326 15.8874 28.8172 15.8188 28.2967C15.6448 27.2849 15.2313 22.2476 15.1117 21.4208C15.0246 20.8768 14.6112 20.2131 14.0237 20.5178C13.5444 20.8074 13.1649 21.2362 12.9357 21.7472C11.7499 24.2495 8.5839 31.6911 8.1596 32.8661C7.87673 33.5515 7.44154 34.9224 6.57117 35.0421C5.7008 35.1617 5.77696 34.411 5.89664 33.8779C6.15775 32.6159 8.85589 25.7291 10.7054 21.3446C11.0663 20.341 11.318 19.3014 11.4561 18.2439C11.4561 17.9502 12.0001 17.8414 12.1307 17.8196C12.4001 17.7869 12.673 17.8362 12.914 17.9611C13.2621 18.1134 13.2839 18.3092 13.3818 18.5703C13.4663 18.3446 13.6137 18.1478 13.8065 18.0032C13.9993 17.8587 14.2294 17.7723 14.4698 17.7543C14.9101 17.7091 15.3549 17.7573 15.7753 17.8958C16.798 18.2113 16.983 19.4189 17.157 20.3328C17.3529 21.4208 17.7228 26.2948 17.8533 27.1108L18.0274 28.449C18.0274 28.449 21.9223 22.5305 23.032 20.7245C23.032 20.7245 25.8172 16.2856 27.0684 14.4361C27.6559 13.5766 28.6133 11.825 29.8427 11.825C30.0317 11.8266 30.2182 11.8693 30.3891 11.95C30.5601 12.0308 30.7114 12.1478 30.8327 12.2928C31.4637 13.0979 30.9633 15.1432 29.7448 20.409C29.092 23.2921 28.4392 26.4907 27.9061 29.7219C27.373 32.9532 27.4492 35.5099 27.9061 36.6414C28.0084 36.903 28.0055 37.1941 27.898 37.4537C27.7905 37.7132 27.5868 37.9212 27.3295 38.0339C27.2018 38.1205 27.0477 38.159 26.8943 38.1427" fill="#00ACBE"></path><path d="M37.9262 51.8184C37.2952 53.483 36.4792 55.9744 34.782 57.6172C34.5081 57.8645 34.1598 58.0137 33.7919 58.0416C33.5852 58.0416 33.4655 57.9436 33.3567 57.6934C32.8454 56.5075 33.3567 54.6471 33.7158 53.4721L34.4882 51.1439C36.2323 47.2054 38.3106 43.4236 40.7005 39.84C40.7005 39.84 39.2861 48.2499 37.9371 51.8075M52.4722 24.2168C52.0813 24.2285 51.6952 24.3057 51.3299 24.4453C48.7079 26.0228 45.7377 29.4826 43.0722 33.149C43.4028 29.4633 43.5335 25.7625 43.4639 22.0627C43.4592 21.8444 43.3783 21.6347 43.2353 21.4697C43.0922 21.3048 42.896 21.1951 42.6806 21.1597C42.5903 21.1483 42.4989 21.1483 42.4086 21.1597C42.2312 21.1595 42.0578 21.2122 41.9105 21.311C41.7633 21.4098 41.6488 21.5503 41.5817 21.7145C40.3415 24.2976 38.7965 26.7228 36.9797 28.9386C35.2063 31.0166 34.0313 31.3321 33.4873 31.3321C33.3922 31.3393 33.2966 31.3266 33.2067 31.2947C33.1167 31.2629 33.0345 31.2126 32.9651 31.1471C32.7801 30.886 32.4973 30.1789 32.6931 28.264C32.8993 26.6878 33.2008 25.1255 33.5961 23.5858V23.3573C33.6383 23.1323 33.6084 22.8997 33.5108 22.6927C33.4131 22.4856 33.2526 22.3146 33.0521 22.2041C32.9308 22.1561 32.8018 22.1303 32.6713 22.1279C32.5059 22.1287 32.3425 22.165 32.1923 22.2345C32.0421 22.3039 31.9087 22.4049 31.801 22.5305L30.1908 24.5976C30.0431 24.8171 29.9804 25.0828 30.0144 25.3451C30.0485 25.6074 30.1769 25.8484 30.3757 26.0228C30.4719 26.102 30.5828 26.1612 30.7021 26.1969H30.9197V26.4254C30.8218 26.9585 30.7348 27.5134 30.6912 27.9703C30.4519 30.0048 30.6912 31.43 31.3767 32.3221C31.6225 32.6383 31.9403 32.8911 32.3037 33.0596C32.667 33.228 33.0654 33.3071 33.4655 33.2904C35.0104 33.2904 36.7294 32.2025 38.481 30.1462C39.4035 29.1059 40.2301 27.9844 40.9507 26.7953L41.4294 26.0011V26.9259C41.3206 30.4182 41.1248 33.4536 40.8202 36.3802C37.5345 41.3631 35.0648 45.8564 35.0648 45.8564L34.9996 45.9978C34.0729 47.4339 33.2964 48.9615 32.6822 50.5564L31.9206 52.7867C31.1591 55.3978 31.0067 57.2365 31.4637 58.4115C31.6142 58.8499 31.8905 59.2344 32.2581 59.5169C32.6257 59.7993 33.0684 59.9673 33.5308 59.9999H33.8354C34.653 59.9842 35.4327 59.6528 36.0114 59.0751C37.6878 57.254 38.917 55.0675 39.6016 52.6888C40.5683 50.0316 41.2965 47.2936 41.7776 44.5073C41.8972 43.7131 42.006 42.9298 42.104 42.1356L42.1801 41.5589C42.1801 41.3631 42.1801 41.1781 42.2671 40.9823C42.3542 40.7865 42.6479 38.0122 42.735 37.2724C43.1484 36.6522 43.5618 36.043 43.9752 35.4555C44.5736 34.5851 45.8792 32.7682 46.5972 31.7673C47.3153 30.7664 47.9354 29.983 48.4903 29.2758C50.1549 27.187 51.1993 26.4254 51.8521 26.2404H51.9718H52.1132C52.2056 26.2412 52.296 26.2676 52.3743 26.3166C52.4316 26.3823 52.4726 26.4606 52.494 26.5451C52.5378 26.7856 52.5596 27.0295 52.5593 27.274C52.5557 30.9535 51.7407 34.5869 50.1723 37.9154C48.604 41.244 46.3209 44.1856 43.4857 46.5309C43.4047 46.6039 43.3173 46.6695 43.2246 46.7268C42.6915 47.1184 41.6905 47.8147 42.3107 48.7068C42.4033 48.8357 42.5261 48.9397 42.6684 49.0099C42.8107 49.0801 42.9681 49.1143 43.1266 49.1094C43.4089 49.1079 43.6833 49.0164 43.91 48.8483C47.257 46.3301 49.9705 43.0658 51.8346 39.3149C53.6987 35.564 54.6621 31.4299 54.6481 27.2414C54.6481 24.1624 52.7442 24.2168 52.5593 24.2168" fill="#00ACBE"></path><path d="M56.0735 7.16839C55.833 6.95029 55.5292 6.81471 55.2063 6.78144C54.8833 6.74817 54.5582 6.81894 54.2783 6.98344L50.8513 8.86561L44.6172 5.79756C44.5623 5.7736 44.5031 5.76123 44.4432 5.76123C44.3833 5.76123 44.324 5.7736 44.2691 5.79756L42.9418 6.51562C42.8439 6.51562 42.8439 6.65705 42.9418 6.72233L48.5665 10.2473L44.5302 12.6735L42.7786 11.8793C42.7219 11.855 42.6608 11.8425 42.5991 11.8425C42.5374 11.8425 42.4763 11.855 42.4196 11.8793L41.8212 12.2165C41.801 12.2293 41.7843 12.2469 41.7727 12.2679C41.7612 12.2888 41.7551 12.3123 41.7551 12.3362C41.7551 12.3601 41.7612 12.3836 41.7727 12.4046C41.7843 12.4255 41.801 12.4431 41.8212 12.4559L43.4096 14.0443C43.4942 14.1425 43.5572 14.2574 43.5946 14.3816L44.095 16.5575C44.0984 16.581 44.1077 16.6033 44.1221 16.6223C44.1364 16.6413 44.1553 16.6564 44.177 16.6662C44.1986 16.6759 44.2225 16.6801 44.2462 16.6782C44.2699 16.6763 44.2927 16.6685 44.3126 16.6554L44.9219 16.3182C44.9748 16.2862 45.0205 16.2436 45.0561 16.193C45.0917 16.1424 45.1164 16.085 45.1286 16.0244V15.611L45.2591 14.6318L45.3244 14.1531L49.5784 12.1295L50.0135 18.2982C50.0143 18.3208 50.0208 18.3428 50.0326 18.362C50.0443 18.3813 50.0609 18.3972 50.0806 18.4081C50.1003 18.4191 50.1226 18.4248 50.1451 18.4246C50.1677 18.4244 50.1898 18.4183 50.2094 18.407L51.5802 17.6781C51.6305 17.6455 51.6731 17.6023 51.705 17.5516C51.7369 17.5009 51.7575 17.4438 51.7652 17.3844L52.0371 10.7695L55.3663 8.86561C55.6592 8.70203 55.8884 8.44442 56.0167 8.13445C56.145 7.82447 56.165 7.48027 56.0735 7.15751" fill="#00ACBE"></path><path d="M41.8863 14.6863L41.0704 15.1323L40.5046 15.3935L40.0042 15.6981L38.9924 16.2965L38.0132 16.9384C36.6883 17.806 35.4234 18.762 34.2271 19.7997L33.6831 20.2893C34.0129 20.3243 34.3235 20.4617 34.5713 20.6821C34.8191 20.9026 34.9917 21.1952 35.0648 21.5187L35.4674 21.04C36.4846 19.9141 37.5749 18.8565 38.7312 17.874L39.6125 17.1342L40.5046 16.4814L40.9616 16.1224L41.4294 15.7851L42.2127 15.2194C42.2127 15.1323 42.1583 15.0344 42.1366 14.9365L41.8863 14.6863Z" fill="url(#paint0_linear_28_412)"></path><path d="M75.8199 19.1143H78.7139C79.1273 19.1143 79.3231 19.3428 79.1708 19.7562L72.1643 37.3159C72.1121 37.4541 72.018 37.5725 71.895 37.6545C71.7721 37.7364 71.6266 37.7778 71.4789 37.7729H68.5414C68.3938 37.7778 68.2483 37.7364 68.1253 37.6545C68.0024 37.5725 67.9082 37.4541 67.856 37.3159L60.8931 19.7453C60.7407 19.3319 60.8931 19.1034 61.35 19.1034H64.244C64.3916 19.0984 64.5372 19.1398 64.6601 19.2218C64.783 19.3038 64.8772 19.4222 64.9294 19.5604L70.0319 33.1273L75.1345 19.5713C75.1853 19.4321 75.2791 19.3127 75.4024 19.2305C75.5256 19.1484 75.6719 19.1077 75.8199 19.1143Z" fill="#00ACBE"></path><path d="M99.2546 19.68V37.1527C99.2594 37.2296 99.2477 37.3067 99.2205 37.3789C99.1932 37.451 99.1509 37.5165 99.0963 37.571C99.0418 37.6255 98.9763 37.6678 98.9042 37.6951C98.8321 37.7224 98.755 37.7341 98.678 37.7293H96.2083C95.8602 37.7293 95.6752 37.5008 95.6317 37.1527L95.4467 34.9767C94.7426 35.9228 93.8219 36.6862 92.7618 37.203C91.7017 37.7198 90.5332 37.9749 89.3542 37.9469C84.0558 37.9469 80.2479 33.6821 80.2479 28.3946C80.2479 23.1071 84.0558 18.6029 89.3542 18.6029C90.5531 18.5872 91.7377 18.8644 92.8051 19.4105C93.8726 19.9565 94.7906 20.7549 95.4794 21.7363L95.6317 19.5603C95.6317 19.4851 95.6467 19.4106 95.6758 19.3413C95.7049 19.2719 95.7475 19.2091 95.8012 19.1564C95.8549 19.1037 95.9186 19.0623 95.9885 19.0345C96.0584 19.0067 96.1331 18.9931 96.2083 18.9946H98.678C98.7657 18.9862 98.8542 18.9992 98.9357 19.0325C99.0173 19.0658 99.0896 19.1185 99.1463 19.1859C99.203 19.2533 99.2425 19.3335 99.2614 19.4196C99.2802 19.5057 99.2779 19.595 99.2546 19.68ZM95.3162 28.449C95.3602 27.6756 95.248 26.9013 94.9861 26.1723C94.7243 25.4433 94.3183 24.7745 93.7923 24.2058C93.2663 23.6372 92.6311 23.1803 91.9247 22.8626C91.2182 22.5448 90.455 22.3727 89.6805 22.3564C86.4167 22.3564 84.0449 24.9457 84.0449 28.449C83.9971 29.2185 84.1073 29.9897 84.3689 30.715C84.6305 31.4403 85.0378 32.1043 85.5659 32.6662C86.0939 33.228 86.7313 33.6758 87.439 33.9819C88.1467 34.2879 88.9095 34.4458 89.6805 34.4458C90.4516 34.4458 91.2144 34.2879 91.9221 33.9819C92.6298 33.6758 93.2672 33.228 93.7953 32.6662C94.3233 32.1043 94.7306 31.4403 94.9922 30.715C95.2538 29.9897 95.364 29.2185 95.3162 28.449Z" fill="#00ACBE"></path><path d="M119.926 26.3495V37.1529C119.93 37.2289 119.919 37.3051 119.892 37.3764C119.866 37.4477 119.824 37.5127 119.771 37.567C119.718 37.6214 119.654 37.6639 119.583 37.6919C119.512 37.7199 119.436 37.7327 119.36 37.7296H116.499C116.423 37.7327 116.347 37.7199 116.276 37.6919C116.205 37.6639 116.141 37.6214 116.088 37.567C116.034 37.5127 115.993 37.4477 115.966 37.3764C115.94 37.3051 115.928 37.2289 115.933 37.1529V26.9152C115.933 23.7166 114.29 22.3458 112.082 22.3458C110.945 22.394 109.855 22.8107 108.975 23.5329C108.096 24.2551 107.476 25.2437 107.208 26.3495V37.1529C107.212 37.2289 107.201 37.3051 107.174 37.3764C107.147 37.4477 107.106 37.5127 107.053 37.567C107 37.6214 106.935 37.6639 106.865 37.6919C106.794 37.7199 106.718 37.7327 106.642 37.7296H103.78C103.704 37.7327 103.628 37.7199 103.558 37.6919C103.487 37.6639 103.423 37.6214 103.369 37.567C103.316 37.5127 103.275 37.4477 103.248 37.3764C103.221 37.3051 103.21 37.2289 103.215 37.1529V19.6803C103.21 19.6047 103.221 19.5291 103.248 19.4582C103.275 19.3874 103.316 19.3231 103.37 19.2696C103.423 19.2161 103.488 19.1746 103.558 19.1478C103.629 19.1211 103.705 19.1098 103.78 19.1145H106.489C106.564 19.1131 106.638 19.1267 106.708 19.1546C106.777 19.1825 106.84 19.2241 106.893 19.2769C106.946 19.3298 106.987 19.3927 107.015 19.462C107.043 19.5313 107.057 19.6056 107.055 19.6803L107.208 22.1935C107.836 21.1349 108.727 20.2564 109.794 19.6427C110.862 19.0291 112.069 18.701 113.3 18.6902C117.173 18.6576 119.926 21.3557 119.926 26.3495Z" fill="#00ACBE"></path><path d="M140.51 19.6802V37.1528C140.515 37.2288 140.503 37.305 140.477 37.3763C140.45 37.4476 140.409 37.5126 140.355 37.5669C140.302 37.6213 140.238 37.6638 140.167 37.6918C140.096 37.7198 140.02 37.7326 139.944 37.7295H137.235C137.16 37.731 137.085 37.7171 137.014 37.6885C136.944 37.6599 136.881 37.6173 136.828 37.5633C136.775 37.5093 136.734 37.445 136.706 37.3744C136.679 37.3039 136.667 37.2284 136.67 37.1528L136.517 34.9769C135.911 35.9522 135.071 36.7613 134.074 37.3311C133.077 37.9009 131.954 38.2135 130.805 38.2408C126.584 38.2408 123.842 35.4991 123.842 30.5163V19.6367C123.838 19.5611 123.849 19.4854 123.876 19.4146C123.903 19.3438 123.944 19.2795 123.998 19.226C124.051 19.1725 124.115 19.131 124.186 19.1042C124.257 19.0775 124.333 19.0661 124.408 19.0709H127.27C127.345 19.0661 127.421 19.0775 127.492 19.1042C127.562 19.131 127.627 19.1725 127.68 19.226C127.734 19.2795 127.775 19.3438 127.802 19.4146C127.829 19.4854 127.84 19.5611 127.835 19.6367V29.9179C127.835 33.1818 129.554 34.5635 131.796 34.5635C132.944 34.5623 134.054 34.1522 134.927 33.4065C135.801 32.6608 136.38 31.6285 136.561 30.4945V19.6149C136.556 19.5394 136.567 19.4637 136.594 19.3929C136.621 19.3221 136.662 19.2578 136.716 19.2042C136.769 19.1507 136.834 19.1092 136.904 19.0825C136.975 19.0557 137.051 19.0444 137.127 19.0492H139.988C140.066 19.0494 140.143 19.0669 140.214 19.1003C140.284 19.1336 140.347 19.1822 140.397 19.2424C140.447 19.3026 140.483 19.373 140.502 19.4487C140.522 19.5243 140.524 19.6034 140.51 19.6802Z" fill="#00ACBE"></path><path d="M162.977 19.6801V37.1527C162.981 37.2287 162.97 37.3049 162.943 37.3762C162.917 37.4475 162.875 37.5125 162.822 37.5668C162.769 37.6212 162.704 37.6637 162.634 37.6917C162.563 37.7197 162.487 37.7325 162.411 37.7294H159.93C159.855 37.7309 159.779 37.717 159.709 37.6884C159.639 37.6598 159.576 37.6172 159.523 37.5632C159.47 37.5092 159.428 37.4449 159.401 37.3743C159.374 37.3038 159.362 37.2283 159.364 37.1527L159.169 34.9768C158.465 35.9236 157.545 36.6875 156.484 37.2043C155.424 37.7212 154.255 37.9759 153.076 37.947C147.789 37.947 143.981 33.6821 143.981 28.3947C143.981 23.1072 147.789 18.603 153.076 18.603C154.277 18.5864 155.463 18.8632 156.532 19.4092C157.602 19.9553 158.522 20.7541 159.212 21.7363L159.364 19.5604C159.363 19.4857 159.377 19.4115 159.405 19.3422C159.432 19.2729 159.474 19.2099 159.527 19.1571C159.58 19.1042 159.643 19.0626 159.712 19.0347C159.781 19.0068 159.856 18.9932 159.93 18.9947H162.411C162.498 18.9855 162.587 18.9981 162.668 19.0314C162.75 19.0647 162.822 19.1176 162.878 19.1855C162.934 19.2534 162.972 19.3341 162.989 19.4204C163.007 19.5067 163.002 19.5959 162.977 19.6801ZM159.092 28.449C159.138 27.6753 159.027 26.9004 158.766 26.1707C158.504 25.441 158.098 24.7716 157.572 24.2026C157.046 23.6337 156.41 23.1769 155.703 22.8596C154.996 22.5424 154.232 22.3712 153.457 22.3565C150.193 22.3565 147.821 24.9458 147.821 28.449C147.773 29.2186 147.884 29.9898 148.145 30.7151C148.407 31.4404 148.814 32.1044 149.342 32.6662C149.87 33.2281 150.508 33.6759 151.215 33.9819C151.923 34.288 152.686 34.4459 153.457 34.4459C154.228 34.4459 154.991 34.288 155.698 33.9819C156.406 33.6759 157.044 33.2281 157.572 32.6662C158.1 32.1044 158.507 31.4404 158.768 30.7151C159.03 29.9898 159.14 29.2186 159.092 28.449Z" fill="#00ACBE"></path><path d="M177.294 19.6798V21.8558C177.299 21.9313 177.287 22.007 177.261 22.0778C177.234 22.1486 177.192 22.2129 177.139 22.2664C177.085 22.32 177.021 22.3615 176.95 22.3882C176.879 22.4149 176.804 22.4263 176.728 22.4215H173.682V37.1525C173.687 37.2295 173.675 37.3066 173.648 37.3787C173.621 37.4508 173.578 37.5163 173.524 37.5708C173.469 37.6254 173.404 37.6677 173.332 37.695C173.259 37.7223 173.182 37.7339 173.105 37.7291H170.255C170.178 37.7339 170.101 37.7223 170.029 37.695C169.957 37.6677 169.891 37.6254 169.837 37.5708C169.782 37.5163 169.74 37.4508 169.712 37.3787C169.685 37.3066 169.674 37.2295 169.678 37.1525V22.4215H166.632C166.556 22.4263 166.481 22.4149 166.41 22.3882C166.339 22.3615 166.275 22.32 166.221 22.2664C166.168 22.2129 166.126 22.1486 166.1 22.0778C166.073 22.007 166.061 21.9313 166.066 21.8558V19.6798C166.061 19.6043 166.073 19.5286 166.1 19.4578C166.126 19.387 166.168 19.3227 166.221 19.2692C166.275 19.2157 166.339 19.1741 166.41 19.1474C166.481 19.1207 166.556 19.1093 166.632 19.1141H169.678V13.968C169.674 13.8911 169.685 13.814 169.712 13.7419C169.74 13.6697 169.782 13.6042 169.837 13.5497C169.891 13.4952 169.957 13.4529 170.029 13.4256C170.101 13.3983 170.178 13.3866 170.255 13.3914H173.105C173.182 13.3866 173.259 13.3983 173.332 13.4256C173.404 13.4529 173.469 13.4952 173.524 13.5497C173.578 13.6042 173.621 13.6697 173.648 13.7419C173.675 13.814 173.687 13.8911 173.682 13.968V19.1141H176.728C176.804 19.1093 176.879 19.1207 176.95 19.1474C177.021 19.1741 177.085 19.2157 177.139 19.2692C177.192 19.3227 177.234 19.387 177.261 19.4578C177.287 19.5286 177.299 19.6043 177.294 19.6798Z" fill="#00ACBE"></path><path d="M196.866 19.68V37.1527C196.871 37.2287 196.86 37.3048 196.833 37.3762C196.806 37.4475 196.765 37.5124 196.712 37.5668C196.658 37.6211 196.594 37.6637 196.523 37.6917C196.453 37.7197 196.377 37.7325 196.301 37.7293H193.592C193.516 37.7309 193.441 37.7169 193.371 37.6883C193.301 37.6598 193.237 37.6172 193.184 37.5632C193.131 37.5092 193.09 37.4449 193.063 37.3743C193.035 37.3037 193.023 37.2283 193.026 37.1527L192.874 34.9768C192.263 35.9582 191.417 36.7711 190.411 37.3412C189.406 37.9113 188.274 38.2206 187.118 38.2407C182.897 38.2407 180.155 35.499 180.155 30.5161V19.6365C180.151 19.561 180.162 19.4853 180.189 19.4145C180.215 19.3437 180.257 19.2794 180.31 19.2259C180.364 19.1723 180.428 19.1308 180.499 19.1041C180.57 19.0773 180.646 19.066 180.721 19.0708H183.582C183.658 19.066 183.734 19.0773 183.804 19.1041C183.875 19.1308 183.94 19.1723 183.993 19.2259C184.047 19.2794 184.088 19.3437 184.115 19.4145C184.142 19.4853 184.153 19.561 184.148 19.6365V29.9178C184.148 33.1816 185.867 34.5634 188.108 34.5634C189.257 34.5622 190.367 34.152 191.24 33.4063C192.114 32.6607 192.693 31.6283 192.874 30.4944V19.6148C192.869 19.5392 192.88 19.4635 192.907 19.3927C192.934 19.3219 192.975 19.2576 193.029 19.2041C193.082 19.1506 193.147 19.1091 193.217 19.0823C193.288 19.0556 193.364 19.0442 193.439 19.049H196.301C196.382 19.0426 196.465 19.055 196.541 19.0855C196.617 19.1159 196.685 19.1635 196.74 19.2246C196.794 19.2856 196.834 19.3585 196.856 19.4375C196.878 19.5165 196.882 19.5995 196.866 19.68Z" fill="#00ACBE"></path></g><defs><linearGradient id="paint0_linear_28_412" x1="33.7266" y1="18.1025" x2="42.2345" y2="18.1025" gradientUnits="userSpaceOnUse"><stop stop-color="white" stop-opacity="0"></stop><stop offset="0.19" stop-color="#B5E7EC" stop-opacity="0.29"></stop><stop offset="0.38" stop-color="#75D2DC" stop-opacity="0.54"></stop><stop offset="0.57" stop-color="#42C2CF" stop-opacity="0.74"></stop><stop offset="0.74" stop-color="#1EB6C6" stop-opacity="0.88"></stop><stop offset="0.89" stop-color="#08AFC0" stop-opacity="0.97"></stop><stop offset="1" stop-color="#00ACBE"></stop></linearGradient><clipPath id="clip0_28_412"><rect width="196.876" height="60" fill="white"></rect></clipPath></defs></svg>